<?xml version="1.0" standalone="no"?><!DOCTYPE svg PUBLIC "-//W3C//DTD SVG 1.1//EN" "http://www.w3.org/Graphics/SVG/1.1/DTD/svg11.dtd"><svg t="1684477846653" class="icon" viewBox="0 0 1024 1024" version="1.1" xmlns="http://www.w3.org/2000/svg" p-id="13442" xmlns:xlink="http://www.w3.org/1999/xlink" width="200" height="200"><path d="M438.72 960h-243.2c-42.304 0-76.8-34.56-76.8-76.8V140.928c0-42.304 34.496-76.8 76.8-76.8h627.2c42.24 0 76.8 34.496 76.8 76.8v252.992c0 14.208-14.08 27.2-31.232 27.2-17.024 0-33.28-12.992-33.28-27.2v-240.64a25.6 25.6 0 0 0-25.6-25.6H211.84a25.6 25.6 0 0 0-25.6 25.6V871.04c0 14.08 11.52 25.6 25.6 25.6h226.88c14.208 0 25.664 15.616 25.664 32.128 0 16.64-11.52 31.168-25.664 31.168z" p-id="13443"></path><path d="M745.92 982.72a253.376 253.376 0 0 1-180.992-75.072 254.08 254.08 0 0 1-75.008-180.928c0-68.48 26.56-132.736 75.008-180.992a254.08 254.08 0 0 1 180.992-75.008c68.48 0 132.672 26.56 180.928 75.008a254.976 254.976 0 0 1 75.072 180.992c0 68.48-26.624 132.672-75.072 180.928a254.08 254.08 0 0 1-180.928 75.072z m0-448c-105.92 0-192 86.08-192 192s86.08 192 192 192 192-86.08 192-192-86.08-192-192-192z m-44.8-217.6h-384a31.872 31.872 0 0 1-32-32c0-17.792 14.208-32 32-32h384c17.728 0 32 14.208 32 32 0 17.728-14.272 32-32 32z m-224 153.6h-160a31.872 31.872 0 0 1-32-32c0-17.792 14.208-32 32-32h160c17.728 0 32 14.208 32 32 0 17.728-14.272 32-32 32z m-64 153.6h-96a31.872 31.872 0 0 1-32-32c0-17.792 14.208-32 32-32h96c17.728 0 32 14.208 32 32 0 17.728-14.272 32-32 32z" p-id="13444"></path><path d="M821.76 724.288l-75.136 48.704a25.6 25.6 0 1 1-27.84-43.008l75.2-48.64a25.6 25.6 0 1 1 27.84 42.944z" p-id="13445"></path><path d="M711.232 765.44l-48.704-75.264a25.6 25.6 0 1 1 42.944-27.776l48.704 75.2a25.6 25.6 0 1 1-42.944 27.776z" p-id="13446"></path></svg>