<?xml version="1.0" standalone="no"?><!DOCTYPE svg PUBLIC "-//W3C//DTD SVG 1.1//EN" "http://www.w3.org/Graphics/SVG/1.1/DTD/svg11.dtd"><svg t="1677561042287" class="icon" viewBox="0 0 1024 1024" version="1.1" xmlns="http://www.w3.org/2000/svg" p-id="3142" xmlns:xlink="http://www.w3.org/1999/xlink" width="200" height="200"><path d="M513.170286 0a228.205714 228.205714 0 0 1 227.986285 227.986286c0 75.483429-37.229714 144.822857-98.889142 187.099428v58.806857h269.897142A111.908571 111.908571 0 0 1 1024 585.728V720.457143a111.908571 111.908571 0 0 1-111.835429 111.908571H111.835429A111.908571 111.908571 0 0 1 0 720.457143V585.654857a111.908571 111.908571 0 0 1 111.835429-111.835428h272.237714v-58.733715a226.377143 226.377143 0 0 1-98.889143-187.099428A228.205714 228.205714 0 0 1 513.170286 0z m1.024 73.142857a153.6 153.6 0 0 0-60.708572 294.765714l-0.073143 180.882286H117.028571a43.885714 43.885714 0 0 0-43.300571 36.790857L73.142857 592.676571v124.342858a43.885714 43.885714 0 0 0 43.885714 43.885714h789.942858a43.885714 43.885714 0 0 0 43.885714-43.885714v-124.342858a43.885714 43.885714 0 0 0-43.885714-43.885714H570.441143L570.514286 369.664A153.6 153.6 0 0 0 514.194286 73.142857z" p-id="3143"></path><path d="M73.142857 950.857143m36.571429 0l804.571428 0q36.571429 0 36.571429 36.571428l0 0q0 36.571429-36.571429 36.571429l-804.571428 0q-36.571429 0-36.571429-36.571429l0 0q0-36.571429 36.571429-36.571428Z" p-id="3144"></path></svg>