<?xml version="1.0" standalone="no"?><!DOCTYPE svg PUBLIC "-//W3C//DTD SVG 1.1//EN" "http://www.w3.org/Graphics/SVG/1.1/DTD/svg11.dtd"><svg t="1677561045668" class="icon" viewBox="0 0 1024 1024" version="1.1" xmlns="http://www.w3.org/2000/svg" p-id="3277" xmlns:xlink="http://www.w3.org/1999/xlink" width="200" height="200"><path d="M804.571429 0a146.285714 146.285714 0 0 1 146.285714 146.285714v263.314286a399.579429 399.579429 0 0 0-73.142857-28.745143V146.285714a73.142857 73.142857 0 0 0-73.142857-73.142857H146.285714a73.142857 73.142857 0 0 0-73.142857 73.142857v658.285715a73.142857 73.142857 0 0 0 73.142857 73.142857h234.569143c7.241143 25.526857 16.822857 50.029714 28.745143 73.142857H146.285714a146.285714 146.285714 0 0 1-146.285714-146.285714V146.285714a146.285714 146.285714 0 0 1 146.285714-146.285714h658.285715zM409.6 585.142857H182.857143a36.571429 36.571429 0 0 1 0-73.142857h274.797714a402.870857 402.870857 0 0 0-48.128 73.142857z m285.257143-365.714286a36.571429 36.571429 0 0 1 0 73.142858h-512a36.571429 36.571429 0 0 1 0-73.142858h512z m41.325714 219.428572C895.122286 438.857143 1024 569.782857 1024 731.428571s-128.877714 292.571429-287.817143 292.571429C577.097143 1024 438.857143 878.372571 438.857143 716.8 438.857143 555.154286 577.170286 438.857143 736.182857 438.857143zM731.428571 497.371429a234.057143 234.057143 0 1 0 0 468.114285 234.057143 234.057143 0 0 0 0-468.114285zM652.580571 574.171429L732.16 731.428571l79.433143-157.257142h66.852571l-98.742857 179.785142h67.291429v31.744h-84.992l-0.512 44.617143h85.577143v31.744h-85.577143v77.824h-58.733715v-77.824H617.691429v-31.744h84.992v-44.105143l-84.992-0.512v-31.744h66.779428L585.728 574.171429h66.852571z" p-id="3278"></path></svg>