<?xml version="1.0" standalone="no"?><!DOCTYPE svg PUBLIC "-//W3C//DTD SVG 1.1//EN" "http://www.w3.org/Graphics/SVG/1.1/DTD/svg11.dtd"><svg t="1684477829124" class="icon" viewBox="0 0 1024 1024" version="1.1" xmlns="http://www.w3.org/2000/svg" p-id="13038" xmlns:xlink="http://www.w3.org/1999/xlink" width="200" height="200"><path d="M691.2 455.68h-10.24l-71.68-52.736-71.68 52.736h-10.24c-8.704 0-51.2-3.584-51.2-75.776V162.816c0-43.52 24.064-75.776 56.32-75.776h153.6c32.256 0 56.32 32.768 56.32 75.776v217.088c0 72.192-42.496 75.776-51.2 75.776zM609.28 327.168l71.68 52.224V162.816a32.512 32.512 0 0 0-2.56-14.336H539.648c-1.024 3.072-2.56 7.68-2.56 14.336v216.576l72.192-52.224zM820.736 961.536h-614.4a133.504 133.504 0 0 1-133.12-133.12V583.68c0-16.896 13.824-30.72 30.72-30.72H399.36c16.896 0 30.72 13.824 30.72 30.72s-13.824 30.72-30.72 30.72H134.656v214.016c0 39.424 32.256 71.68 71.68 71.68h614.4c39.424 0 71.68-32.256 71.68-71.68V614.4H645.12a30.784 30.784 0 0 1-30.72-30.72c0-16.896 13.824-30.72 30.72-30.72h278.016c16.896 0 30.72 13.824 30.72 30.72v244.736c0 73.216-59.904 133.12-133.12 133.12z" p-id="13039"></path><path d="M876.544 583.68h-61.44V219.136c0-39.424-32.256-71.68-71.68-71.68h-460.8c-39.424 0-71.68 32.256-71.68 71.68V583.68h-61.44V219.136c0-73.216 59.904-133.12 133.12-133.12h460.8c73.216 0 133.12 59.904 133.12 133.12V583.68z" p-id="13040"></path><path d="M522.24 737.28c-84.48 0-153.6-69.12-153.6-153.6 0-16.896 13.824-30.72 30.72-30.72s30.72 13.824 30.72 30.72c0 50.688 41.472 92.16 92.16 92.16 50.688 0 92.16-41.472 92.16-92.16 0-16.896 13.824-30.72 30.72-30.72s30.72 13.824 30.72 30.72c0 84.48-69.12 153.6-153.6 153.6z" p-id="13041"></path></svg>