<?xml version="1.0" standalone="no"?><!DOCTYPE svg PUBLIC "-//W3C//DTD SVG 1.1//EN" "http://www.w3.org/Graphics/SVG/1.1/DTD/svg11.dtd"><svg t="1677561012982" class="icon" viewBox="0 0 1102 1024" version="1.1" xmlns="http://www.w3.org/2000/svg" p-id="2606" xmlns:xlink="http://www.w3.org/1999/xlink" width="215.234375" height="200"><path d="M846.296615 987.451077c-17.092923-17.092923-11.972923-43.008 0-55.611077l164.155077-156.750769-164.155077-164.785231c-12.603077-11.972923-12.603077-36.233846 0-48.836923 11.972923-12.603077 42.929231-12.603077 55.532308 0l191.566769 190.936615c5.671385 5.671385 9.452308 13.863385 9.452308 22.055385 0 8.192-3.150769 16.384-9.452308 22.055385l-191.566769 190.936615c-6.301538 7.561846-39.148308 18.274462-55.532308 0zM511.763692 822.350769c-15.911385 0-35.918769-17.329231-35.918769-39.384615s20.007385-39.384615 35.918769-39.384616h487.030154c15.911385 0 28.435692 17.329231 28.435692 39.384616s-12.524308 39.384615-28.356923 39.384615H511.684923z m220.947693 157.538462H563.830154c-15.36 0-34.422154-17.329231-34.422154-39.384616s19.062154-39.384615 34.422154-39.384615h168.881231c15.36 0 33.004308 17.329231 33.004307 39.384615s-17.644308 39.384615-33.004307 39.384616zM438.980923 551.384615a276.086154 276.086154 0 0 1-275.692308-275.692307c0-151.945846 123.746462-275.692308 275.692308-275.692308s275.692308 123.746462 275.692308 275.692308S590.926769 551.384615 438.980923 551.384615z m-1.102769-468.519384a197.159385 197.159385 0 0 0-196.923077 196.923077c0 108.544 88.300308 196.923077 196.923077 196.923077 108.544 0 196.923077-88.379077 196.923077-196.923077 0-108.622769-88.379077-196.923077-196.923077-196.923077zM0.078769 937.038769a428.977231 428.977231 0 0 1 568.398769-405.188923c16.384 5.671385 23.867077 29.459692 18.195693 45.843692-5.671385 16.384-24.969846 29.459692-41.353846 23.788308-38.439385-13.233231-75.776-14.651077-116.736-14.651077-188.888615 0-352.571077 163.288615-352.571077 350.208 0 17.644308-19.771077 33.713231-37.415385 33.713231-17.644308 0-38.518154-16.068923-38.518154-33.713231z" p-id="2607"></path></svg>