<?xml version="1.0" standalone="no"?><!DOCTYPE svg PUBLIC "-//W3C//DTD SVG 1.1//EN" "http://www.w3.org/Graphics/SVG/1.1/DTD/svg11.dtd"><svg t="1677561030525" class="icon" viewBox="0 0 1024 1024" version="1.1" xmlns="http://www.w3.org/2000/svg" p-id="2740" xmlns:xlink="http://www.w3.org/1999/xlink" width="200" height="200"><path d="M716.141714 0a36.571429 36.571429 0 1 1 0 73.142857H109.714286a36.571429 36.571429 0 0 0-36.571429 36.571429v658.285714a36.571429 36.571429 0 0 0 36.571429 36.571429h804.571428a36.571429 36.571429 0 0 0 36.571429-36.571429V478.208a36.571429 36.571429 0 1 1 73.142857 0V768a109.714286 109.714286 0 0 1-109.714286 109.714286h-804.571428A109.714286 109.714286 0 0 1 0 768v-658.285714A109.714286 109.714286 0 0 1 109.714286 0z m252.928 86.747429a36.571429 36.571429 0 0 1 43.593143 45.056l-50.834286 189.074285a36.571429 36.571429 0 0 1-61.586285 15.872l-47.469715-49.078857-216.649142 216.941714a36.571429 36.571429 0 0 1-49.444572-0.731428l-113.371428-107.373714-221.257143 231.936c2.340571 7.168 3.949714 14.628571 3.949714 22.528a73.142857 73.142857 0 1 1-58.221714-71.606858L445.513143 319.634286a36.571429 36.571429 0 0 1 51.565714-1.316572l115.492572 109.348572 189.44-192.658286-41.691429-43.081143a36.571429 36.571429 0 0 1 18.066286-61.001143zM969.142857 950.857143H54.857143a36.571429 36.571429 0 1 0 0 73.142857h914.285714a36.571429 36.571429 0 1 0 0-73.142857z" p-id="2741"></path></svg>