<?xml version="1.0" standalone="no"?><!DOCTYPE svg PUBLIC "-//W3C//DTD SVG 1.1//EN" "http://www.w3.org/Graphics/SVG/1.1/DTD/svg11.dtd"><svg t="1701331937502" class="icon" viewBox="0 0 1024 1024" version="1.1" xmlns="http://www.w3.org/2000/svg" p-id="4291" xmlns:xlink="http://www.w3.org/1999/xlink" width="200" height="200"><path d="M527.744 52.672h-16.768L86.144 136.32a27.136 27.136 0 0 0-22.336 27.904v373.76c0 276.16 229.632 419.904 449.92 475.648h11.136c217.536-55.68 452.288-199.552 452.288-475.584V164.224a27.136 27.136 0 0 0-22.336-27.904L527.744 52.672z m382.016 485.376c0 242.56-195.328 357.12-390.4 410.112-195.264-53.056-390.4-164.736-390.4-410.112V197.76l390.4-78.08 390.4 78.08v340.224zM407.68 259.2c-30.72 0-61.376 8.32-89.216 22.336-16.768 8.32-19.52 30.72-5.568 44.608l94.848 94.72-33.472 33.536-94.784-94.976a25.28 25.28 0 0 0-19.52-8.32c-11.136 0-19.456 5.568-25.088 16.768a196.096 196.096 0 0 0 36.288 225.856c35.968 36.48 85.376 56.576 136.576 55.68 22.336 0 44.672-2.752 64.192-11.072l158.912 153.344 19.52 19.456a27.008 27.008 0 0 0 39.04 0l19.584-19.456 38.976-39.04 19.52-19.52a27.008 27.008 0 0 0 0-39.04l-19.52-19.52-158.976-153.344c25.088-69.76 8.32-147.84-44.608-203.648a185.792 185.792 0 0 0-136.64-58.496v0.128z m144.96 301.184l159.04 153.344-39.04 39.04-158.912-153.408a55.04 55.04 0 0 0-39.04-16.768c-5.568 0-11.136 0-19.52 2.752-15.168 5.76-31.232 8.576-47.36 8.448-36.288 0-72.512-13.888-97.6-41.856a135.872 135.872 0 0 1-39.04-122.752L335.296 493.44c10.24 10.56 24.32 16.64 39.04 16.704a54.976 54.976 0 0 0 39.04-16.704l33.472-33.472c22.272-22.272 22.272-58.496 0-78.08L382.656 317.76c8.32-2.816 16.768-2.816 25.088-2.816 36.288 0 72.512 13.888 97.6 41.856 39.04 36.288 50.24 94.784 33.472 145.024-8.384 19.584-2.816 41.92 13.824 58.624z" p-id="4292"></path></svg>