<?xml version="1.0" encoding="UTF-8"?>
<svg width="22px" height="22px" viewBox="0 0 22 22" version="1.1" xmlns="http://www.w3.org/2000/svg" xmlns:xlink="http://www.w3.org/1999/xlink">
    <title>97EF0BFD-0AFD-43CF-8598-DCC6C9C5DF2A@0.0x</title>
    <g id="页面-1" stroke="none" stroke-width="1" fill="none" fill-rule="evenodd">
        <g id="画板备份" transform="translate(-166.000000, -669.000000)" fill="#1850AE" fill-rule="nonzero">
            <g id="ic_-fw_bxsq" transform="translate(166.000000, 669.000000)">
                <rect id="矩形" opacity="0" x="0" y="0" width="22" height="22"></rect>
                <path d="M15,1 C16.1045695,1 17,1.8954305 17,3 L17,7 L15,7 L15,4 C15,3.44771525 14.5522847,3 14,3 L4,3 C3.44771525,3 3,3.44771525 3,4 L3,18 C3,18.5522847 3.44771525,19 4,19 L12,19 L12,21 L3,21 C1.8954305,21 1,20.1045695 1,19 L1,3 C1,1.8954305 1.8954305,1 3,1 L15,1 Z" id="形状结合"></path>
                <path d="M18.6375557,9.02301214 L18.6175052,9.02044594 C18.4491903,8.97430317 18.2694551,9.00715522 18.1277704,9.10995981 C17.9896327,9.22077957 17.9094464,9.38994867 17.9103027,9.5687515 L17.9409381,11.443677 L17.0101923,11.471121 L16.9795704,9.59620891 C16.97691,9.41617823 16.8899429,9.24807297 16.7453669,9.14349922 C16.6007909,9.03892547 16.4158796,9.01037748 16.2473984,9.06661909 C15.7435678,9.2318926 15.2876696,9.52037095 14.9197903,9.90661183 C14.1750667,10.6793339 13.854184,11.7754916 14.0621664,12.8365246 C14.2701488,13.8975577 14.980241,14.7869733 15.9601371,15.2138 L16.0532992,20.4298282 C16.0533796,20.5844011 16.1153533,20.7323902 16.2250008,20.83984 C16.3346482,20.9472897 16.4825567,21.004976 16.6347891,20.9996629 L18.6737373,20.9649325 C18.8259859,20.9653079 18.9715774,20.9020163 19.0762536,20.7899749 C19.1820993,20.6802986 19.2401567,20.5320884 19.237414,20.3784993 L19.1442519,15.1624711 C19.492537,14.9938515 19.8077798,14.7626068 20.0747322,14.4799219 C20.875386,13.6532421 21.1855088,12.4582703 20.8902981,11.3373657 C20.5950875,10.216461 19.7384716,9.33641724 18.6375557,9.02301214 Z" id="路径"></path>
                <path d="M8.30299763,15.0335061 C8.49059677,15.1225323 8.71574409,15.1478978 8.92734798,15.1038465 C9.13895187,15.0597952 9.31906929,14.9500624 9.42682706,14.7995494 L11.9650734,11.2945454 L11.9650734,11.2598784 L11.9979662,11.1948905 C12.0003472,11.1761656 12.0003472,11.1572992 11.9979662,11.1385743 C12.0004481,11.1169561 12.0004481,11.0952046 11.9979662,11.0735864 C12.0006779,11.0519767 12.0006779,11.0302081 11.9979662,11.0085984 L11.9979662,10.7616441 L11.9650734,10.7009819 L11.9650734,10.5840036 L11.9157342,10.536339 L11.8608957,10.4886947 L11.8060829,10.4540277 L11.7293244,10.4107091 L11.690958,10.4107091 L11.6032524,10.3803679 L8.67579148,10.3803679 L10.5232629,7.85018336 C10.6701564,7.6489598 10.670055,7.40108838 10.5229972,7.19993986 C10.3759393,6.99879135 10.1042664,6.875 9.8103151,6.875 C9.5163638,6.875 9.24479226,6.99908015 9.09789886,7.20030372 L6.54323179,10.7053077 C6.54143036,10.7153714 6.54143036,10.7255853 6.54323179,10.735649 C6.54323179,10.7572981 6.51581254,10.7789675 6.5048654,10.8049627 C6.49391825,10.8309579 6.5048654,10.8396297 6.5048654,10.8612788 L6.5048654,11.2988712 C6.5048654,11.3161946 6.53225895,11.3335382 6.54323179,11.3551873 L6.58159818,11.4071777 L6.63643667,11.4548423 L6.69124947,11.5025069 L6.74606227,11.5371536 L6.81734718,11.5804925 L6.85024,11.5804925 L6.98728485,11.6281368 L7.04209765,11.6281368 C7.10270475,11.642002 7.16541545,11.6492919 7.22850742,11.6498062 L9.82704016,11.6498062 L7.979543,14.180011 C7.78185248,14.4871376 7.92422977,14.8628265 8.30299763,15.0335061 L8.30299763,15.0335061 Z" id="路径"></path>
            </g>
        </g>
    </g>
</svg>