<?xml version="1.0" encoding="UTF-8"?>
<svg width="22px" height="22px" viewBox="0 0 22 22" version="1.1" xmlns="http://www.w3.org/2000/svg" xmlns:xlink="http://www.w3.org/1999/xlink">
    <title>586A5B28-0A38-4879-9FD7-457D83B60592@0.0x</title>
    <g id="页面-1" stroke="none" stroke-width="1" fill="none" fill-rule="evenodd">
        <g id="画板备份" transform="translate(-248.000000, -669.000000)" fill-rule="nonzero">
            <g id="ic_-fw_cjsq" transform="translate(248.000000, 669.000000)">
                <rect id="矩形" fill-opacity="0" fill="#D2D2D2" opacity="0" x="0" y="0" width="22" height="22"></rect>
                <g id="扳手" transform="translate(11.000222, 11.000000) scale(-1, 1) translate(-11.000222, -11.000000) translate(1.000000, 0.000000)" fill="#1850AE">
                    <path d="M18.3964344,0 C19.2786399,0 20.0004444,0.733333333 20.0004444,1.62962963 L20.0004444,17.0092593 C20.0004444,19.7541667 17.7899181,22 15.0881637,22 L12.244,22 L12.244,19.962 L15.1984537,19.962963 C15.9114167,19.962963 16.5886052,19.7104377 17.1267136,19.2417355 L17.2838704,19.0946759 C17.8440556,18.5319444 18.1521574,17.7935185 18.1521574,17.0092593 L18.1521574,2.85185185 C18.1521574,2.40115741 17.788037,2.03703704 17.3373426,2.03703704 L2.72160185,2.03703704 C2.27090741,2.03703704 1.90678704,2.40115741 1.90678704,2.85185185 L1.906,8.937 L0,8.937 L0.000444444444,1.62962963 C0.000444444444,0.783127572 0.644276246,0.0819844536 1.45900167,0.00669232332 L1.60445447,0 Z" id="形状"></path>
                    <path d="M15.0836476,7.89550781 C15.0729054,7.87617187 15.0578663,7.85683594 15.0406788,7.84179687 C14.9332569,7.734375 14.7592335,7.734375 14.6518116,7.84179687 L10.9500538,11.5435547 L9.49126476,10.0847656 L13.195171,6.38085937 C13.2123585,6.36367187 13.2252491,6.34648437 13.2381398,6.32714844 C13.3154835,6.19609375 13.2725148,6.02851562 13.1414601,5.95117187 C11.0316944,4.70507812 8.26880382,4.99082031 6.45337413,6.80410156 C5.01392101,8.24355469 4.53696788,10.2845703 5.02466319,12.1193359 L0.123775761,17.4144304 C0.0593226359,17.4788835 0.0636195109,17.584157 0.130221073,17.6507585 L3.77611951,21.296657 C3.84272107,21.3632585 3.95014295,21.3675554 4.01244764,21.3031023 L8.91118663,16.0101562 C10.7481007,16.5 12.7891163,16.0251953 14.2307179,14.5835937 C16.0439991,12.7681641 16.3297413,10.0052734 15.0836476,7.89550781 Z M13.1371632,13.4878906 C11.888921,14.7361328 10.0154835,14.9767578 8.52661632,14.2097656 L8.33755382,14.3988281 L3.81125232,19.1799224 L2.10968982,17.4783599 L5.69067882,13.6404297 L6.82720226,12.5082031 C6.06021007,11.0193359 6.30083507,9.14589844 7.54907726,7.89765625 C8.39126476,7.05546875 9.52778819,6.66660156 10.6428273,6.74824219 L7.78755382,9.60136719 C7.51899913,9.86992187 7.51899913,10.3060547 7.78755382,10.5746094 L10.4623585,13.2494141 C10.7309132,13.5179687 11.167046,13.5179687 11.4356007,13.2494141 L14.2887257,10.3962891 C14.3682179,11.5091797 13.9793507,12.6478516 13.1371632,13.4878906 Z" id="形状"></path>
                </g>
            </g>
        </g>
    </g>
</svg>