<?xml version="1.0" encoding="UTF-8"?>
<svg width="22px" height="22px" viewBox="0 0 22 22" version="1.1" xmlns="http://www.w3.org/2000/svg" xmlns:xlink="http://www.w3.org/1999/xlink">
    <title>909501F0-E294-4866-BDAB-FE4B83486836@0.0x</title>
    <g id="页面-1" stroke="none" stroke-width="1" fill="none" fill-rule="evenodd">
        <g id="画板备份" transform="translate(-412.000000, -669.000000)">
            <g id="ic_-fw_gdgl" transform="translate(412.000000, 669.000000)">
                <rect id="矩形" fill-opacity="0" fill="#E9E9E9" x="0" y="0" width="22" height="22"></rect>
                <g id="工单管理" transform="translate(1.000000, 1.000000)">
                    <path d="M4.74355637,1 C4.74294888,1.00316984 4.7423819,1.00820988 4.74193364,1.01499192 L4.74129436,1.07556256 C4.75045986,1.43296797 4.96020907,2.87337337 6.91008342,2.87337337 L12.9694962,2.87337337 C15.1614099,2.87337337 15.2746681,1.0950951 15.2564436,1 L17.9172091,1 C19.0679511,1 20,1.8511011 20,2.9019019 L20,18.0980981 C20,19.1488989 19.0679511,20 17.9172091,20 L2.08279094,20 C0.932048946,20 0,19.1488989 0,18.0980981 L0,2.9019019 C0,1.8511011 0.932048946,1 2.08279094,1 Z M3.30307007,2.99991208 L3.00013733,2.99991208 C2.29421997,2.99991208 1.99987121,3.26713562 1.99987121,4.01008606 L1.99987121,16.4984985 C1.99987121,17.3280781 2.74563916,17.9999417 3.66623275,17.9999417 L16.3337672,17.9999417 C17.2543608,17.9999417 18.0000943,17.3280781 18.0000943,16.4984985 L18.0000943,4.00074813 C18.0000943,3.30511079 17.8734339,2.99991208 17.0016053,2.99991208 L16.6493225,2.99991208 C16.6564636,3.08955383 15.4945221,4.86856079 13.2137299,4.86856079 L6.71258481,4.86856079 C4.40220633,4.86856079 3.28849053,3.07507508 3.30307007,2.99991208 Z" id="形状结合" fill="#184FAE" fill-rule="nonzero"></path>
                    <rect id="矩形" fill="#1850AE" x="6" y="0" width="8" height="2" rx="1"></rect>
                    <path d="M4.0875,15.72 C3.55571875,15.72 3.125,15.2892812 3.125,14.7575 C3.125,14.2257187 3.55571875,13.795 4.0875,13.795 C4.61928125,13.795 5.05,14.2257187 5.05,14.7575 C5.05,15.2892812 4.61928125,15.72 4.0875,15.72 Z" id="路径" fill="#1850AE" fill-rule="nonzero"></path>
                    <path d="M4.0875,12.145 C3.55571875,12.145 3.125,11.7142812 3.125,11.1825 C3.125,10.6507187 3.55571875,10.22 4.0875,10.22 C4.61928125,10.22 5.05,10.6507187 5.05,11.1825 C5.05,11.7142812 4.61928125,12.145 4.0875,12.145 Z" id="路径" fill="#1850AE" fill-rule="nonzero"></path>
                    <path d="M4.0875,8.57 C3.55571875,8.57 3.125,8.13928125 3.125,7.6075 C3.125,7.07571875 3.55571875,6.645 4.0875,6.645 C4.61928125,6.645 5.05,7.07571875 5.05,7.6075 C5.05,8.13928125 4.61928125,8.57 4.0875,8.57 Z" id="路径" fill="#1850AE" fill-rule="nonzero"></path>
                    <path d="M6.54856254,15.5 C6.24575974,15.5 5.875,15.190625 5.875,14.8125 C5.875,14.434375 6.24575974,14.125 6.54856254,14.125 L9.36065913,14.125 C9.66346194,14.125 10,14.434375 10,14.8125 C10,15.190625 9.66346194,15.5 9.36065913,15.5 L6.54856254,15.5 Z" id="路径" fill="#1850AE" fill-rule="nonzero"></path>
                    <path d="M6.60557395,11.9366679 C6.30277115,11.9366679 5.93074849,11.6272929 5.93074849,11.2491679 C5.93074849,10.8710429 6.30277115,10.5616679 6.60557395,10.5616679 L9.41866283,10.5616679 C9.72146563,10.5616679 10.0557485,10.8710429 10.0557485,11.2491679 C10.0557485,11.6272929 9.72146563,11.9366679 9.41866283,11.9366679 L6.60557395,11.9366679 Z" id="路径" fill="#1850AE" fill-rule="nonzero"></path>
                    <path d="M15.4498293,12.9875422 L15.4498293,16.5140416 C15.4498293,16.7208288 15.2798964,16.8875927 15.0827742,16.8742516 L13.8547258,16.8742516 C13.6576036,16.8853691 13.4876707,16.7186053 13.4876707,16.5140416 L13.4876707,12.9875422 C12.6516008,12.6273323 12.0625,11.7935131 12.0625,10.8440709 C12.0625,9.81902913 12.7422316,8.94518658 13.6711982,8.625 L13.6711982,10.857412 L15.2663018,10.857412 L15.2663018,8.625 C16.1952684,8.94518658 16.875,9.81680562 16.875,10.8440709 C16.875,11.7912895 16.2858992,12.6273323 15.4498293,12.9875422 L15.4498293,12.9875422 Z" id="路径" fill="#1850AE" fill-rule="nonzero"></path>
                    <path d="M6.48889684,8.295 C6.219289,8.295 5.875,7.985625 5.875,7.6075 C5.875,7.229375 6.219289,6.92 6.48889684,6.92 L10.7733563,6.92 C11.0429642,6.92 11.375,7.229375 11.375,7.6075 C11.375,7.985625 11.0429642,8.295 10.7733563,8.295 L6.48889684,8.295 Z" id="路径" fill="#1850AE" fill-rule="nonzero"></path>
                </g>
            </g>
        </g>
    </g>
</svg>