<?xml version="1.0" encoding="UTF-8"?>
<svg width="22px" height="22px" viewBox="0 0 22 22" version="1.1" xmlns="http://www.w3.org/2000/svg" xmlns:xlink="http://www.w3.org/1999/xlink">
    <title>6B9FDD27-1300-41A9-B80B-EBFCB619665D@0.0x</title>
    <g id="页面-1" stroke="none" stroke-width="1" fill="none" fill-rule="evenodd">
        <g id="画板备份" transform="translate(-330.000000, -669.000000)">
            <g id="ic_-fw_zbgd" transform="translate(330.000000, 669.000000)">
                <rect id="矩形" fill-opacity="0" fill="#D2D2D2" fill-rule="nonzero" opacity="0" x="0" y="0" width="22" height="22"></rect>
                <g id="扳手" transform="translate(11.152940, 11.000000) scale(-1, 1) translate(-11.152940, -11.000000) translate(1.000000, 0.000000)" fill="#1850AE">
                    <path d="M18.7018696,0 C19.5840751,0 20.3058796,0.733333333 20.3058796,1.62962963 L20.3058796,17.0092593 C20.3058796,19.7541667 18.0953533,22 15.3935989,22 L12.5494352,22 L12.5494352,20 L15.3967887,20 C16.0989831,20 16.7659434,19.7464313 17.2959241,19.2757923 L17.4507072,19.128125 C18.0024314,18.5630682 18.3058796,17.8215909 18.3058796,17.0340909 L18.3058796,2.81818182 C18.3058796,2.365625 17.9472589,2 17.5033718,2 L3.10838747,2 C2.66450032,2 2.30587963,2.365625 2.30587963,2.81818182 L2.30543519,8.937 L0.305435185,8.937 L0.30587963,1.62962963 C0.30587963,0.783127572 0.949711431,0.0819844536 1.76443686,0.00669232332 L1.90988965,0 Z" id="形状" fill-rule="nonzero"></path>
                    <path d="M4.8125,12.375 C7.47036159,12.375 9.625,14.5296384 9.625,17.1875 C9.625,19.8453616 7.47036159,22 4.8125,22 C2.15463841,22 0,19.8453616 0,17.1875 C0,14.5296384 2.15463841,12.375 4.8125,12.375 Z M5.63757607,15.2294425 L5.51399708,15.240519 C5.19327942,15.298731 4.95007607,15.5794351 4.95007607,15.9169425 L4.95007607,17.5958175 L2.88757607,17.5958609 C2.50788031,17.5958609 2.20007607,17.9036651 2.20007607,18.2833609 C2.20007607,18.6630566 2.50788031,18.9708609 2.88757607,18.9708609 L5.63757607,18.9708609 C6.01727184,18.9708609 6.32507607,18.6630566 6.32507607,18.2833609 L6.32507607,15.9169425 C6.32507607,15.5372467 6.01727184,15.2294425 5.63757607,15.2294425 Z" id="形状结合" fill-rule="nonzero"></path>
                    <rect id="矩形" x="6.68087963" y="6" width="10" height="2" rx="1"></rect>
                    <rect id="矩形备份-8" x="11.1751852" y="11" width="5.5" height="2" rx="1"></rect>
                </g>
            </g>
        </g>
    </g>
</svg>