<?xml version="1.0" encoding="UTF-8"?>
<svg width="22px" height="22px" viewBox="0 0 22 22" version="1.1" xmlns="http://www.w3.org/2000/svg" xmlns:xlink="http://www.w3.org/1999/xlink">
    <title>03FFB71C-CBF3-46AD-B4E9-7F9561ADCC8C@0.0x</title>
    <g id="页面-1" stroke="none" stroke-width="1" fill="none" fill-rule="evenodd">
        <g id="画板备份" transform="translate(-248.000000, -405.000000)">
            <g id="ic_ly_tc" transform="translate(248.000000, 405.000000)">
                <rect id="矩形" fill-opacity="0" fill="#D8D8D8" x="0" y="0" width="22" height="22"></rect>
                <path d="M6.0566206,20.8617958 L16.0253705,21.5724654 C18.3652161,20.2215548 19.8066206,17.7249692 19.8066206,15.0231482 C19.8066206,12.3213272 18.3652161,9.82474164 16.0253705,8.47383113 C13.6855248,7.12292061 10.8027161,7.12292061 8.46287051,8.47383113 C6.12302488,9.82474164 6.0566206,12.3213272 6.0566206,15.0231482 C6.0566206,16.8243622 6.0566206,18.7705781 6.0566206,20.8617958 Z" id="路径" fill-opacity="0.152862762" fill="#F99057" fill-rule="nonzero" transform="translate(12.931621, 14.516557) scale(-1, 1) translate(-12.931621, -14.516557) "></path>
                <path d="M19.39599,0 L2.60401003,0 C1.72180451,0 1,0.733333333 1,1.62962963 L1,20.3703704 C1,21.2666667 1.72180451,22 2.60401003,22 L16.0877193,22 C18.7894737,22 21,19.7541667 21,17.0092593 L21,1.62962963 C21,0.733333333 20.2781955,0 19.39599,0 Z M19,17.0340909 C19,17.8215909 18.6965517,18.5630682 18.1448276,19.128125 C17.5931034,19.6931818 16.8633229,20 16.0909091,20 L3.80250784,20 C3.35862069,20 3,19.634375 3,19.1818182 L3,2.81818182 C3,2.365625 3.35862069,2 3.80250784,2 L18.1974922,2 C18.6413793,2 19,2.365625 19,2.81818182 L19,17.0340909 Z" id="形状" fill="#F99057" fill-rule="nonzero"></path>
                <path d="M8.43583718,14.3803918 C8.31247397,14.3803918 8.18911076,14.3382878 8.09315373,14.2400371 L4.26891784,10.3103583 C4.07702739,10.1138689 4.07702739,9.80511023 4.26891784,9.60862085 L8.09315373,5.69297266 C8.2850678,5.49649536 8.58660657,5.49649536 8.77850883,5.69297266 C8.97041109,5.88944995 8.97039929,6.1982207 8.77850883,6.39471008 L5.31064768,9.95949561 L8.79221192,13.5242811 C8.98411418,13.7207584 8.98411418,14.0295171 8.79221192,14.2260065 C8.69625489,14.3242572 8.55920039,14.3803918 8.43583718,14.3803918 Z M11.7529053,14.2961838 C11.5747298,14.4786305 11.3005854,14.4786305 11.122398,14.2961838 L7.20220509,10.2822849 C7.02401772,10.0998383 7.02401772,9.81914087 7.20220509,9.6367063 L11.122398,5.63682593 C11.3005854,5.45439136 11.5747298,5.45439136 11.7529053,5.63682593 M11.7391905,11.9383717 C11.7391905,11.9383717 17.153445,11.503301 16.2076604,17.875 C16.2076604,17.875 18.7571549,14.8575665 17.5509408,11.6436316 C16.9478396,10.4787622 16.2213635,8.07885815 11.7391905,8.05078479 L11.7391905,11.9383838 L11.7391905,11.9383717 Z" id="形状" fill="#F99057" fill-rule="nonzero"></path>
            </g>
        </g>
    </g>
</svg>