<?xml version="1.0" encoding="UTF-8"?>
<svg width="22px" height="22px" viewBox="0 0 22 22" version="1.1" xmlns="http://www.w3.org/2000/svg" xmlns:xlink="http://www.w3.org/1999/xlink">
    <title>599D92B2-F784-4E69-B52A-122585C06D25@0.0x</title>
    <g id="页面-1" stroke="none" stroke-width="1" fill="none" fill-rule="evenodd">
        <g id="画板备份" transform="translate(-248.000000, -493.000000)">
            <g id="ic_logistics_ysxq" transform="translate(248.000000, 493.000000)">
                <rect id="矩形" fill-opacity="0" fill="#E9E9E9" x="0" y="0" width="22" height="22"></rect>
                <path d="M17.875,16.8102855 C18.4311307,16.8102855 18.9325047,17.1452789 19.14533,17.6590753 C19.3581553,18.1728716 19.240519,18.7642793 18.8472752,19.157523 C18.4540315,19.5507668 17.8626238,19.6684031 17.3488275,19.4555778 C16.8350311,19.2427525 16.5000377,18.7413785 16.5000377,18.1852478 C16.499991,17.8205708 16.6448377,17.4708166 16.9027032,17.2129511 C17.1605688,16.9550855 17.510323,16.8102388 17.875,16.8102855 Z M11.9493946,16.8039493 C12.5055236,16.8039493 13.0068923,17.1389544 13.2197121,17.6527513 C13.4325318,18.1665482 13.3148911,18.757953 12.921646,19.1511931 C12.5284008,19.5444332 11.9369946,19.6620663 11.4232004,19.44924 C10.9094061,19.2364137 10.5743946,18.7350407 10.5743946,18.1789116 C10.5743946,17.8142316 10.719217,17.4644747 10.9770864,17.2066086 C11.2349558,16.9487425 11.5847145,16.8038979 11.9493946,16.8039493 Z M15,17 L8,17 L8,19 L3,19 C1.8954305,19 1,18.1045695 1,17 L1,3 C1,1.8954305 1.8954305,1 3,1 L15,1 C16.1045695,1 17,1.8954305 17,3 L17,12 L15,12 L15,17 Z M4,3 L14,3 C14.5522847,3 15,3.44771525 15,4 L15,16 C15,16.5522847 14.5522847,17 14,17 L4,17 C3.44771525,17 3,16.5522847 3,16 L3,4 C3,3.44771525 3.44771525,3 4,3 Z M14,12.617 L14,16 L20.625,16 L20.625,17.4706134 C20.6245153,17.6937578 20.4353947,17.8745367 20.2019538,17.875 L19.3583014,17.875 C19.2564266,17.1665803 18.6231554,16.6387602 17.8750779,16.6387602 C17.1270005,16.6387602 16.4937293,17.1665803 16.3918545,17.875 L13.4352349,17.875 C13.3331122,17.1667378 12.6998849,16.6391452 11.9519369,16.6391452 C11.2039889,16.6391452 10.5707616,17.1667378 10.4686389,17.875 L10.0480462,17.875 C9.81460527,17.8745367 9.62548467,17.6937578 9.625,17.4706134 L9.625,15.448486 C9.625,15.0653747 9.94886549,14.631809 9.94886549,14.631809 L10.8944367,13.0221145 L11.0504262,12.8445098 C11.1770546,12.7103704 11.3070786,12.6177149 11.5290195,12.6177149 L14,12.617 Z M12.75,13.5494394 L12.1050615,13.5494394 C12.0217337,13.5494394 11.9062829,13.6793311 11.9062829,13.6793311 L11.2007149,14.8606697 C11.0972781,14.9955221 11.0281583,15.156439 11,15.3279521 L12.75,15.3281636 L12.75,13.5494394 Z M6,5 L12,5 C12.5522847,5 13,5.44771525 13,6 C13,6.55228475 12.5522847,7 12,7 L6,7 C5.44771525,7 5,6.55228475 5,6 C5,5.44771525 5.44771525,5 6,5 Z M6,9 L9,9 C9.55228475,9 10,9.44771525 10,10 C10,10.5522847 9.55228475,11 9,11 L6,11 C5.44771525,11 5,10.5522847 5,10 C5,9.44771525 5.44771525,9 6,9 Z" id="形状" fill="#1850AE"></path>
            </g>
        </g>
    </g>
</svg>