<?xml version="1.0" encoding="UTF-8"?>
<svg width="22px" height="22px" viewBox="0 0 22 22" version="1.1" xmlns="http://www.w3.org/2000/svg" xmlns:xlink="http://www.w3.org/1999/xlink">
    <title>C699B857-4D12-4EE7-9A20-8BFC8DE1CCB4@0.0x</title>
    <g id="页面-1" stroke="none" stroke-width="1" fill="none" fill-rule="evenodd">
        <g id="画板备份" transform="translate(-494.000000, -405.000000)">
            <g id="ic_ly_bthf" transform="translate(494.000000, 405.000000)">
                <rect id="矩形" fill-opacity="0" fill="#D2D2D2" fill-rule="nonzero" opacity="0" x="0" y="0" width="22" height="22"></rect>
                <path d="M15.8067964,0 L14.4375,1.375 L11.684486,4.125 L11.683375,1.925 L3.57801675,1.925 C3.04396503,1.925 2.6125,2.31601613 2.6125,2.8000005 L2.6125,19.1999995 C2.6125,19.6839839 3.04396503,20.075 3.57801675,20.075 L3.9875,20.075 L3.9875,22 L2.45191103,22 C1.48148496,22 0.6875,21.2666667 0.6875,20.3703704 L0.6875,1.62962963 C0.6875,0.733333333 1.48148496,0 2.45191103,0 L15.8067964,0 Z M6.86929642,20.075 L17.8826496,20.075 C18.8904665,20.1121133 19.394375,19.7676179 19.394375,19.0415138 L19.394375,22 L5.5,21.9981297 L6.86929642,20.075 Z M9.62198595,16.472411 L9.62198595,20.0792801 L6.87198595,20.0792801 L9.62198595,16.472411 Z M19.554964,0 C20.52539,0 21.319375,0.733333333 21.319375,1.62962963 L21.3205859,20.0753073 C21.3206557,21.1382159 20.4590545,21.9999302 19.3961458,22 C19.3961037,22 19.3960616,22 19.3960195,22 L19.3960195,22 L19.3960195,22 L19.394375,2.8000005 C19.394375,2.31601613 18.96291,1.925 18.4288582,1.925 L17.3470866,1.925 L17.3470866,0 L19.554964,0 Z" id="形状" fill="#EF6318"></path>
                <polygon id="路径" fill="#EF6318" fill-rule="nonzero" points="10.1999219 10.7851562 7.3425 10.7851562 7.3425 9.49609375 9.56039648 9.49609375 7.3425 5.82226562 8.84640625 5.82226562 10.8444531 9.04492188 12.8425 5.82226562 14.3464062 5.82226562 12.1285098 9.49609375 14.3464062 9.49609375 14.3464062 10.7851562 11.4889844 10.7851562 11.4889844 12.4609375 14.3464062 12.4609375 14.3464062 13.75 11.4889844 13.75 11.4889844 16.5 10.1999219 16.5 10.1999219 13.75 7.3425 13.75 7.3425 12.4609375 10.1999219 12.4609375"></polygon>
            </g>
        </g>
    </g>
</svg>