<?xml version="1.0" encoding="UTF-8"?>
<svg width="22px" height="22px" viewBox="0 0 22 22" version="1.1" xmlns="http://www.w3.org/2000/svg" xmlns:xlink="http://www.w3.org/1999/xlink">
    <title>C109923F-B80A-45D3-B728-396389376601@0.0x</title>
    <g id="页面-1" stroke="none" stroke-width="1" fill="none" fill-rule="evenodd">
        <g id="画板备份" transform="translate(-330.000000, -405.000000)" fill-rule="nonzero">
            <g id="ic_ly_zlhk" transform="translate(330.000000, 405.000000)">
                <rect id="矩形" fill="#000000" opacity="0" x="0" y="0" width="22" height="22"></rect>
                <path d="M20.7119564,8.90700478 L11.534959,1.18199478 C11.2468929,0.939335075 10.7530846,0.939335075 10.4650185,1.18199478 L1.32922802,8.86655044 C1.12346332,9.02832357 1,9.23055105 1,9.51366509 L1,20.1911122 C1,20.6359994 1.37036745,21 1.82305879,21 L20.1769412,21 C20.6296325,21 21,20.6359994 21,20.1911122 L21,9.51366509 C21,9.27100539 20.8765367,9.06877791 20.7119339,8.90700478 L20.7119564,8.90700478 Z M3,19 L3,10.008287 L10.9836876,3.31616035 L19,10.008287 L19,19 L3,19 Z" id="形状" fill="#1850AE"></path>
                <path d="M4.79286328,14.6182051 L6.36429492,14.6182051 L6.36429492,16.1896152 L4.79286328,16.1896152 L4.79286328,14.6182051 Z M4.79286328,11.8642949 L6.36429492,11.8642949 L6.36429492,13.4357051 L4.79286328,13.4357051 L4.79286328,11.8642949 Z M4.79286328,17.3721152 L6.36429492,17.3721152 L6.36429492,18.9435254 L4.79286328,18.9435254 L4.79286328,17.3721152 Z M7.93179492,14.6142949 L9.50322656,14.6142949 L9.50322656,16.1857051 L7.93179492,16.1857051 L7.93179492,14.6142949 Z M7.93179492,17.3642949 L9.50322656,17.3642949 L9.50322656,18.9357051 L7.93179492,18.9357051 L7.93179492,17.3642949 Z M11.0707266,17.3642949 L12.6421582,17.3642949 L12.6421582,18.9357051 L11.0707266,18.9357051 L11.0707266,17.3642949 Z M13.7107051,16.6571367 L14.8107051,15.5571367 L13.6714316,14.4178633 L18.9356836,14.4178633 L18.9356836,12.8464316 L13.6714316,12.8464316 L14.8107051,11.7071367 L13.7107051,10.6071367 L10.6857051,13.6321367 L13.7107051,16.6571367 Z" id="形状" fill="#1850AE"></path>
            </g>
        </g>
    </g>
</svg>