<?xml version="1.0" encoding="UTF-8"?>
<svg width="22px" height="22px" viewBox="0 0 22 22" version="1.1" xmlns="http://www.w3.org/2000/svg" xmlns:xlink="http://www.w3.org/1999/xlink">
    <title>666B14F8-FAEB-40CB-AB74-CBB3EC1EB683@0.0x</title>
    <g id="页面-1" stroke="none" stroke-width="1" fill="none" fill-rule="evenodd">
        <g id="画板备份" transform="translate(-576.000000, -405.000000)" fill-rule="nonzero">
            <g id="ic_ly_ds" transform="translate(576.000000, 405.000000)">
                <rect id="矩形" fill="#000000" opacity="0" x="0" y="0" width="22" height="22"></rect>
                <path d="M12.7903231,1.47152817 L19.7657383,5.38311367 C20.5271437,5.81006243 21,6.62468575 21,7.50930585 L21,10.5559084 C21,11.3436098 20.4401708,12.0030366 19.70357,12.1439804 L19.6737417,19.1994038 C19.669032,20.1923447 18.8705768,21 17.893466,21 L3.98910484,21 C3.00759835,21 2.20945713,20.1888607 2.20914314,19.1914856 L2.20882916,12.164251 C1.92844359,12.0942542 1.67160664,11.9476093 1.46280888,11.7341349 C1.16452636,11.4291263 1,11.0246652 1,10.5948658 L1,7.50930585 C1,6.62468575 1.47285629,5.81006243 2.23426167,5.38311367 L9.20967691,1.47152817 C10.3309052,0.842823943 11.6694088,0.842823943 12.7903231,1.47152817 Z M12.5973483,3.39477402 C11.6473264,2.86840866 10.5128884,2.86840866 9.56260027,3.39477402 L4.04608862,6.66964164 C3.40076557,7.02709277 3,7.70911379 3,8.44973769 L3,9.93542709 C3,10.2952648 3.139443,10.6338887 3.39224997,10.8892489 C3.56921485,11.0679744 3.78689495,11.1907488 4.0245335,11.2493517 L4.02479962,17.4858709 C4.02506573,18.3208959 4.70152395,19 5.53339193,19 L16.367082,18.9933707 C17.1952244,18.9933707 17.8719487,18.3171835 17.8759404,17.4858709 L17.9012211,11.2427224 C18.5255212,11.1247211 19,10.5726341 19,9.91315268 L19,8.44310841 C19,7.7024845 18.5992344,7.02046349 17.9539114,6.66301235 Z M15.0193613,15 L6.98481881,15 C6.70867644,15 6,15.224629 6,16 C6,16.775371 6.70867644,17 6.98481881,17 L15.0193613,17 C15.2955037,17 16,16.8371629 16,16 C16,15.1628371 15.2955037,15 15.0193613,15 Z M8.99383764,6.24981323 C8.75088959,6.28709306 8.54866724,6.44813576 8.46660369,6.66968363 C8.38454014,6.8912315 8.43574385,7.13789547 8.60010198,7.31278574 L9.56388062,8.41839421 L8.73906274,8.41839421 C8.36770864,8.41839421 8.06666667,8.70590285 8.06666667,9.06056272 C8.06666667,9.41522259 8.36770864,9.70273123 8.73906274,9.70273123 L10.3270294,9.70273123 L10.3270294,10.5771423 L8.73906274,10.5771423 C8.36770864,10.5771423 8.06666667,10.8646509 8.06666667,11.2193108 C8.06666667,11.5739707 8.36770864,11.8614793 8.73906274,11.8614793 L10.3270294,11.8614793 L10.3270294,12.9328315 C10.3270294,13.2874914 10.6280713,13.575 10.9994254,13.575 C11.3707795,13.575 11.6718215,13.2874914 11.6718215,12.9328315 L11.6718215,11.8625507 L13.2609373,11.8625507 C13.6322914,11.8625507 13.9333333,11.575042 13.9333333,11.2203821 C13.9333333,10.8657223 13.6322914,10.5782136 13.2609373,10.5782136 L11.6718215,10.5782136 L11.6718215,9.70273123 L13.2609373,9.70273123 C13.6322914,9.70273123 13.9333333,9.41522259 13.9333333,9.06056272 C13.9333333,8.70590285 13.6322914,8.41839421 13.2609373,8.41839421 L12.436092,8.41839421 L13.3998707,7.31278574 C13.621325,7.03950445 13.5766315,6.64785657 13.2987367,6.42655098 C13.0208418,6.20524538 12.6094036,6.23364621 12.3677197,6.49081737 L11.0005472,8.05769703 L9.63331996,6.49081737 C9.48165202,6.30497134 9.23678569,6.2125334 8.99383764,6.24981323 Z" id="形状" fill="#1850AE"></path>
            </g>
        </g>
    </g>
</svg>