<?xml version="1.0" encoding="UTF-8"?>
<svg width="22px" height="22px" viewBox="0 0 22 22" version="1.1" xmlns="http://www.w3.org/2000/svg" xmlns:xlink="http://www.w3.org/1999/xlink">
    <title>CE8DC227-7CD6-4F5C-A257-92FA3F8D47FD@0.0x</title>
    <g id="页面-1" stroke="none" stroke-width="1" fill="none" fill-rule="evenodd">
        <g id="画板备份" transform="translate(-412.000000, -405.000000)">
            <g id="ic_ly_bt" transform="translate(412.000000, 405.000000)">
                <rect id="矩形" fill-opacity="0" fill="#D2D2D2" fill-rule="nonzero" opacity="0" x="0" y="0" width="22" height="21.9986628"></rect>
                <path d="M15.8067964,0 L14.4375,1.37491643 L11.684486,4.12474928 L11.683375,1.924883 L3.57801675,1.924883 C3.04396503,1.924883 2.6125,2.31587536 2.6125,2.79983032 L2.6125,19.1988325 C2.6125,19.6827875 3.04396503,20.0737798 3.57801675,20.0737798 L3.9875,20.0737798 L3.9875,21.9986628 L2.45191103,21.9986628 C1.48148496,21.9986628 0.6875,21.2653741 0.6875,20.3691323 L0.6875,1.62953058 C0.6875,0.733288761 1.48148496,0 2.45191103,0 L15.8067964,0 Z M6.86929642,20.6237464 L11.1530908,20.6237464 C11.55,21.1863962 12.1713434,21.8202797 12.6572202,22 L5.5,21.9986628 L6.86929642,20.6237464 Z M9.62198595,17.8696337 L9.62198595,20.6237464 L6.87198595,20.6237464 L9.62198595,17.8696337 Z M19.554964,0 C20.52539,0 21.319375,0.733288761 21.319375,1.62953058 L21.3207122,13.4281599 C20.9530818,12.8165324 20.0666171,11.9402147 19.3960195,11.6061825 L19.394375,2.79983032 C19.394375,2.31587536 18.96291,1.924883 18.4288582,1.924883 L17.3470866,1.924883 L17.3470866,0 L19.554964,0 Z" id="形状" fill="#EF6318"></path>
                <polygon id="路径" fill="#EF6318" fill-rule="nonzero" points="7.03742188 9.4095843 4.18 9.4095843 4.18 8.12060015 6.39789648 8.12060015 4.18 4.44699532 5.68390625 4.44699532 7.68195313 7.6694557 9.68 4.44699532 11.1839063 4.44699532 8.96600977 8.12060015 11.1839063 8.12060015 11.1839063 9.4095843 8.32648438 9.4095843 8.32648438 11.0852637 11.1839063 11.0852637 11.1839063 12.3742478 8.32648438 12.3742478 8.32648438 15.1240807 7.03742188 15.1240807 7.03742188 12.3742478 4.18 12.3742478 4.18 11.0852637 7.03742188 11.0852637"></polygon>
                <path d="M16.3625,12.3742478 C19.0203616,12.3742478 21.175,14.5287553 21.175,17.1864553 C21.175,19.8441554 19.0203616,21.9986628 16.3625,21.9986628 C13.7046384,21.9986628 11.55,19.8441554 11.55,17.1864553 C11.55,14.5287553 13.7046384,12.3742478 16.3625,12.3742478 Z M19.8,16.4989971 L12.925,16.4989971 L12.925,17.8739136 L19.8,17.8739136 L19.8,16.4989971 Z" id="形状结合" fill="#EF6318" fill-rule="nonzero"></path>
            </g>
        </g>
    </g>
</svg>