<?xml version="1.0" encoding="UTF-8"?>
<svg width="22px" height="22px" viewBox="0 0 22 22" version="1.1" xmlns="http://www.w3.org/2000/svg" xmlns:xlink="http://www.w3.org/1999/xlink">
    <title>C1D2F6BA-235B-4EDF-92E8-A80D7A47801B@0.0x</title>
    <g id="页面-1" stroke="none" stroke-width="1" fill="none" fill-rule="evenodd">
        <g id="画板备份" transform="translate(-166.000000, -493.000000)" fill-rule="nonzero">
            <g id="ic_logistics_cys" transform="translate(166.000000, 493.000000)">
                <rect id="矩形" fill="#000000" opacity="0" x="0" y="0" width="22" height="22"></rect>
                <path d="M18.7632358,3 C18.893997,3 19,3.11034659 19,3.246466 L19.0019224,8.28804723 C18.4779706,7.28441783 17.4299443,6.62304688 16.2535507,6.62304688 C15.1722466,6.62304688 14.1993963,7.18182007 13.6422977,8.05155037 C13.1866052,8.61347294 12.9116081,9.33922406 12.9116081,10.1314937 C12.9105459,10.8530064 13.1431857,11.5538221 13.5719436,12.1207208 C12.5414144,12.6214377 11.6755474,13.4272836 11.0826046,14.4375012 L8.78457107,14.4375012 C8.66216822,14.4378989 8.56023511,14.5353533 8.5494642,14.6622782 C8.44043677,15.9845029 7.3775907,17 6.10274278,17 C4.82789486,17 3.76504879,15.9845029 3.65602136,14.6622782 C3.64525045,14.5353533 3.54331734,14.4378989 3.42091449,14.4375012 L1.23676458,14.4375012 C1.10600332,14.4375012 1,14.3271546 1,14.1910352 L1,11.8619315 C1,11.8280347 1.00655043,11.7944844 1.01941503,11.7633451 L3.15905327,6.59667834 C3.19665819,6.50698364 3.28168006,6.44894707 3.37569252,6.44879874 L6.95083221,6.44879874 C7.08159347,6.44879874 7.18759643,6.33845215 7.18759643,6.20233274 L7.18759643,3.24104375 C7.1875336,3.17718033 7.21184437,3.11590661 7.25518063,3.07070213 C7.2985169,3.02549765 7.35732877,3 7.4186783,3 Z M5.98837088,14.0000694 C5.44425076,14.0064179 5.00507248,14.4466612 5.00004357,14.9907934 C4.99501466,15.5349256 5.42598109,15.9832108 5.96989093,15.9996149 C6.24568119,16.0072568 6.51242696,15.9008842 6.70727828,15.7055604 C6.90212959,15.5102366 7.00785528,15.2432345 6.99954453,14.9674644 C6.9818214,14.4235976 6.532491,13.9937209 5.98837088,14.0000694 Z M6.79653126,8 L4.50038648,8 C4.41905832,8.00027902 4.34568607,8.05652977 4.31380565,8.143042 L3.01628547,11.6720386 C2.9895319,11.744637 2.9960385,11.8279091 3.03361216,11.8937874 C3.07118583,11.9596657 3.13482134,11.9993744 3.20306978,11.9995295 L6.79653126,12 C6.90890394,12 7,11.8946676 7,11.7647336 L7,8.23526644 C7,8.10533237 6.90890394,8 6.79653126,8 Z" id="形状结合" fill="#184FAE"></path>
                <path d="M17.216446,12.5645756 C18.2125019,12.1113994 18.7577551,11.0250126 18.5259033,9.95555441 C18.2940516,8.88609623 17.3478524,8.12304688 16.2535507,8.12304688 C15.1592491,8.12304688 14.2130499,8.88609623 13.9811982,9.95555441 C13.7493464,11.0250126 14.2945996,12.1113994 15.2906555,12.5645756 C13.1403827,13.0239294 11.6040922,14.9242569 11.6054289,17.1230469 L20.9016727,17.1230469 C20.9031009,14.9242246 19.3667696,13.0238466 17.216446,12.5645756 L17.216446,12.5645756 Z" id="路径" fill="#184FAE"></path>
            </g>
        </g>
    </g>
</svg>