<?xml version="1.0" encoding="UTF-8"?>
<svg width="22px" height="22px" viewBox="0 0 22 22" version="1.1" xmlns="http://www.w3.org/2000/svg" xmlns:xlink="http://www.w3.org/1999/xlink">
    <title>F570E1BD-BBE7-43B6-A948-716851FBCB2D@0.0x</title>
    <g id="页面-1" stroke="none" stroke-width="1" fill="none" fill-rule="evenodd">
        <g id="画板备份" transform="translate(-330.000000, -493.000000)">
            <g id="ic_logistics_ysd" transform="translate(330.000000, 493.000000)">
                <rect id="矩形" fill-opacity="0" fill="#E9E9E9" x="0" y="0" width="22" height="22"></rect>
                <path d="M14.0232412,20.2372166 C14.7939357,20.5564545 15.6810472,20.38 16.2709128,19.7901344 C16.8607785,19.2002687 17.037233,18.3131573 16.7179951,17.5424627 C16.3987571,16.7717682 15.646696,16.269278 14.8125,16.269278 C14.2654845,16.269208 13.7408532,16.486478 13.3540548,16.8732764 C12.9672565,17.2600747 12.7499865,17.784706 12.7500566,18.3317215 C12.7500566,19.1659175 13.2525466,19.9179787 14.0232412,20.2372166 Z M2.41317468,18.2842907 C2.41317468,19.1184843 2.91566189,19.8705438 3.6863532,20.1897832 C4.45704452,20.5090227 5.3441539,20.3325731 5.93402163,19.7427129 C6.52388935,19.1528527 6.70035036,18.2657456 6.38112077,17.4950502 C6.06189117,16.7243548 5.30983815,16.2218472 4.47564456,16.2218472 C3.92862448,16.2217702 3.4039864,16.4390371 3.01718231,16.8258362 C2.63037822,17.2126353 2.41310459,17.7372706 2.41317468,18.2842907 Z M7,8.34855892 L7,14 L21.625,13.9995589 L21.625,17.0846041 C21.6241518,17.486264 21.2931908,17.8116661 20.8846692,17.8125 L17.4082774,17.8125 C17.2299966,16.5373446 16.1217719,15.5872684 14.8126364,15.5872684 C13.5035009,15.5872684 12.3952762,16.5373446 12.2169954,17.8125 L7.04291104,17.8125 C6.86419641,16.5376281 5.7560485,15.5879614 4.44713956,15.5879614 C3.13823062,15.5879614 2.03008271,16.5376281 1.85136808,17.8125 L1.11533079,17.8125 C0.706809222,17.8116661 0.375848167,17.486264 0.375,17.0846041 L0.375,13.4447747 C0.375,12.8612668 0.780790047,12.2127353 0.905648522,12.0269981 L0.941978099,11.9750127 L2.59651422,9.07730603 L2.81043468,8.82370986 C3.05191455,8.54713415 3.28411334,8.34938681 3.70703412,8.34938681 L7,8.34855892 Z M5.875,13.6875 L5.875,9.5625 L3.9795942,9.5625 C3.85460248,9.5625 3.68142625,9.75733756 3.68142625,9.75733756 L2.05107242,12.9862593 C1.8959171,13.1885378 1.79223751,13.4299132 1.75,13.6871828 L5.875,13.6875 Z" id="形状" fill="#1850AE" fill-rule="nonzero"></path>
                <path d="M14.6192159,5.65147892 L14.6192159,5.74052291 L5.56583152,9.44002887 L5.56583152,9.76298117 L14.6192159,6.17280763 L14.6192159,7.17904485 L7.59702225,10.2857984 L10.3438449,12.4559974 L10.8779575,12.4560185 C11.3560929,12.4560185 11.7436983,12.8436239 11.7436983,13.3217593 L7.109439,13.3217593 C7.109439,12.8436239 7.49704433,12.4560185 7.97517974,12.4560185 L8.36091667,12.4559974 L5.37625,9.79100484 L5.37625,9.35220448 L14.6192159,5.65147892 Z M20.4774946,1.72801562 C20.589997,1.72801562 20.6811983,1.81921687 20.6811983,1.93171932 L20.6811983,6.97338599 C20.6811983,7.08588844 20.589997,7.17708969 20.4774946,7.17708969 L14.6210131,7.17708969 L14.6210131,1.93171932 C14.6210131,1.81921687 14.7122143,1.72801562 14.8247168,1.72801562 L20.4774946,1.72801562 Z M19.2840773,3.24280237 L18.3215773,3.24280237 L18.3215773,6.04808012 L19.2840773,6.04808012 L19.2840773,3.24280237 Z M17.0153273,3.24280237 L16.0528273,3.24280237 L16.0528273,6.04808012 L17.0153273,6.04808012 L17.0153273,3.24280237 Z" id="形状" fill="#1850AE" transform="translate(13.028724, 7.524887) scale(-1, 1) translate(-13.028724, -7.524887) "></path>
            </g>
        </g>
    </g>
</svg>