<?xml version="1.0" encoding="UTF-8"?>
<svg width="22px" height="22px" viewBox="0 0 22 22" version="1.1" xmlns="http://www.w3.org/2000/svg" xmlns:xlink="http://www.w3.org/1999/xlink">
    <title>142384A1-AAF0-44EB-B993-3EC502B85689@0.0x</title>
    <g id="页面-1" stroke="none" stroke-width="1" fill="none" fill-rule="evenodd">
        <g id="画板备份" transform="translate(-166.000000, -760.000000)">
            <g id="ic_-sign" transform="translate(166.000000, 760.000000)">
                <rect id="矩形" fill-opacity="0" fill="#D8D8D8" x="0" y="0" width="22" height="22"></rect>
                <path d="M20.9,20 L1.1,20 C0.492486775,20 0,20.4477153 0,21 C0,21.5522847 0.492486775,22 1.1,22 L20.9,22 C21.5075132,22 22,21.5522847 22,21 C22,20.4477153 21.5075132,20 20.9,20 Z M13.850375,0.200844396 C14.0854752,-0.0337436816 14.4546632,-0.0667275632 14.727625,0.122469396 L14.823875,0.200844396 L18.557,3.9353444 C18.7920236,4.17009491 18.8255887,4.53931094 18.63675,4.8125944 L18.557,4.9074694 L7.43325,16.0284694 L8.514,16.0312194 C9.504,15.9170944 10.1365,15.4275944 10.4995,14.4939694 C10.5870589,14.2685632 10.7865999,14.1057308 11.0249863,14.0651544 C11.2633727,14.024578 11.5055484,14.1122245 11.66275,14.2959694 C12.73525,15.5472194 13.932875,16.0215944 15.34225,15.7644694 L15.52925,15.7232194 L15.6805,15.6420944 C15.972,15.4743444 16.223625,15.2942194 16.43675,15.0989694 L16.528875,15.0068444 L16.333625,14.8748444 C15.092,14.0099694 14.422375,13.1203444 14.342625,12.1702194 L14.33575,11.9790944 C14.33575,10.7663444 15.05075,9.9550944 16.07925,9.8203444 C16.98675,9.6993444 17.934125,10.1475944 18.238,10.9560944 C18.701375,12.1853444 18.797625,13.2908444 18.53225,14.2492194 L18.43875,14.5352194 L18.8557824,14.7478351 C19.1340417,14.8855388 19.4310417,15.0242611 19.746375,15.1635944 L20.109375,15.3217194 C20.4586951,15.4709398 20.6209079,15.8750868 20.4716875,16.2244069 C20.322467,16.573727 19.9183201,16.7359398 19.569,16.5867194 C19.07125,16.3735944 18.607875,16.1604694 18.18025,15.9473444 L17.74025,15.7218444 L17.587625,15.8937194 C17.220404,16.2715725 16.7997633,16.5935387 16.339125,16.8493444 L16.086125,16.9868444 L15.932125,17.0445944 C14.298625,17.4405944 12.816375,17.1119694 11.539,16.0875944 L11.30525,15.8909694 L11.273625,15.9377194 C10.7195,16.7022194 9.922,17.1834694 8.881125,17.3608444 L8.592375,17.4020944 L2.162875,17.4020944 C2.10959962,17.4018138 2.05653662,17.395354 2.00475,17.3828444 L1.88181198,17.3613254 C1.60423235,17.2863069 1.39704703,17.0431479 1.375,16.7475944 L1.37775,16.6183444 L1.868625,12.3943444 C1.88192353,12.2794075 1.92401498,12.169686 1.991,12.0753444 L2.06525,11.9873444 Z M14.337125,1.6583444 L12.75725,3.2368444 L15.519625,5.9992194 L17.098125,4.4207194 L14.337125,1.6583444 Z M16.379,11.1733444 L16.259375,11.1815944 C15.912875,11.2269694 15.709375,11.4565944 15.709375,11.9790944 C15.709375,12.4562194 16.119125,13.0158444 16.95375,13.6277194 L17.221875,13.8147194 L17.243875,13.7363444 C17.37175,13.1519694 17.304375,12.4782194 17.0445,11.7013444 L16.951,11.4400944 C16.9085714,11.325773 16.7216837,11.2134719 16.4951093,11.1819873 L16.379,11.1733444 Z" id="形状" fill="#1850AE" fill-rule="nonzero"></path>
            </g>
        </g>
    </g>
</svg>