<?xml version="1.0" encoding="UTF-8"?>
<svg width="22px" height="22px" viewBox="0 0 22 22" version="1.1" xmlns="http://www.w3.org/2000/svg" xmlns:xlink="http://www.w3.org/1999/xlink">
    <title>F8660CC6-80F5-4F8F-8397-7377BDE79D45@0.0x</title>
    <g id="页面-1" stroke="none" stroke-width="1" fill="none" fill-rule="evenodd">
        <g id="画板备份" transform="translate(-816.000000, -227.000000)" fill="#1850AE" fill-rule="nonzero">
            <g id="ic_wl_wlrk" transform="translate(816.586011, 227.000000)">
                <rect id="矩形" opacity="0" x="0" y="0" width="21.2930057" height="21.2930057"></rect>
                <path d="M14.942949,20.8281153 C14.5909533,20.8278186 14.2658466,20.639782 14.0900643,20.3348204 C13.9126087,20.0308129 13.9126087,19.8131418 14.0900643,19.507949 C14.2661477,19.2034435 14.5911977,19.0158915 14.942949,19.0158393 L18.0635595,19.0158393 L18.0008658,8.71711531 L10.6465028,4.35204915 L2.97627977,8.71830057 L2.97627977,11.1315009 C2.97627977,11.6756786 2.62141021,12.071949 2.07725331,12.071949 C1.53191115,12.071949 1.18413233,11.6768639 1.18413233,11.1326862 L1.18413233,8.17534972 C1.18413233,7.83584688 1.35801134,7.51882231 1.64665217,7.33783176 L10.1236389,2.48774669 C10.4434645,2.28752998 10.8495412,2.28752998 11.1693667,2.48774669 L19.3458601,7.33781096 C19.6344802,7.51880151 19.8107505,7.83464083 19.8095652,8.17651418 L19.872259,19.843896 C19.872259,20.3880529 19.4310113,20.8293006 18.88569,20.8293006 L14.942949,20.8293006 L14.942949,20.8281153 Z" id="路径"></path>
                <path d="M8.32912098,16.2513043 L5.4309017,13.3530851 C5.18262124,13.083697 4.81170157,12.9634971 4.4526087,13.0360605 C4.15450662,13.1153062 4.01610208,13.3542703 3.93683554,13.6227826 C3.85758979,13.8913157 4.01610208,14.3739641 4.29763138,14.6164631 L5.85322684,16.0809603 L2.16833081,16.0809603 C1.81699622,16.0809603 1.4905104,16.2028129 1.31542533,16.5068204 C1.13894691,16.8120003 1.13894691,17.1882096 1.31542533,17.4933894 C1.4905104,17.7985822 1.81699622,17.895586 2.16833081,17.895586 L5.85322684,17.895586 L4.29763138,19.4062042 C4.04804159,19.6546295 3.84338752,20.0982268 3.93685633,20.3998847 C4.03146881,20.7003573 4.21601512,20.8375766 4.47743667,20.9085463 C4.73887902,20.9807013 5.18131191,20.9061758 5.4309017,20.6577713 L8.38825898,17.7003932 C8.60782754,17.4802437 8.71045693,17.1692871 8.66506805,16.86169 C8.63136147,16.6240368 8.51186804,16.4069279 8.32912098,16.2513043 L8.32912098,16.2513043 Z" id="路径"></path>
                <path d="M12.6965369,16.2513043 L9.79833837,13.3530851 C9.54981623,13.0832927 9.17833414,12.9630562 8.81886011,13.0360605 C8.52075803,13.1153062 8.38353875,13.3542703 8.30427221,13.6227826 C8.22500567,13.8913157 8.38353875,14.3739641 8.66506805,14.6164631 L10.2194575,16.0809603 L10.27269,16.1306371 C10.5049831,16.351755 10.6375425,16.6577131 10.6399965,16.9784111 C10.6424506,17.2991091 10.514589,17.60706 10.285707,17.831707 L10.2194575,17.8967713 L8.66506805,19.4062042 C8.41429301,19.6546295 8.20963894,20.0982268 8.30427221,20.3998847 C8.39890548,20.7003573 8.5834518,20.8375766 8.84487335,20.9085463 C9.10513043,20.9807013 9.54874858,20.9061758 9.79833837,20.6577713 L12.7556957,17.7003932 C12.9748339,17.4800213 13.0770142,17.1690942 13.0313195,16.86169 C12.9979175,16.6242024 12.8788511,16.407117 12.6965369,16.2513043 L12.6965369,16.2513043 Z" id="路径"></path>
            </g>
        </g>
    </g>
</svg>