<?xml version="1.0" encoding="UTF-8"?>
<svg width="22px" height="22px" viewBox="0 0 22 22" version="1.1" xmlns="http://www.w3.org/2000/svg" xmlns:xlink="http://www.w3.org/1999/xlink">
    <title>75E78F19-B0A2-452C-9152-C490FFC73032@0.0x</title>
    <g id="页面-1" stroke="none" stroke-width="1" fill="none" fill-rule="evenodd">
        <g id="画板备份" transform="translate(-248.000000, -227.000000)" fill-rule="nonzero">
            <g id="ic_wl_ckgl" transform="translate(248.000000, 227.000000)">
                <rect id="矩形" fill="#000000" opacity="0" x="0" y="0" width="22" height="22"></rect>
                <path d="M4.0020947,11 L4.0020947,17.9999392 C4.0020947,18.5522239 4.44980995,18.9999392 5.0020947,18.9999392 L17.0052153,18.9999392 C17.5575001,18.9999392 18.0052153,18.5522239 18.0052153,17.9999392 L18.0052153,11 L20,11 L20,19 C20,20.1045695 19.1045695,21 18,21 L4,21 C2.8954305,21 2,20.1045695 2,19 L2,11 L4.0020947,11 Z M14,15 L14,17 L12,17 L12,15 L14,15 Z M8,15 L8,17 L6,17 C6.08281573,17 6.02366164,16.9290151 6.00507035,16.9695779 L6,17 L6,15 L8,15 Z M11,15 L11,17 L9,17 C9.08281573,17 9.02366164,16.9290151 9.00507035,16.9695779 L9,17 L9,15 L11,15 Z M11,12 L11,14 L9,14 L9,12 L11,12 Z M8,12 L8,14 L6,14 L6,12 L8,12 Z M8,9 L8,11 L6,11 C6.08281573,11 6.02366164,10.9290151 6.00507035,10.9695779 L6,11 L6,9 L8,9 Z M13.4013861,1.56270856 L21.6396321,7.73109591 L20.4473484,9.31330982 L12.2167932,3.10593314 C11.4935788,2.56049433 10.4940686,2.56923483 9.78050356,3.12723795 L1.58177671,9.53858792 L0.35,7.96198563 L8.55337758,1.60318846 C9.97616314,0.500325072 11.9603828,0.483757233 13.4013861,1.56270856 Z" id="形状" fill="#184FAE"></path>
            </g>
        </g>
    </g>
</svg>