<?xml version="1.0" encoding="UTF-8"?>
<svg width="22px" height="22px" viewBox="0 0 22 22" version="1.1" xmlns="http://www.w3.org/2000/svg" xmlns:xlink="http://www.w3.org/1999/xlink">
    <title>83F38FCD-D7F1-4B1E-BBAF-33DF5F44E2A6@0.0x</title>
    <g id="页面-1" stroke="none" stroke-width="1" fill="none" fill-rule="evenodd">
        <g id="画板备份" transform="translate(-408.000000, -227.000000)" fill="#1850AE" fill-rule="nonzero">
            <g id="ic_wl_kcgl" transform="translate(408.000000, 227.000000)">
                <rect id="矩形" opacity="0" x="0" y="0" width="22" height="22"></rect>
                <path d="M11.7836072,0.333699832 L19.7836072,3.74050686 C20.5212365,4.05462693 21,4.77887627 21,5.5806046 L21,15.4098655 C21,16.2109266 20.522023,16.934708 19.7852961,17.2492431 L11.7852961,20.664729 C11.2836675,20.8788922 10.7163325,20.8788922 10.2147039,20.664729 L2.21470394,17.2492431 C1.47797702,16.934708 1,16.2109266 1,15.4098655 L1,5.5806046 C1,4.77887627 1.47876351,4.05462693 2.21639276,3.74050686 L10.2163928,0.333699832 C10.7170446,0.120496819 11.2829554,0.120496819 11.7836072,0.333699832 Z M4,7.52092802 C3.44771525,7.52092802 3,7.96864327 3,8.52092802 L3,15.0240121 C3,15.4230759 3.23726317,15.7839361 3.603642,15.9421082 L8.603642,18.100695 C8.72879766,18.1547268 8.86367912,18.1825989 9,18.1825989 C9.55228475,18.1825989 10,17.7348837 10,17.1825989 L10,10.6795148 C10,10.2804511 9.76273683,9.91959087 9.396358,9.76141877 L4.396358,7.60283198 C4.27120234,7.54880011 4.13632088,7.52092802 4,7.52092802 Z M12.1517353,2.24136957 L11.0471569,1.75761676 C10.7917362,1.64575464 10.5012098,1.6456182 10.2456841,1.75724037 L4.9870102,4.05440528 C4.60355917,4.22190953 4.42849972,4.66854704 4.59600397,5.05199806 C4.67093458,5.22352934 4.80670971,5.36125133 4.9771569,5.43861626 L6.11273981,5.95405036 C6.37555782,6.07334184 6.67710081,6.07326034 6.9398543,5.95382679 L12.1610013,3.58057537 C12.529671,3.41299804 12.6926886,2.97828392 12.5251113,2.60961421 C12.4503028,2.44503571 12.3173333,2.31389357 12.1517353,2.24136957 Z M15.0383103,3.86883299 L9.4512281,6.43564056 C9.15875017,6.57001026 9.03057813,6.91603863 9.16494783,7.20851656 C9.22446318,7.33806159 9.32939773,7.44129875 9.45989603,7.49869376 L10.2457353,7.84431709 C10.5012076,7.95667743 10.7920113,7.95716457 11.0478586,7.84566076 L16.7249176,5.37147499 C17.0359249,5.23593124 17.1781663,4.87393008 17.0426225,4.56292277 C16.9810827,4.42171866 16.8687404,4.3087871 16.7278601,4.24650945 L15.8600968,3.86290522 C15.5979743,3.74703112 15.2987339,3.74918962 15.0383103,3.86883299 Z M13.396358,18.100695 L18.396358,15.9421082 C18.7627368,15.7839361 19,15.4230759 19,15.0240121 L19,8.52092802 C19,7.96864327 18.5522847,7.52092802 18,7.52092802 C17.8636791,7.52092802 17.7287977,7.54880011 17.603642,7.60283198 L12.603642,9.76141877 C12.2372632,9.91959087 12,10.2804511 12,10.6795148 L12,17.1825989 C12,17.7348837 12.4477153,18.1825989 13,18.1825989 C13.1363209,18.1825989 13.2712023,18.1547268 13.396358,18.100695 Z" id="形状"></path>
            </g>
        </g>
    </g>
</svg>