<?xml version="1.0" encoding="UTF-8"?>
<svg width="22px" height="22px" viewBox="0 0 22 22" version="1.1" xmlns="http://www.w3.org/2000/svg" xmlns:xlink="http://www.w3.org/1999/xlink">
    <title>73DE3E7E-AD2B-4463-B178-0F7BC33B1897@0.0x</title>
    <g id="页面-1" stroke="none" stroke-width="1" fill="none" fill-rule="evenodd">
        <g id="画板备份" transform="translate(-572.000000, -227.000000)" fill-rule="nonzero">
            <g id="ic_wl_wlqg" transform="translate(572.000000, 227.000000)">
                <rect id="矩形" fill="#000000" opacity="0" x="0" y="0" width="22" height="22"></rect>
                <path d="M4.0020947,11 L4.0020947,17.9999392 C4.0020947,18.5522239 4.44980995,18.9999392 5.0020947,18.9999392 L17.0052153,18.9999392 C17.5575001,18.9999392 18.0052153,18.5522239 18.0052153,17.9999392 L18.0052153,11 L20,11 L20,19 C20,20.1045695 19.1045695,21 18,21 L4,21 C2.8954305,21 2,20.1045695 2,19 L2,11 L4.0020947,11 Z M10.0905449,17.0047539 C9.8975293,16.7827773 9.62186328,16.5062949 9.26419141,16.1739531 C8.905875,15.7864824 8.63020898,15.4956914 8.43783789,15.3016445 C8.21704297,15.9941719 7.63859766,16.7139844 6.70250195,17.4617051 L6.16537109,16.7139844 C6.9361875,16.160332 7.44620508,15.6066582 7.69411328,15.0523828 C7.94202148,14.4987305 8.06598633,13.6543086 8.06598633,12.5184941 L8.06598633,9.77687305 L8.80968945,9.77687305 L8.80968945,12.5600449 C8.80968945,13.3077227 8.768375,13.9451211 8.68572461,14.4708437 C9.48432031,15.2185645 10.1589727,15.8280117 10.7103047,16.2985625 L10.0905449,17.0047539 L10.0905449,17.0047539 Z M6.70250195,14.4293145 L6.70250195,8.07376367 L10.2145098,8.07376367 L10.2145098,14.3877852 L9.47078516,14.3877852 L9.47078516,8.90454297 L7.40491211,8.90454297 L7.40491211,14.4293145 L6.70250195,14.4293145 L6.70250195,14.4293145 Z M10.9995488,11.4384531 C10.9440332,11.3833027 10.8613828,11.3138223 10.7516406,11.2307637 C10.6689902,11.1756133 10.5172891,11.0509824 10.2971602,10.8569141 C10.9582344,9.77687305 11.4675859,8.66958984 11.8259023,7.53375391 L12.7349277,7.69991406 C12.6522559,7.89398242 12.5418691,8.17113086 12.4043477,8.53069336 C12.3217187,8.72476172 12.2662031,8.86301367 12.2391113,8.94609375 L15.8750195,8.94609375 C15.8750195,9.38940234 15.8608398,10.1091934 15.8337266,11.1061758 C15.8059473,13.4882129 15.7782109,14.9972324 15.7510547,15.6339648 C15.7510547,16.6860762 15.1997227,17.2261074 14.0983477,17.2540156 L12.3630332,17.2540156 C12.3352539,16.9216738 12.2803613,16.6166172 12.1977539,16.3401348 C12.3630332,16.3401348 12.6380547,16.3537773 13.0241074,16.3816855 L13.767832,16.3816855 C14.5386699,16.4089707 14.910543,16.0772949 14.8834297,15.3847246 C14.9382793,13.7789824 14.9660586,11.9233555 14.9660586,9.81844531 L11.8259023,9.81844531 C11.6050859,10.344791 11.3300645,10.8848223 10.9995488,11.4384531 L10.9995488,11.4384531 Z M10.834291,15.0524043 L10.4211035,14.3046836 C10.6690117,14.1112812 10.8614043,13.8756621 10.9995703,13.5985137 C11.4127578,12.6846328 11.798166,11.7292441 12.1564395,10.7322832 L12.9415,10.9815234 C12.6380762,11.7571523 12.1835957,12.7956211 11.5779941,14.0969727 L13.3546445,13.9723848 C13.1623665,13.4754712 12.9416433,12.9900381 12.6935703,12.5184941 L13.3546445,12.2277031 C13.8504609,13.1974004 14.2772051,14.1112812 14.6355215,14.9693027 L13.9331328,15.2600937 L13.7265176,14.720041 C13.313373,14.7759004 12.7484844,14.8174297 12.0325176,14.8446719 C11.8117227,14.8725801 11.6606445,14.8862227 11.5779941,14.8862227 C11.3023281,14.9141523 11.0544199,14.9693242 10.834291,15.0524043 L10.834291,15.0524043 Z M13.4013861,1.56270856 L21.6396321,7.73109591 L20.4473484,9.31330982 L12.2167932,3.10593314 C11.4935788,2.56049433 10.4940686,2.56923483 9.78050356,3.12723795 L1.58177671,9.53858792 L0.35,7.96198563 L8.55337758,1.60318846 C9.97616314,0.500325072 11.9603828,0.483757233 13.4013861,1.56270856 Z" id="形状" fill="#184FAE"></path>
            </g>
        </g>
    </g>
</svg>