<?xml version="1.0" encoding="UTF-8"?>
<svg width="22px" height="23px" viewBox="0 0 22 23" version="1.1" xmlns="http://www.w3.org/2000/svg" xmlns:xlink="http://www.w3.org/1999/xlink">
    <title>3C26B439-CB69-497D-B507-DFACFAE21553@0.0x</title>
    <g id="页面-1" stroke="none" stroke-width="1" fill="none" fill-rule="evenodd">
        <g id="画板备份" transform="translate(-735.000000, -227.000000)" fill="#1850AE">
            <g id="ic_wl_wldh" transform="translate(735.293006, 227.000000)">
                <rect id="矩形" fill-rule="nonzero" opacity="0" x="0" y="0" width="21.2930057" height="21.2930057"></rect>
                <ellipse id="椭圆形" stroke="#1850AE" opacity="0.392159598" cx="10.5" cy="20" rx="8" ry="1.5"></ellipse>
                <path d="M16.5028488,3.35364839 C13.3742949,0.127758034 8.22138752,0.0304215501 4.99624575,3.15897543 L4.79092628,3.3642949 C1.56503592,6.70958412 1.56503592,12.0031626 4.79092628,15.3370359 C6.75595463,17.3697694 8.5552344,18.9994537 10.1902212,20.2283554 C10.4604378,20.4313799 10.832226,20.4316934 11.1027845,20.2291248 C12.7370227,19.0062949 14.5362817,17.3758412 16.5020794,15.3370567 C19.727952,11.9938787 19.727952,6.69682644 16.5020794,3.35364839 L16.5028488,3.35364839 Z M15.5066314,14.1978809 C13.90662,15.8275444 12.4374026,17.1195766 11.0997486,18.0739565 C10.8350904,18.2627948 10.4796576,18.262494 10.2153195,18.0732079 C8.88298866,17.1188072 7.41757656,15.8267958 5.8183138,14.1978809 C3.15160206,11.4890169 3.15160206,7.14161449 5.8183138,4.43275047 C8.41150662,1.79846881 12.6815028,1.72548204 15.3590983,4.28673535 L15.5066314,4.43275047 C18.1733431,7.14161449 18.1733431,11.4890169 15.5066314,14.1978809 L15.5066314,14.1978809 Z" id="形状" fill-rule="nonzero"></path>
                <path d="M13.5210586,7.15519849 C13.797414,6.86655257 14.2500322,6.84104344 14.5570701,7.09680985 C14.8641081,7.35257627 14.9208073,7.80235297 14.6868507,8.12631758 L14.6260076,8.20009452 L10.8845312,12.1575369 C10.6399692,12.4160499 10.2488329,12.4703888 9.94306427,12.2883308 L9.8632155,12.2336011 L7.12402836,10.0921153 C6.80687066,9.84516174 6.73668061,9.39403177 6.96381677,9.06239305 C7.19095293,8.73075433 7.63695798,8.6331614 7.98184121,8.83963327 L8.0609206,8.89363516 L10.2548696,10.6084707 L13.5202892,7.15521928 L13.5210586,7.15519849 Z" id="路径" fill-rule="nonzero"></path>
            </g>
        </g>
    </g>
</svg>