<?xml version="1.0" encoding="UTF-8"?>
<svg width="23px" height="22px" viewBox="0 0 23 22" version="1.1" xmlns="http://www.w3.org/2000/svg" xmlns:xlink="http://www.w3.org/1999/xlink">
    <title>8D1937E3-5DB3-40F6-B439-717419727232@0.0x</title>
    <g id="页面-1" stroke="none" stroke-width="1" fill="none" fill-rule="evenodd">
        <g id="画板备份" transform="translate(-979.000000, -227.000000)" fill="#1850AE" fill-rule="nonzero">
            <g id="ic_wl_wlth" transform="translate(979.879017, 227.000000)">
                <rect id="矩形" opacity="0" x="0" y="0" width="22" height="22"></rect>
                <path d="M19,1 C20.1045695,1 21,1.8954305 21,3 L21,11 L19,11 L19,4 C19,3.44771525 18.5522847,3 18,3 L4,3 C3.44771525,3 3,3.44771525 3,4 L3,18 C3,18.5522847 3.44771525,19 4,19 L9,19 L9,21 L3,21 C1.8954305,21 1,20.1045695 1,19 L1,3 C1,1.8954305 1.8954305,1 3,1 L19,1 Z" id="形状结合"></path>
                <path d="M4.92252148,5.38604688 L15.8506133,5.38604688 C16.1205777,5.36201354 16.392663,5.38395239 16.6552891,5.45092969 C16.8288384,5.52578189 16.9685336,5.66223208 17.0474434,5.83397461 C17.1225153,5.9753735 17.1522918,6.13643696 17.1327363,6.29533008 C17.0152598,7.00504492 16.5785898,7.03617578 15.7594121,7.03617578 L5.56681641,7.03617578 C5.27183805,7.06443428 4.97430543,7.04906538 4.68380859,6.99056445 C4.45354081,6.89837873 4.27488461,6.71041327 4.19450407,6.47576368 C4.11412353,6.24111409 4.14000155,5.98308428 4.26537891,5.76907031 C4.36228421,5.61215803 4.50992653,5.49309507 4.68380859,5.43163672 L4.92252148,5.38604688 Z M4.92252148,9.57627344 L8.64282031,9.57627344 C9.1379707,9.57627344 9.91583398,9.50116406 10.2318047,9.68678906 C10.5408923,9.87327791 10.6929814,10.2389513 10.6073086,10.589627 C10.4394082,11.3079355 9.81603906,11.2264238 8.94431055,11.2264238 L6.10111133,11.2264238 C5.61507031,11.2264238 4.84580078,11.3009746 4.53842383,11.1158867 C4.33593496,10.9785778 4.20018444,10.7627616 4.1640982,10.5207838 C4.12801197,10.278806 4.19488665,10.0327723 4.34850195,9.84235742 C4.45039114,9.73024084 4.58186111,9.64916497 4.72778711,9.60845703 L4.92252148,9.57627344 Z M12.8083828,12.4409355 C12.9429198,12.4312802 13.078079,12.4467399 13.2069609,12.4865254 C13.640169,12.6562424 13.853887,13.1449096 13.6844082,13.5782109 C13.5886662,13.7528483 13.4598501,13.9071824 13.3051445,14.0326055 L12.3829492,14.9552734 L16.7250059,14.9552734 C17.4980108,14.8952358 18.2754935,14.9323639 19.0392598,15.0657891 C19.8929193,15.3309758 20.6043643,15.9278006 21.0139531,16.7223418 C21.3695837,17.3796563 21.5134788,18.1307822 21.425959,18.8729922 C21.3695628,19.3420207 21.2300472,19.7972487 21.0139531,20.217334 C20.5609464,21.0786264 19.7534518,21.6983128 18.8042852,21.9130742 C18.2342454,21.9884939 17.6580716,22.0064662 17.0844395,21.9667207 L15.6671152,21.9667207 C15.4226281,21.9867408 15.1765903,21.9757466 14.9348633,21.934 C14.5460553,21.8193581 14.3063302,21.4299115 14.3791055,21.0311406 C14.5099883,20.2945918 15.019082,20.3230156 15.8763516,20.3230156 L18.2828809,20.3230156 C19.0875227,20.2222492 19.7118979,19.5721609 19.780127,18.7641094 C19.9588949,17.8340839 19.42251,16.9151426 18.5247949,16.613459 C18.2803064,16.575758 18.032423,16.5649586 17.785582,16.5812539 L12.3835078,16.5812539 L13.3056816,17.5034277 C13.4345169,17.6136705 13.5488006,17.7398591 13.6457793,17.8789531 C13.7487316,18.0765442 13.7679097,18.3072331 13.6989981,18.5191119 C13.6300864,18.7309906 13.4788737,18.9062615 13.2793848,19.0054863 C12.9862394,19.135232 12.6457377,19.0953667 12.3904902,18.901416 L10.5724395,17.0951816 L9.99683008,16.5238691 C9.86224631,16.4098382 9.74560302,16.2761891 9.65082422,16.127418 C9.6172255,16.0377476 9.59732965,15.9435266 9.59180664,15.8479277 C9.5607986,15.4929639 9.73295631,15.1509356 10.0365332,14.9643828 L11.5729238,13.444084 L12.1549785,12.8663262 C12.2509069,12.7551428 12.3588584,12.6549299 12.4768574,12.5675215 C12.5844486,12.5176069 12.6954083,12.4753006 12.8089199,12.4409141 L12.8083828,12.4409355 Z" id="形状"></path>
            </g>
        </g>
    </g>
</svg>