<?xml version="1.0" encoding="UTF-8"?>
<svg width="22px" height="22px" viewBox="0 0 22 22" version="1.1" xmlns="http://www.w3.org/2000/svg" xmlns:xlink="http://www.w3.org/1999/xlink">
    <title>9115C642-C1F0-42EF-AFFE-E53DF957C381@0.0x</title>
    <g id="页面-1" stroke="none" stroke-width="1" fill="none" fill-rule="evenodd">
        <g id="画板备份" transform="translate(-166.000000, -227.000000)">
            <g id="ic_wl_wlsq" transform="translate(166.000000, 227.000000)">
                <rect id="矩形" fill="#000000" fill-rule="nonzero" opacity="0" x="0" y="0" width="22" height="22"></rect>
                <path d="M15,1 C16.1045695,1 17,1.8954305 17,3 L17,6 L15,6 L15,4 C15,3.44771525 14.5522847,3 14,3 L4,3 C3.44771525,3 3,3.44771525 3,4 L3,18 C3,18.5522847 3.44771525,19 4,19 L7,19 L7,21 L3,21 C1.8954305,21 1,20.1045695 1,19 L1,3 C1,1.8954305 1.8954305,1 3,1 L15,1 Z" id="形状结合" fill="#184FAE"></path>
                <path d="M5.390625,5.53125 C4.91601367,5.53125 4.53125,5.91599219 4.53125,6.390625 C4.53125,6.86525781 4.91601367,7.25 5.390625,7.25 L10.859375,7.25 C11.3340078,7.25 11.71875,6.86525781 11.71875,6.390625 C11.71875,5.91599219 11.3340078,5.53125 10.859375,5.53125 L5.390625,5.53125 Z M9.3125,10.515625 C9.3125,10.0409922 8.92775781,9.65625 8.453125,9.65625 L5.390625,9.65625 C4.91601367,9.65625 4.53125,10.0409922 4.53125,10.515625 C4.53125,10.9902363 4.91601367,11.375 5.390625,11.375 L8.453125,11.375 C8.92775781,11.375 9.3125,10.9902363 9.3125,10.515625 Z" id="形状" fill="#1850AE" fill-rule="nonzero"></path>
                <g id="编组-6" transform="translate(8.974251, 8.160382)" fill="#184FAE">
                    <path d="M7.23782014,0 C7.79005158,0.00175719168 8.24074368,0.442811439 8.24074366,0.989296995 L8.24074366,3.62507938 C8.24074366,4.16980774 7.79183295,4.61437637 7.23782014,4.61437635 L6.65847122,4.61437635 L6.65847122,5.71086182 L9.16628424,5.71086182 C9.69357619,5.71086182 10.1300172,6.11501511 10.165645,6.63162846 L10.1692078,6.70015881 L10.1692078,8.70441968 L10.8006035,8.70441968 C11.352835,8.70441968 11.8035271,9.14547393 11.8035271,9.69195948 L11.8035271,12.3277419 C11.8035271,12.8741155 11.3545029,13.3171668 10.8006035,13.3171668 L8.12851598,13.3171668 C7.86237911,13.3175064 7.60700611,13.2134273 7.41881862,13.0277967 C7.23063114,12.8421661 7.1251185,12.5902628 7.12559247,12.3277419 L7.12559247,9.69195948 C7.12559247,9.14723112 7.57450318,8.70266249 8.12851598,8.70266249 L8.73107035,8.70266249 L8.73107035,7.16687996 L3.05803301,7.16687996 L3.05803301,8.70266249 L3.67503675,8.70266249 C4.22726818,8.70266249 4.67796029,9.14547393 4.67796026,9.69195948 L4.67796026,12.3277419 C4.67796025,12.8741155 4.22893611,13.3171668 3.67503675,13.3171668 L1.00294919,13.3171668 C0.736812314,13.3175064 0.48143931,13.2134273 0.293251819,13.0277967 C0.105064328,12.8421661 -0.000448317472,12.5902628 1.4319181e-06,12.3277419 L1.4319181e-06,9.69195948 C1.4319181e-06,9.14723112 0.448936362,8.70266249 1.00294919,8.70266249 L1.53122499,8.70266249 L1.53122499,6.70015881 C1.53122499,6.18003108 1.93738229,5.74951996 2.46289284,5.7143762 L2.53236713,5.71086182 L5.09733518,5.71086182 L5.09733518,4.61437635 L4.56573259,4.61437635 C4.29959571,4.61484388 4.04422272,4.51076482 3.85603523,4.3251342 C3.66784774,4.13950359 3.5623351,3.88760029 3.56280907,3.62507938 L3.56280907,0.989296995 C3.56280907,0.444568631 4.01171978,0 4.56573259,0 L7.23782014,0 Z M10.7036168,9.83385864 L8.22550269,9.83385864 L8.22550269,12.2783031 L10.7036168,12.2783031 L10.7036168,9.83385864 Z M3.57805004,9.83064445 L1.0999359,9.83064445 L1.0999359,12.2750889 L3.57805004,12.2750889 L3.57805004,9.83064445 Z M7.13574784,1.08584455 L4.6642421,1.08584455 L4.6642421,3.53028899 L7.13574784,3.53028899 L7.13574784,1.08584455 Z" id="形状结合"></path>
                </g>
            </g>
        </g>
    </g>
</svg>