<?xml version="1.0" encoding="UTF-8"?>
<svg width="22px" height="22px" viewBox="0 0 22 22" version="1.1" xmlns="http://www.w3.org/2000/svg" xmlns:xlink="http://www.w3.org/1999/xlink">
    <title>825A0249-1C27-4C1C-B4AC-F8C5221E6191@0.0x</title>
    <g id="页面-1" stroke="none" stroke-width="1" fill="none" fill-rule="evenodd">
        <g id="画板备份" transform="translate(-490.000000, -227.000000)" fill="#1850AE" fill-rule="nonzero">
            <g id="ic_wl_mdxq" transform="translate(490.000000, 227.000000)">
                <rect id="矩形" opacity="0" x="0" y="0" width="22" height="22"></rect>
                <path d="M17.9470371,14.6548359 L17.7515723,14.5797266 L17.9171523,14.4544727 C18.5661738,13.9654668 18.9383477,13.234332 18.9383477,12.4489062 C18.9383477,11.0416152 17.7453203,9.89727148 16.2775078,9.89727148 C14.8110703,9.89727148 13.617334,11.0416152 13.617334,12.4489062 C13.617334,13.2342891 13.9894863,13.9654668 14.6385508,14.4544727 L14.8047969,14.5797266 L14.6086445,14.6548359 C12.8799043,15.3178008 11.7626953,16.8955488 11.7626953,18.6750137 L11.7626953,19.3080937 C11.7668737,19.4934002 11.9203604,19.6403009 12.1056719,19.6364312 L20.4499453,19.6364312 C20.6392227,19.6364312 20.7929219,19.4888633 20.7929219,19.3080937 L20.7929219,18.6750137 C20.7929219,16.8955488 19.6757344,15.3178008 17.9470371,14.6548574 L17.9470371,14.6548359 Z M17.0712266,18.0989961 L16.2754023,18.8677715 L15.4795781,18.0989961 L16.0103711,15.5355449 L15.4795781,15.0228848 L17.0711836,15.0228848 L16.5404121,15.5355449 L17.0712266,18.0989961 L17.0712266,18.0989961 Z M4.02926562,9.82265625 L2.64794922,9.82265625 L2.64794922,15.6242539 C2.64794922,16.1215098 3.20050586,16.7293027 3.69776172,16.7293027 L10.6596016,16.7293027 L10.6596016,15.3479219 L4.02930859,15.3479219 L4.02930859,9.82265625 L4.02926562,9.82265625 Z M15.4665371,6.70091211 C15.4665371,7.9993418 16.5439785,9.0767832 17.897666,9.0767832 C19.2236816,9.0767832 20.328752,8.0269707 20.328752,6.70091211 L18.6158887,2.36356055 L2.64792773,2.36356055 L0.990365234,6.70091211 C0.990365234,7.9993418 2.06780664,9.0767832 3.39386523,9.0767832 C4.71992383,9.0767832 5.82495117,8.0269707 5.82495117,6.70091211 C5.82495117,7.9993418 6.90239258,9.0767832 8.22845117,9.0767832 C9.55450977,9.0767832 10.6595371,8.0269707 10.6595371,6.70091211 C10.6595371,7.9993418 11.7370215,9.0767832 13.0630801,9.0767832 C14.3891387,9.0767832 15.4665371,8.0269707 15.4665371,6.70091211 Z M1.39137109,18.8076367 C1.39137109,19.2773496 1.75052539,19.636418 2.22015234,19.636418 L10.6595371,19.636418 L10.6595371,17.978834 L2.22015234,17.978834 C1.75050391,17.978834 1.39137109,18.3380098 1.39137109,18.8076367 Z" id="形状"></path>
            </g>
        </g>
    </g>
</svg>