<?xml version="1.0" encoding="UTF-8"?>
<svg width="23px" height="22px" viewBox="0 0 23 22" version="1.1" xmlns="http://www.w3.org/2000/svg" xmlns:xlink="http://www.w3.org/1999/xlink">
    <title>8EC193EC-C10E-40F9-83C1-F9F413CEAF89@0.0x</title>
    <g id="页面-1" stroke="none" stroke-width="1" fill="none" fill-rule="evenodd">
        <g id="画板备份" transform="translate(-1143.000000, -227.000000)" fill="#1850AE" fill-rule="nonzero">
            <g id="ic_wl_widbd" transform="translate(1143.879017, 227.000000)">
                <rect id="矩形" opacity="0" x="0" y="0" width="22" height="22"></rect>
                <path d="M17.5388984,10.3277754 L17.6611016,10.3277754 L17.6611016,6.29444922 L0,6.29444922 L0,17.5388984 C0,17.9666523 0.366673828,18.3333262 0.794449219,18.3333262 L12.2222031,18.3333262 C11.9777754,17.6 11.7944492,16.8666738 11.7944492,16.0722246 C11.7944492,12.8944492 14.3611016,10.3277754 17.5388984,10.3277754 Z M17.4166738,11.3055508 C14.85,11.3055508 12.8333262,13.3833262 12.8333262,15.8888984 C12.8333262,18.3944707 14.85,20.4722246 17.4166738,20.4722246 C19.9222246,20.4722246 22,18.3944492 22,15.8888984 C22,13.3833477 19.9833262,11.3055508 17.4166738,11.3055508 Z M20.2888984,13.8722461 L20.2888984,15.0944707 C20.2888984,15.3389199 20.2277754,15.5833477 20.1055508,15.8277969 C19.9833262,16.011123 19.8,16.2555723 19.6166738,16.4389199 C19.4333262,16.6222461 19.1888984,16.7444707 18.9444277,16.8666738 C18.6388984,16.9889199 18.3944277,17.0500215 18.0888984,17.0500215 L16.8055508,17.0500215 C16.6833262,17.0500215 16.5611016,17.111123 16.5,17.111123 C16.4388984,17.1722461 16.3777754,17.2333691 16.3777754,17.2944707 L16.3777754,17.7833477 C16.3777754,17.9055938 16.3166738,17.9666953 16.2555508,18.0277969 C16.1944492,18.0889199 16.1333262,18.0277969 16.0111016,17.9666953 C15.888877,17.9055938 15.7666738,17.8444492 15.6444492,17.7222461 C15.5222031,17.661123 15.4,17.5389199 15.2166738,17.4166953 C15.0944277,17.3555723 14.9111016,17.2333477 14.7888984,17.111123 C14.6055508,16.9889199 14.4833262,16.8666953 14.3611016,16.8055723 C14.2388984,16.6833477 14.1777754,16.6222461 14.1777754,16.561123 C14.1777754,16.4389199 14.1777754,16.3777969 14.3,16.3166953 C14.4222246,16.2555723 14.5444492,16.1944492 14.6666738,16.0722461 C14.7888984,16.011123 14.9722246,15.8889199 15.0944277,15.7666953 C15.2166738,15.7055723 15.4,15.5833477 15.5222246,15.461123 C15.6444492,15.3389199 15.7666738,15.2166953 15.8888984,15.1555723 C16.0111016,15.0333477 16.1333262,15.0333477 16.1944492,15.0333477 C16.2555723,15.0333477 16.3166738,15.0944707 16.3166738,15.2166953 L16.3166738,15.8277969 C16.3166738,15.8889199 16.3166738,15.9500215 16.3777754,15.9500215 L18.0888984,15.9500215 C18.15,15.9500215 18.2722246,15.9500215 18.3944492,15.8889199 C18.5166738,15.8278184 18.6388984,15.7666738 18.7,15.7055723 C18.8222246,15.6444707 18.8833262,15.5833477 18.9444492,15.461123 C19.0055508,15.4000215 19.0055508,15.2777969 19.0055508,15.1555723 L19.0055508,13.6277754 C19.0055508,13.5055508 19.0666738,13.4444492 19.1277969,13.3833262 C19.1888984,13.3222246 19.25,13.3222246 19.3722246,13.2611016 C19.4333262,13.2 19.5555508,13.2 19.6777754,13.2 C19.8,13.2 19.8611016,13.2 19.9222246,13.0166738 C20.0444492,13.0166738 20.1055508,13.0777754 20.1666738,13.1388984 C20.2277969,13.2000215 20.2888984,13.3222246 20.2888984,13.3833262 L20.2888984,13.8722246 L20.2888984,13.8722461 Z M15.0944492,1.77224609 C14.9722031,1.58891992 14.7277754,1.46669531 14.4833262,1.46669531 L9.41110156,1.46669531 L9.41110156,5.07224609 L17.6,5.07224609 L15.0944492,1.77224609 L15.0944492,1.77224609 Z M8.18889844,1.46667383 L3.05555078,1.46667383 C2.81110156,1.46667383 2.56667383,1.58889844 2.44444922,1.77222461 L0,5.07222461 L8.18889844,5.07222461 L8.18889844,1.46667383 Z" id="形状"></path>
            </g>
        </g>
    </g>
</svg>