<?xml version="1.0" encoding="UTF-8"?>
<svg width="22px" height="22px" viewBox="0 0 22 22" version="1.1" xmlns="http://www.w3.org/2000/svg" xmlns:xlink="http://www.w3.org/1999/xlink">
    <title>40AC1900-4B43-43C4-B07E-B9AD08C8A150@0.0x</title>
    <g id="页面-1" stroke="none" stroke-width="1" fill="none" fill-rule="evenodd">
        <g id="画板备份" transform="translate(-654.000000, -227.000000)" fill="#1850AE" fill-rule="nonzero">
            <g id="ic_wl_cgxd" transform="translate(654.000000, 227.000000)">
                <rect id="矩形" opacity="0" x="0" y="0" width="21.2930057" height="21.2930057"></rect>
                <path d="M18.6815974,0.40173913 L2.61140832,0.40173913 C1.38606238,0.40173913 0.40173913,1.38608318 0.40173913,2.61142911 L0.40173913,18.6816181 C0.40173913,19.9069641 1.38604159,20.8912665 2.61138752,20.8912665 L11.6910454,20.8912665 C11.8919149,15.989862 15.9295595,12.052673 20.8711588,12.032586 L20.8711588,2.61140832 C20.891225,1.38606238 19.9069433,0.40173913 18.6815766,0.40173913 L18.6815974,0.40173913 Z M5.2428828,7.69359546 L2.73195085,7.69359546 L2.73195085,6.66913989 L5.96607561,6.66913989 L5.96607561,6.0262949 L6.34774858,6.0262949 C6.12679206,5.64464272 5.88572779,5.22279584 5.58440265,4.780862 L6.2473138,4.41927599 L3.19397164,4.51971078 C3.11362382,4.19831947 3.03327599,3.83673346 2.93284121,3.47516824 C5.80537996,3.43497353 8.09537618,3.35462571 9.80282987,3.23410397 L10.1644367,4.25858034 L6.52853119,4.41927599 C6.84994329,4.88131758 7.11107372,5.26296975 7.31196408,5.58436106 L6.46827032,6.0262949 L7.11107372,6.0262949 L7.11107372,6.66911909 L10.3853932,6.66911909 L10.3853932,7.69357467 L7.77396408,7.69357467 C8.53728922,8.47700756 9.48141777,9.09972401 10.6063081,9.52157089 C10.3652647,9.78270132 10.1242212,10.1041134 9.88317769,10.4656994 C8.69798488,9.84296219 7.77396408,9.0997448 7.09096597,8.23596408 L7.09096597,10.8875255 L5.96605482,10.8875255 L5.96605482,8.25605104 C5.2830775,9.11983176 4.37912287,9.8831569 3.23414556,10.5259603 C3.0332552,10.2045482 2.79219093,9.8831569 2.53106049,9.5617448 C3.59571078,9.11981096 4.49964461,8.49709452 5.24290359,7.69357467 L5.2428828,7.69359546 Z M3.13371078,5.20272968 L3.91712287,4.62018715 C4.29879584,5.02192628 4.66038185,5.4236862 5.02194707,5.86562004 L4.15816635,6.48833648 C3.856862,6.0664896 3.49529679,5.64466352 3.13371078,5.20272968 L3.13371078,5.20272968 Z M9.84300378,5.00186011 C9.46135161,5.48394707 9.01941777,5.96607561 8.53731002,6.44816257 L7.77396408,5.82544612 C8.21589792,5.36342533 8.61765784,4.90140454 8.9591569,4.43938374 L9.84300378,5.00186011 L9.84300378,5.00186011 Z M13.8203667,10.666569 C13.4989546,10.2045482 13.1173025,9.7023535 12.6753686,9.18007183 C12.3941304,9.84298299 11.9321096,10.4054386 11.2893062,10.9076333 C11.1486975,10.666569 10.947828,10.4054386 10.7268507,10.0840265 C11.7312401,9.44122306 12.2334348,8.55735539 12.2334348,7.41235728 L12.2334348,4.6402741 L13.0168469,4.6402741 L13.0168469,7.43246503 C13.0168469,7.71368242 12.9967599,7.97483365 12.956586,8.21587713 C13.3784329,8.65781096 13.9208015,9.2403535 14.5636049,9.96352552 L13.8203667,10.6665898 L13.8203667,10.666569 Z M18.4204669,7.19140076 L18.40038,9.32070132 C18.40038,9.76261437 18.2999452,10.0840265 18.1392287,10.3250699 C17.9785123,10.5661134 17.7575558,10.6866767 17.5165123,10.7469168 C17.275448,10.7870907 16.6527316,10.8071777 15.7086238,10.8272647 C15.6483422,10.5058733 15.5679943,10.1442873 15.4675595,9.76261437 C16.2309055,9.78270132 16.6929055,9.80278828 16.8536219,9.80278828 C17.2553611,9.80278828 17.4361645,9.58183176 17.4361645,9.13989792 L17.4361645,8.97920227 L16.8536219,9.20015879 L16.7129924,8.77831191 C15.5479074,8.87874669 14.8247561,8.95911531 14.5636049,9.05955009 L14.2422136,8.39663894 L13.4186068,8.39663894 L13.4186068,4.3188828 L11.8919357,4.3188828 L11.8919357,8.39670132 L11.0482628,8.39670132 L11.0482628,3.39482042 L14.2221267,3.39482042 L14.2221267,5.14246881 C14.5636049,4.51973157 14.8448431,3.83675425 15.0457127,3.0332552 L16.0300151,3.19395085 C15.9295803,3.51536295 15.8492325,3.83675425 15.7287108,4.11799244 L18.4405539,4.11799244 L18.4204669,7.19142155 L18.4204669,7.19140076 Z" id="形状"></path>
                <path d="M14.6238658,6.36781474 C14.4832571,6.20711909 14.3426484,6.0665104 14.2221267,5.94596786 L14.2221267,8.01500756 C14.5636049,7.73379017 14.9653648,6.91018336 15.4273856,5.54420794 L16.3514272,5.84553308 C15.9697543,6.7093138 15.6483422,7.41235728 15.3872117,7.95474669 L16.4116881,7.87439887 C16.2710794,7.47263894 16.1505369,7.11105293 16.0300151,6.76957467 L16.833535,6.46827032 C17.0344045,6.95035728 17.2352741,7.4927259 17.4361437,8.07526843 L17.4361437,5.1022949 L15.3269716,5.1022949 C15.1059943,5.58438185 14.8850378,6.00622873 14.6238866,6.36781474 L14.6238658,6.36781474 Z M19.7864216,20.2082684 L16.2710794,20.2082684 C16.2710794,20.4894858 16.0501021,20.7104423 15.7688847,20.7104423 C15.4876673,20.7104423 15.26669,20.4894858 15.26669,20.2082684 L14.7644953,20.2082684 C14.4832571,20.2082684 14.2623006,19.9873119 14.2623006,19.7060737 C14.2623006,19.4248355 14.4832571,19.2038998 14.7644745,19.2038998 L15.26669,19.2038998 C15.26669,18.9226616 15.4876465,18.7016843 15.7688639,18.7016843 C16.0500813,18.7016843 16.2710794,18.9226616 16.2710794,19.203879 L19.7864216,19.203879 C20.0676597,19.203879 20.2886163,19.4248355 20.2886163,19.7060737 C20.2886163,19.9873119 20.0676597,20.2082684 19.7864423,20.2082684 L19.7864216,20.2082684 Z M19.7864216,18.1994896 L19.2842476,18.1994896 C19.2842476,18.4807278 19.0632703,18.7016843 18.7820321,18.7016843 C18.500794,18.7016843 18.2798582,18.4807278 18.2798582,18.1995104 L14.7443875,18.1995104 C14.4631493,18.1995104 14.2421928,17.9785331 14.2421928,17.6972949 C14.2421928,17.4160567 14.4631493,17.195121 14.7443667,17.195121 L18.2798166,17.195121 C18.2798166,16.9138828 18.500794,16.6929055 18.7820113,16.6929055 C19.0632287,16.6929055 19.284206,16.9138828 19.284206,17.1951002 L19.7864008,17.1951002 C20.0676389,17.1951002 20.2885955,17.4160775 20.2885955,17.6972949 C20.2885955,17.9785123 20.0676389,18.1994896 19.7864216,18.1994896 L19.7864216,18.1994896 Z M19.7864216,16.1907108 L16.2710794,16.1907108 C16.2710794,16.471949 16.0501021,16.6929055 15.7688847,16.6929055 C15.4876673,16.6929055 15.26669,16.471949 15.26669,16.1907316 L14.7644953,16.1907316 C14.4832571,16.1907316 14.2623006,15.9697543 14.2623006,15.6885161 C14.2623006,15.4072779 14.4832571,15.1863422 14.7644745,15.1863422 L15.26669,15.1863422 C15.26669,14.905104 15.4876465,14.6841474 15.7688639,14.6841474 C16.0500813,14.6841474 16.2710794,14.905104 16.2710794,15.1863214 L19.7864216,15.1863214 C20.0676597,15.1863214 20.2886163,15.4072987 20.2886163,15.6885161 C20.2886163,15.9697335 20.0676597,16.1907108 19.7864423,16.1907108 L19.7864216,16.1907108 Z" id="形状"></path>
            </g>
        </g>
    </g>
</svg>