<?xml version="1.0" encoding="UTF-8"?>
<svg width="23px" height="22px" viewBox="0 0 23 22" version="1.1" xmlns="http://www.w3.org/2000/svg" xmlns:xlink="http://www.w3.org/1999/xlink">
    <title>CFF5F066-EC9E-4580-B66C-47129DAFEF9A@0.0x</title>
    <g id="页面-1" stroke="none" stroke-width="1" fill="none" fill-rule="evenodd">
        <g id="画板备份" transform="translate(-1061.000000, -227.000000)" fill="#1850AE" fill-rule="nonzero">
            <g id="ic_wl_ck" transform="translate(1061.879017, 227.000000)">
                <rect id="矩形" opacity="0" x="0" y="0" width="22" height="22"></rect>
                <path d="M15.4391016,21.5196738 C15.0754186,21.5193672 14.7395173,21.3250873 14.5578984,21.01 C14.3745508,20.6958984 14.3745508,20.471 14.5578984,20.1556738 C14.7398284,19.8410579 15.0756711,19.6472786 15.4391016,19.6472246 L18.6633262,19.6472246 L18.5985508,9.00655078 L11,4.49655078 L3.07510156,9.00777539 L3.07510156,11.5011016 C3.07510156,12.0633477 2.70844922,12.4727754 2.14622461,12.4727754 C1.58277539,12.4727754 1.22344922,12.0645723 1.22344922,11.5023262 L1.22344922,8.44679688 C1.22344922,8.09602148 1.40310156,7.7684707 1.70132617,7.5814707 L10.4597754,2.57034766 C10.7902202,2.36348312 11.2097798,2.36348312 11.5402246,2.57034766 L19.9882031,7.58144922 C20.2864063,7.76844922 20.4685293,8.09477539 20.4673047,8.448 L20.5320801,20.5027754 C20.5320801,21.065 20.0761816,21.5208984 19.5127539,21.5208984 L15.4391016,21.5208984 L15.4391016,21.5196738 Z" id="路径" transform="translate(10.877765, 11.968049) scale(-1, 1) translate(-10.877765, -11.968049) "></path>
                <path d="M16.8712988,16.7908984 L13.8768496,13.7964492 C13.6203255,13.5181166 13.2370901,13.3939258 12.8660742,13.4688984 C12.5580742,13.5507754 12.4150742,13.7976738 12.3331758,14.0751016 C12.2512988,14.3525508 12.4150742,14.8512246 12.7059512,15.1017754 L14.3131973,16.6148984 L10.5059512,16.6148984 C10.1429512,16.6148984 9.805625,16.7407969 9.62472656,17.0548984 C9.4423885,17.3702112 9.4423885,17.7589118 9.62472656,18.0742246 C9.805625,18.3895508 10.1429512,18.4897754 10.5059512,18.4897754 L14.3131973,18.4897754 L12.7059512,20.0505508 C12.4480742,20.3072246 12.236625,20.7655508 12.3331973,21.0772246 C12.4309512,21.3876738 12.621625,21.5294492 12.8917266,21.6027754 C13.1618496,21.6773262 13.6189727,21.6003262 13.8768496,21.3436738 L16.9324004,18.2881016 C17.1592593,18.0606424 17.2652963,17.7393611 17.2184004,17.4215508 C17.1835746,17.1760067 17.0601137,16.9516892 16.8712988,16.7908984 L16.8712988,16.7908984 Z" id="路径"></path>
                <path d="M21.3837266,16.7908984 L18.3892988,13.7964492 C18.132525,13.5176989 17.7487085,13.3934702 17.3772988,13.4688984 C17.0692988,13.5507754 16.9275234,13.7976738 16.845625,14.0751016 C16.7637266,14.3525508 16.9275234,14.8512246 17.2184004,15.1017754 L18.8244004,16.6148984 L18.8794004,16.6662246 C19.1194063,16.8946844 19.2563671,17.2108012 19.2589027,17.5421474 C19.2614382,17.8734936 19.1293312,18.1916694 18.8928496,18.4237754 L18.8244004,18.491 L17.2184004,20.0505508 C16.9592988,20.3072246 16.7478496,20.7655508 16.845625,21.0772246 C16.9434004,21.3876738 17.1340742,21.5294492 17.4041758,21.6027754 C17.6730742,21.6773262 18.1314219,21.6003262 18.3892988,21.3436738 L21.4448496,18.2881016 C21.671264,18.0604126 21.7768369,17.7391618 21.729625,17.4215508 C21.6951139,17.1761778 21.5720942,16.9518846 21.3837266,16.7908984 L21.3837266,16.7908984 Z" id="路径"></path>
            </g>
        </g>
    </g>
</svg>