<?xml version="1.0" encoding="UTF-8"?>
<svg width="23px" height="22px" viewBox="0 0 23 22" version="1.1" xmlns="http://www.w3.org/2000/svg" xmlns:xlink="http://www.w3.org/1999/xlink">
    <title>107E5AAA-4FA7-420E-B754-9A421E8CD5AF@0.0x</title>
    <g id="页面-1" stroke="none" stroke-width="1" fill="none" fill-rule="evenodd">
        <g id="画板备份" transform="translate(-1307.000000, -227.000000)" fill="#1850AE" fill-rule="nonzero">
            <g id="ic_wl_lscg" transform="translate(1307.879017, 227.000000)">
                <rect id="矩形" opacity="0" x="0" y="0" width="22" height="22"></rect>
                <path d="M6.89065553,16.5890442 C7.156456,16.5890442 7.40614734,16.6373715 7.63972957,16.7340262 C7.87733907,16.830681 8.08273034,16.9676085 8.26395793,17.1407815 C8.44518552,17.3139545 8.58211303,17.5193458 8.67876774,17.7569553 C8.77542246,17.9945648 8.82374982,18.2442562 8.82374982,18.5060293 C8.82374982,18.7678025 8.77542246,19.0174939 8.67876774,19.2551034 C8.58211303,19.4927129 8.44115824,19.6981041 8.26395793,19.8712772 C8.08273034,20.0444502 7.87733907,20.1813777 7.63972957,20.286087 C7.40212006,20.3907963 7.15242872,20.4431509 6.89065553,20.4431509 C6.61277323,20.4431509 6.3590546,20.3907963 6.12949966,20.286087 C5.89994471,20.1813777 5.69455344,20.0444502 5.51332585,19.8712772 C5.33209826,19.6981041 5.19517075,19.4927129 5.09851604,19.2551034 C5.00186132,19.0174939 4.95353397,18.7678025 4.95353397,18.5060293 C4.95353397,18.2442562 5.00186132,17.9905375 5.09851604,17.7569553 C5.19517075,17.5193458 5.33612554,17.3179818 5.51332585,17.1407815 C5.69455344,16.9676085 5.89994471,16.830681 6.12949966,16.7340262 C6.3590546,16.6373715 6.61277323,16.5890442 6.89065553,16.5890442 Z M15.5492869,16.629317 C15.8150873,16.629317 16.0647787,16.6776443 16.3104428,16.774299 C16.5520795,16.8709538 16.7614981,17.0078813 16.9346711,17.1810543 C17.1078441,17.3542273 17.2487989,17.5596186 17.3494809,17.7972281 C17.4541902,18.0348376 17.5065448,18.2845289 17.5065448,18.5463021 C17.5065448,18.8080753 17.4541902,19.0577667 17.3494809,19.2953762 C17.2447717,19.5329857 17.1078441,19.7383769 16.9346711,19.9075227 C16.7614981,20.0806957 16.5520795,20.2176232 16.3104428,20.3223325 C16.068806,20.4270418 15.8150873,20.4793964 15.5492869,20.4793964 C15.2834864,20.4793964 15.0337951,20.4270418 14.8002128,20.3223325 C14.5626033,20.2176232 14.3612393,20.0806957 14.184039,19.9075227 C14.010866,19.7343497 13.8699112,19.5289584 13.7692292,19.2953762 C13.6645199,19.0617939 13.6121653,18.8121026 13.6121653,18.5463021 C13.6121653,18.2805017 13.6645199,18.0308103 13.7692292,17.7972281 C13.8739385,17.5636459 14.010866,17.3582546 14.184039,17.1810543 C14.3572121,17.0078813 14.5626033,16.8709538 14.8002128,16.774299 C15.0378223,16.6776443 15.2875137,16.629317 15.5492869,16.629317 Z M3.14530549,1.74453125 C3.4231878,1.74453125 3.64468818,1.78480405 3.80980665,1.86937692 C3.97492512,1.9539498 4.10782535,2.05865907 4.20448007,2.18350474 C4.30113478,2.30835042 4.36959854,2.44125065 4.41389862,2.57817816 C4.45417141,2.71913295 4.49041693,2.83592406 4.51860789,2.93257878 C4.54679885,3.04534261 4.57498981,3.19837924 4.60318076,3.39974323 C4.63137172,3.60110722 4.65956268,3.80649849 4.68775364,4.01188975 C4.72802644,4.2615811 4.77232651,4.52738156 4.81259931,4.80526387 L19.048993,4.80526387 C19.4356118,4.80524373 19.7376578,4.85759837 19.9551309,4.96230764 C20.1685768,5.06701691 20.3216134,5.19588987 20.4142408,5.3489265 C20.5068683,5.50196313 20.5471411,5.66305432 20.5390865,5.83622735 C20.5310319,6.00940038 20.5068683,6.15840973 20.4665955,6.2832554 C20.4263227,6.40810107 20.3377225,6.66584698 20.2048223,7.05246584 C20.071922,7.43908469 19.9229127,7.86597635 19.7577942,8.3331408 C19.5926758,8.80030525 19.4275573,9.25941514 19.2704934,9.71852504 C19.1094022,10.1776349 18.9885838,10.5360628 18.9080382,10.8018633 C18.7268106,11.3576279 18.4972557,11.7402195 18.2193734,11.9576926 C17.9414911,12.1711384 17.6031996,12.279875 17.2004716,12.279875 L6.26642717,12.279875 L6.58055499,14.1525601 L17.0715986,14.1525601 C17.7360998,14.1525601 18.070364,14.4384969 18.070364,15.0063434 C18.070364,15.2842257 18.0059275,15.5218352 17.8730273,15.7231992 C17.7401271,15.9245631 17.4823812,16.0252451 17.091735,16.0252451 L6.18185429,16.0252451 C5.90397199,16.0252451 5.67038976,15.9648359 5.4851349,15.8399903 C5.29585275,15.7151446 5.14281612,15.5540534 5.01797044,15.3526894 C4.89312477,15.1513254 4.79244278,14.9338523 4.71592446,14.6962428 C4.63940615,14.4586333 4.57899695,14.2371329 4.53872415,14.0317417 C4.52664231,13.9471688 4.48636952,13.7458048 4.42596032,13.4276497 C4.36152384,13.1094946 4.28500553,12.7107939 4.19640537,12.2315476 C4.10780522,11.7523013 4.00712322,11.2166731 3.89435939,10.6286903 C3.78159556,10.0407074 3.672859,9.44467001 3.56009517,8.84863261 C3.29429471,7.44713925 2.996276,5.88455471 2.66603906,4.16492639 L1.10347465,4.16492639 C0.894056107,4.16492639 0.720883077,4.11257175 0.583955565,4.00786247 C0.443000774,3.89912592 0.33023694,3.77428025 0.237609506,3.62929818 C0.144982071,3.48431611 0.0845728749,3.3272522 0.0523546369,3.16213373 C0.016109119,2.99298798 0,2.84397862 0,2.70302383 C0,2.42514153 0.0926274345,2.19558658 0.281909583,2.01435899 C0.471191732,1.8331314 0.720883077,1.74453125 1.04306546,1.74453125 L3.14530549,1.74453125 Z M17.9560339,6.42568984 L5.17167427,6.42568984 L5.86594626,10.5348213 L16.4775641,10.5348213 C16.9145706,10.5348213 17.3009621,10.2510548 17.4317377,9.83407478 L18.3377033,6.94539122 C18.3498529,6.90665224 18.3560339,6.86628935 18.3560339,6.82568984 C18.3560339,6.60477594 18.1769478,6.42568984 17.9560339,6.42568984 Z" id="形状"></path>
            </g>
        </g>
    </g>
</svg>