<?xml version="1.0" encoding="UTF-8"?>
<svg width="23px" height="22px" viewBox="0 0 23 22" version="1.1" xmlns="http://www.w3.org/2000/svg" xmlns:xlink="http://www.w3.org/1999/xlink">
    <title>1B50EC96-EA9F-4D71-91CF-2112488A735A@0.0x</title>
    <g id="页面-1" stroke="none" stroke-width="1" fill="none" fill-rule="evenodd">
        <g id="画板备份" transform="translate(-897.000000, -227.000000)" fill="#1850AE" fill-rule="nonzero">
            <g id="ic_wl_wlly" transform="translate(897.879017, 227.000000)">
                <rect id="矩形" opacity="0" x="0" y="0" width="22" height="22"></rect>
                <path d="M9.51132663,12.2324748 C9.54453215,12.4758457 9.70505218,12.6830148 9.93242038,12.7759435 C10.1597886,12.8688722 10.4194623,12.8334423 10.613625,12.683 C13.6901553,10.2301881 15.56241,6.57209045 15.7526875,2.6420625 L16.9104375,3.799125 C17.180198,4.05966839 17.6089958,4.05594226 17.8741878,3.79075027 C18.1393798,3.52555828 18.1431059,3.09676048 17.8825625,2.827 L15.5925,0.5383125 C15.3241103,0.270382789 14.8894522,0.270382789 14.6210625,0.5383125 C14.6100625,0.548625 14.606625,0.5630625 14.597,0.5740625 L12.335125,2.836625 C12.1521576,3.0082006 12.0771526,3.2658049 12.1394169,3.5087831 C12.2016813,3.7517613 12.391332,3.94154626 12.6342661,4.0039825 C12.8772002,4.06641874 13.1348575,3.99159597 13.3065625,3.80875 L14.3625625,2.7534375 C14.1478457,6.21690134 12.479893,9.42845933 9.7700625,11.5960625 C9.57727482,11.7465048 9.47812111,11.9891038 9.51132663,12.2324748 Z" id="路径" stroke="#1850AE" stroke-width="0.5"></path>
                <path d="M17.3017835,19.000912 L6.02013168,19.000912 C4.36327743,19.000912 3.02013168,17.6577662 3.02013168,16.000912 L3.02013168,11.7150054 C3.02013168,11.3263606 3.33519056,11.0113017 3.72383538,11.0113017 L3.72383538,11.0113017 L3.72383538,11.0113017 L3.72383538,9 L2,9 C1.44771525,9 1,9.44771525 1,10 L1,17 C1,19.209139 2.790861,21 5,21 L18,21 C19.1045695,21 20,20.1045695 20,19 L20,18.3020935 L20,18.3020935 L18.000602,18.3020935 C18.000602,18.6880403 17.6877303,19.000912 17.3017835,19.000912 Z" id="路径"></path>
                <path d="M17.6702559,5 C17.5949332,5.44805936 17.5006726,6.58102611 17.3877156,7.02147552 L17.9996226,7.02147552 C18.5519074,7.02147552 18.9996226,7.46919077 18.9996226,8.02147552 L18.9996226,13.9947496 C18.9996226,14.5470343 18.5519074,14.9947496 17.9996226,14.9947496 L7.99375115,14.9947496 C7.4414664,14.9947496 6.99375115,14.5470343 6.99375115,13.9947496 L6.99375115,8.02147552 C6.99375115,7.46919077 7.4414664,7.02147552 7.99375115,7.02147552 L11.4308626,7.02147552 L11.4308626,7.02147552 C11.5898736,6.58512911 11.7220522,5.45174909 11.8266919,5 L7,5 C5.8954305,5 5,5.8954305 5,7 L5,15 C5,16.1045695 5.8954305,17 7,17 L19,17 C20.1045695,17 21,16.1045695 21,15 L21,7 C21,5.8954305 20.1045695,5 19,5 L17.6702559,5 L17.6702559,5 Z" id="路径"></path>
            </g>
        </g>
    </g>
</svg>