<?xml version="1.0" encoding="UTF-8"?>
<svg width="23px" height="22px" viewBox="0 0 23 22" version="1.1" xmlns="http://www.w3.org/2000/svg" xmlns:xlink="http://www.w3.org/1999/xlink">
    <title>423D1AC8-E61D-4025-A94F-20E45B90DA7F@0.0x</title>
    <g id="页面-1" stroke="none" stroke-width="1" fill="none" fill-rule="evenodd">
        <g id="画板备份" transform="translate(-1225.000000, -227.000000)" fill="#1850AE" fill-rule="nonzero">
            <g id="ic_wl_dz" transform="translate(1225.879017, 227.000000)">
                <rect id="矩形" opacity="0" x="0" y="5.68434189e-14" width="22" height="22"></rect>
                <path d="M19,0 L6.00265239,0 C4.89808289,-2.08296978e-13 4.00265239,0.8954305 4.00265239,2 L4.00265239,4.01968751 L4.00265239,4.01968751 L3,4.01968751 C1.8954305,4.01968751 1,4.91511801 1,6.01968751 L1,20 C1,21.1045695 1.8954305,22 3,22 L15.0059406,22 C16.1105101,22 17.0059406,21.1045695 17.0059406,20 L17.0059406,18.7 L17.0059406,18.7 L19,18.7 C20.1045695,18.7 21,17.8045695 21,16.7 L21,2 C21,0.8954305 20.1045695,2.41183085e-16 19,0 Z M4,6 L14,6 C14.5522847,6 15,6.44771525 15,7 L15,19 C15,19.5522847 14.5522847,20 14,20 L4,20 C3.44771525,20 3,19.5522847 3,19 L3,7 C3,6.44771525 3.44771525,6 4,6 Z M10.5120835,8.43887839 C10.691576,8.12798819 11.0891098,8.02146935 11.4,8.20096191 C11.7108902,8.38045444 11.8174091,8.77798819 11.6379165,9.08887839 L10.648,10.802 L12.3759984,10.8029626 C12.7233841,10.8031036 13.0049212,11.0847549 13.0049212,11.4321407 C13.0049212,11.7799194 12.7237796,12.0622659 12.3760041,12.0637532 L9.7150918,12.0751328 L9.7150918,13.1129785 L11.8844655,13.1129785 C12.23181,13.1129785 12.5133883,13.3945569 12.5133883,13.7419014 C12.5133883,14.0892459 12.23181,14.3708242 11.8844655,14.3708242 L9.7150918,14.3708242 L9.7150918,17.3137727 C9.7150918,17.6968109 9.40457797,18.0073247 9.02153974,18.0073247 C8.63850151,18.0073247 8.32798767,17.6968109 8.32798767,17.3137727 L8.32798767,14.3708242 L6.11723562,14.3708242 C5.76989112,14.3708242 5.48831277,14.0892459 5.48831277,13.7419014 C5.48831277,13.3945569 5.76989112,13.1129785 6.11723562,13.1129785 L8.32798767,13.1129785 L8.32798767,12.0597285 L5.63829813,12.0597285 C5.29095363,12.0597285 5.00937528,11.7781502 5.00937528,11.4308057 C5.00937528,11.0834612 5.29095363,10.8018828 5.63829813,10.8018828 L7.651,10.801 L6.66208348,9.08887839 C6.48259094,8.77798819 6.58910979,8.38045444 6.89999998,8.20096191 C7.21089021,8.02146935 7.60842396,8.12798819 7.7879165,8.43887839 L9.149,10.799 Z M18.0008772,2 C18.5531619,2 19.0008772,2.44771525 19.0008772,3 L19.0008772,16 C19.0008772,16.5522847 18.5531619,17 18.0008772,17 L16.9948924,17 L16.9948924,6.00273999 C16.9948924,4.89817049 16.0994619,4.00273999 14.9948924,4.00273999 L6,4.00273999 L6,3 C6,2.44771525 6.44771525,2 7,2 L18.0008772,2 Z" id="形状"></path>
            </g>
        </g>
    </g>
</svg>