<?xml version="1.0" encoding="UTF-8"?>
<svg width="18px" height="18px" viewBox="0 0 18 18" version="1.1" xmlns="http://www.w3.org/2000/svg" xmlns:xlink="http://www.w3.org/1999/xlink">
    <title>B89BEEE5-B10E-4977-AF71-63A7E1E0E869@0.0x</title>
    <g id="页面-1" stroke="none" stroke-width="1" fill="none" fill-rule="evenodd">
        <g id="画板备份" transform="translate(-330.000000, -227.000000)" fill-rule="nonzero">
            <g id="ic_wl_gekc" transform="translate(330.000000, 227.000000)">
                <rect id="矩形" fill="#000000" opacity="0" x="0" y="0" width="18" height="18"></rect>
                <path d="M9.82412611,0 C10.6595628,0 11.4607839,0.331867878 12.0515269,0.922610859 C12.6422698,1.51335384 12.9741433,2.31457487 12.9741377,3.1500116 L12.9741377,4.00051094 C13.3167714,4.41888652 13.4786968,4.95648225 13.4241303,5.49449571 C13.4018465,5.97261858 13.2159717,6.42857048 12.8976307,6.78600173 C12.8299694,7.21133603 12.7149454,7.62539003 12.5560838,8.02094085 C10.0017734,8.24496571 8,10.3887132 8,13 C8,15.5260317 9.87319661,17.6145548 12.3062841,17.9522638 L12.3320274,18 L2.56113179,18 C1.60706571,18 0.831562199,17.2305316 0.824061601,16.2764943 L0.824061601,15.0119883 C0.822531887,14.5435933 0.930397481,14.0813019 1.13913993,13.6619893 C1.60122474,12.7334866 2.5500035,12.1474745 3.58713099,12.1499905 L5.16662975,12.1499905 C5.99743886,12.1475144 6.66963471,11.4733185 6.66964264,10.6425057 L6.66964264,10.0755062 L6.41314284,9.79200641 C5.63598084,8.95826141 5.12520031,7.91163392 4.94613696,6.78600173 C4.62942646,6.42794591 4.44516423,5.9720594 4.42413033,5.49449571 C4.36956969,4.95647936 4.5315028,4.4188833 4.87414404,4.00051094 L4.87414404,3.1500116 C4.87413845,2.31457852 5.20600903,1.51336069 5.79674745,0.922618317 C6.38748586,0.331875943 7.18870147,0 8.02413455,0 L9.82412611,0 Z M12.9999821,9 C15.2091177,9 17,10.7908377 17,12.9999732 C17,14.0608438 16.5785829,15.0782663 15.8284366,15.8284177 C15.0782903,16.578569 14.0608706,17 13,17 C10.7908645,17 9,15.2091444 9,13 C9,10.7908734 10.7908466,9 12.9999821,9 Z M14.4575227,12.2709906 L14.3314999,12.3046016 L12.794047,12.3046016 L12.794047,12.8506934 L13.7896082,12.8506934 C13.6929963,12.9389051 13.5921739,13.0229273 13.495562,13.0859387 L13.495562,13.3463739 L12.4831901,13.3463739 L12.4831901,13.9134764 L13.495562,13.9134764 L13.495562,14.2873343 C13.495562,14.3377455 13.4745617,14.3503457 13.4072771,14.354483 L13.1827467,14.3525364 L12.9242699,14.3419455 C12.9956814,14.5099689 13.0670929,14.7536144 13.0880932,14.9258483 C13.4115503,14.9300484 13.6677855,14.9216378 13.8652198,14.8376261 C14.0668541,14.7494143 14.1130653,14.5939911 14.1130653,14.3041345 L14.1130653,13.9134764 L15.0372149,13.9134764 L15.0372149,13.3463739 L14.1130653,13.3463739 L14.1130653,13.2329618 C14.377711,13.035517 14.6339567,12.8002822 14.8397806,12.5860476 L14.4575227,12.2709906 Z M12.4958008,10.9267096 C12.4496001,11.1073332 12.3949888,11.2921778 12.3235668,11.4770015 L11.2019829,11.4770015 L11.2019829,12.0608938 L12.0547106,12.0608938 C11.8026755,12.5229738 11.4624181,12.9346427 11.033949,13.203499 C11.1263609,13.3547117 11.2565942,13.6277575 11.3195951,13.7957914 C11.4372178,13.7201798 11.5464298,13.6361577 11.6514523,13.5479459 L11.6514523,14.9174485 L12.2689556,14.9174485 L12.2689556,12.8759149 C12.4537897,12.6238694 12.613413,12.3466234 12.7520359,12.0609774 L14.9868142,12.0609774 L14.9868142,11.4770746 L12.9956814,11.4770746 C13.0460926,11.3426517 13.0880932,11.2124288 13.1300938,11.0780059 L12.4958008,10.9267096 Z" id="形状" fill="#184FAE"></path>
            </g>
        </g>
    </g>
</svg>