<?xml version="1.0" encoding="UTF-8"?>
<svg width="22px" height="22px" viewBox="0 0 22 22" version="1.1" xmlns="http://www.w3.org/2000/svg" xmlns:xlink="http://www.w3.org/1999/xlink">
    <title>3F8BFB56-BDBD-4257-990E-38B6E0C83231@0.0x</title>
    <g id="页面-1" stroke="none" stroke-width="1" fill="none" fill-rule="evenodd">
        <g id="画板备份" transform="translate(-412.000000, -317.000000)" fill-rule="nonzero">
            <g id="ic_yw_project" transform="translate(412.000000, 317.000000)">
                <rect id="矩形" fill-opacity="0" fill="#D2D2D2" opacity="0" x="0" y="0" width="22" height="22"></rect>
                <path d="M3.80229593,19.7887755 C3.80214796,20.4835565 5.15473586,21.125578 7.3505182,21.4729802 C9.54630054,21.8203824 12.2516587,21.8203824 14.447441,21.4729802 C16.6432233,21.125578 17.9958112,20.4835565 17.9956633,19.7887755 C17.9958112,19.0939945 16.6432233,18.451973 14.447441,18.1045708 C12.2516587,17.7571686 9.54630054,17.7571686 7.3505182,18.1045708 C5.15473586,18.451973 3.80214796,19.0939945 3.80229593,19.7887755 Z" id="路径" fill-opacity="0.15" fill="#2C5CD7"></path>
                <path d="M19.8392857,2.59005103 C19.5362245,2.48903062 19.2079082,2.61530613 19.0311224,2.89311224 C18.9806122,2.99413265 17.5410714,5.11556121 13.0961735,2.64056124 C8.3482143,0.0140306182 3.24668368,2.71632655 1.78188776,3.6002551 C1.75663265,3.6002551 1.75663265,3.62551021 1.75663265,3.62551021 C1.70612245,3.65076531 1.68086735,3.70127552 1.65561224,3.72653062 C1.63035714,3.75178572 1.60510204,3.77704082 1.57984693,3.82755103 C1.55459183,3.87806124 1.52933673,3.90331634 1.52933673,3.95382652 C1.50408162,4.00433673 1.50408162,4.02959183 1.47882652,4.08010204 L1.47882652,4.40841838 L3.85280613,12.8436224 L5.67117348,19.2836735 C5.77219389,19.5867347 6.05,19.8140306 6.35306124,19.8140306 C6.42882655,19.8140306 6.47933675,19.8140306 6.55510204,19.7887755 C6.93392856,19.6877551 7.16122448,19.2836735 7.03494897,18.9048469 L5.36811224,12.969898 C6.58035714,12.2122449 9.08061224,11.2020408 12.4142857,13.0456633 C14.2579082,14.0558673 15.7227041,14.4094388 16.8591837,14.4094388 C19.2331633,14.4094388 20.1928572,12.8688775 20.2433673,12.7931122 C20.3191327,12.6920918 20.3443878,12.5658163 20.3443878,12.4395408 L20.3443878,3.27193876 C20.3443878,2.96887753 20.1423469,2.69107142 19.8392857,2.59005103 L19.8392857,2.59005103 Z" id="路径" fill="#1850AE"></path>
            </g>
        </g>
    </g>
</svg>