<?xml version="1.0" encoding="UTF-8"?>
<svg width="22px" height="22px" viewBox="0 0 22 22" version="1.1" xmlns="http://www.w3.org/2000/svg" xmlns:xlink="http://www.w3.org/1999/xlink">
    <title>FE029F3B-3E05-4CA2-B1E9-3E0EE9D580DD@0.0x</title>
    <g id="页面-1" stroke="none" stroke-width="1" fill="none" fill-rule="evenodd">
        <g id="画板备份" transform="translate(-658.000000, -317.000000)">
            <g id="ic_yw_contract" transform="translate(658.000000, 317.000000)">
                <rect id="矩形" fill-opacity="0" fill="#D2D2D2" x="0" y="0" width="22" height="22"></rect>
                <path d="M6.0566206,13.6481482 C6.0566206,16.3499692 7.49802488,18.8465548 9.83787051,20.1974654 C12.1777161,21.5483759 15.0605248,21.5483759 17.4003705,20.1974654 C19.7402161,18.8465548 21.1816204,16.3499692 21.1816204,13.6481482 C21.1816204,10.9463272 19.7402161,8.44974164 17.4003705,7.09883113 C15.0605248,5.74792061 12.1777161,5.74792061 9.83787051,7.09883113 C7.49802488,8.44974164 6.0566206,10.9463272 6.0566206,13.6481482 L6.0566206,13.6481482 Z" id="路径" fill-opacity="0.15081563" fill="#2C5CD7" fill-rule="nonzero"></path>
                <path d="M15.8972382,5.18329671 L11.9321807,7.47626793 C11.7907911,7.55618382 11.6186645,7.53774169 11.5018644,7.4332363 L8.12080763,4.40257997 C7.85647046,4.16283231 7.43230153,4.40872735 7.50607004,4.75912777 L8.44047118,9.20368056 C8.47735543,9.36351234 8.40358692,9.51719673 8.26219728,9.59711262 L4.29713981,11.8900838 C3.98977101,12.0683577 4.08198165,12.5417057 4.43852945,12.5785899 L8.98144026,13.0334958 C9.14127203,13.0457905 9.27036693,13.1625907 9.30725118,13.3224224 L10.2416523,17.7669752 C10.3154208,18.1173756 10.7949162,18.1604073 10.9424532,17.8407437 L12.8174028,13.6789702 C12.885024,13.5375806 13.0387084,13.4453699 13.1923928,13.4638121 L17.7353036,13.9187179 C18.0918514,13.9556021 18.2885674,13.5129911 18.0242302,13.2732434 L14.6431735,10.2425871 C14.5263733,10.1319343 14.4894891,9.9598078 14.5571102,9.81841815 L16.4320599,5.65664466 C16.5673021,5.32468636 16.204607,5.00502281 15.8972382,5.18329671 L15.8972382,5.18329671 Z" id="路径" fill="#1850AE" fill-rule="nonzero"></path>
                <path d="M19.39599,0 L2.60401003,0 C1.72180451,0 1,0.733333333 1,1.62962963 L1,20.3703704 C1,21.2666667 1.72180451,22 2.60401003,22 L16.0877193,22 C18.7894737,22 21,19.7541667 21,17.0092593 L21,1.62962963 C21,0.733333333 20.2781955,0 19.39599,0 Z M19,17.0340909 C19,17.8215909 18.6965517,18.5630682 18.1448276,19.128125 C17.5931034,19.6931818 16.8633229,20 16.0909091,20 L3.80250784,20 C3.35862069,20 3,19.634375 3,19.1818182 L3,2.81818182 C3,2.365625 3.35862069,2 3.80250784,2 L18.1974922,2 C18.6413793,2 19,2.365625 19,2.81818182 L19,17.0340909 Z" id="形状" fill="#1850AE" fill-rule="nonzero"></path>
            </g>
        </g>
    </g>
</svg>