<?xml version="1.0" encoding="UTF-8"?>
<svg width="22px" height="22px" viewBox="0 0 22 22" version="1.1" xmlns="http://www.w3.org/2000/svg" xmlns:xlink="http://www.w3.org/1999/xlink">
    <title>2C5E45EA-6D0A-492F-9533-2A876C44C15B@0.0x</title>
    <g id="页面-1" stroke="none" stroke-width="1" fill="none" fill-rule="evenodd">
        <g id="画板备份" transform="translate(-248.000000, -317.000000)">
            <g id="ic_yw_personal" transform="translate(248.000000, 317.000000)">
                <rect id="矩形" fill-opacity="0" fill="#D2D2D2" x="0" y="0" width="22" height="22"></rect>
                <g id="Cell_icons/Csr-Personal" transform="translate(1.375000, 1.234831)" fill="#1850AE">
                    <path d="M9.625,19.3901693 L0,19.3901693 L0,16.9151693 C0,16.9151693 0,11.3876693 5.61458333,11.1401693 C5.61458333,11.1401693 7.85067622,11.1401693 9.625,13.4390271 C11.3787205,11.1401693 13.6354167,11.1401693 13.6354167,11.1401693 C19.25,11.3876693 19.25,16.9151693 19.25,16.9151693 L19.25,19.3901693 L9.625,19.3901693 Z M9.625,11.1401693 C9.625,11.1401693 5.69479167,10.5626693 4.8125,5.3651693 L4.8125,4.5401693 L12.03125,4.5401693 C12.03125,4.5401693 13.4979153,4.46127717 14.4375,2.8901693 L14.4375,5.3651693 C14.4375,5.3651693 13.95625,10.1501693 9.625,11.1401693 Z" id="Shape"></path>
                    <path d="M12.03125,4.125 L4.8125,4.125 L4.8125,2.475 C4.8125,2.475 5.45416667,0.495 7.21875,-6.85468736e-16 L14.4375,-6.85468736e-16 L14.4375,2.09778611 C14.4375,2.78839127 12.8159122,4.125 12.03125,4.125 Z" id="Path"></path>
                </g>
            </g>
        </g>
    </g>
</svg>