<?xml version="1.0" encoding="UTF-8"?>
<svg width="22px" height="22px" viewBox="0 0 22 22" version="1.1" xmlns="http://www.w3.org/2000/svg" xmlns:xlink="http://www.w3.org/1999/xlink">
    <title>1B0D2EF1-C8EC-4481-8E64-9DF771D40860@0.0x</title>
    <g id="页面-1" stroke="none" stroke-width="1" fill="none" fill-rule="evenodd">
        <g id="画板备份" transform="translate(-330.000000, -315.000000)" fill="#F56C6C" fill-rule="nonzero">
            <g id="ic_yw_fxq" transform="translate(330.000000, 315.000000)">
                <rect id="矩形" opacity="0" x="0" y="0" width="22" height="22"></rect>
                <path d="M21.9976079,14.1632937 L21.9976079,14.3214143 C21.9880488,14.7024065 21.7956387,15.055493 21.4806603,15.2700508 C21.2307903,15.452867 20.951921,15.5923046 20.6557476,15.6825159 C19.9352301,15.8929771 19.1872808,15.9944621 18.4367333,15.9836016 L18.0999063,15.9836016 C18.0572857,16.3603079 17.8153032,16.9459968 16.807546,17.3364444 C16.0822282,17.6000294 15.3147922,17.7286366 14.5431698,17.7159095 C13.7731945,17.7277315 13.0074358,17.600106 12.2829143,17.3392032 C11.1514159,16.8951175 10.9822952,16.2200667 10.9850212,15.858481 C10.9878127,15.4968952 11.1362778,14.8108619 12.2691556,14.3640349 C12.9949868,14.1005844 13.7628497,13.971984 14.5349111,13.9845698 C14.646273,13.9845698 14.756273,13.9845698 14.8662556,13.9914492 L14.8662556,12.6770889 C14.8841349,13.0482952 15.0862381,13.6807254 16.1654778,14.1055524 C16.8888097,14.3672388 17.6538982,14.4944458 18.4229921,14.4808968 C19.1983632,14.4926681 19.9693976,14.3631536 20.6983683,14.0986905 C21.8271254,13.651846 21.9948492,12.9767952 21.9948492,12.6152095 L21.9976079,14.1632937 Z" id="路径"></path>
                <path d="M21.9893492,14.7861032 L21.9893492,16.4895317 C21.9800091,16.8709609 21.7876004,17.2245648 21.4724016,17.4395651 C21.2218464,17.6192668 20.9430494,17.75588 20.6475063,17.8437714 C19.9276632,18.0553155 19.1800735,18.1572799 18.4298714,18.1462365 L18.1026651,18.1462365 L18.1026651,18.2232365 C18.0931019,18.6042319 17.900685,18.9573191 17.5857,19.171873 C17.3351315,19.3515526 17.0563384,19.4881638 16.7608048,19.5760794 C16.0409703,19.7876643 15.2933744,19.8896296 14.5431698,19.8785444 C13.7950038,19.8889821 13.0494527,19.7879727 12.3310349,19.5788381 C12.0353991,19.4924742 11.7564962,19.3567389 11.5061222,19.177373 C11.1829515,18.965898 10.9841076,18.6093193 10.974054,18.2232365 L10.974054,16.5734111 C10.990554,16.9446175 11.1940365,17.5770476 12.2719143,18.0018746 C12.9960176,18.2643527 13.7620618,18.3920267 14.5321524,18.378581 C15.3041147,18.3897976 16.0717371,18.2612444 16.7979254,17.9991333 C17.8015444,17.6018063 18.0462857,17.0243587 18.0889063,16.6476524 L18.4202333,16.6476524 C19.1923298,16.6591561 19.9600792,16.5301132 20.6859889,16.2668254 C21.8230048,15.8268603 21.9893492,15.1532063 21.9893492,14.7861032 L21.9893492,14.7861032 Z M16.1627365,10.4676952 C16.8868389,10.2049432 17.6527658,10.0763598 18.4229746,10.0882476 C19.192958,10.0763931 19.9587283,10.2040195 20.6832476,10.464954 C21.814746,10.9090222 21.9838667,11.584073 21.9838667,11.9456587 C21.9838667,12.3072444 21.8161254,12.9822952 20.6873683,13.4291222 C19.9621382,13.6931769 19.1946996,13.822252 18.4229921,13.8099667 C17.6529302,13.821377 16.8871635,13.6932829 16.1627365,13.431881 C15.0312381,12.9877952 14.8621175,12.3127444 14.8621175,11.9511587 C14.8621175,11.589573 15.0339794,10.9145397 16.1627365,10.4676952 L16.1627365,10.4676952 Z" id="形状"></path>
                <path d="M11.5129841,13.4401222 C12.0629317,13.2091571 13.3552921,13.1115365 13.8502397,13.0386746 C13.955545,13.0241013 14.033423,12.9332462 14.0317222,12.8269508 L14.0317222,10.9819016 C14.0317222,10.5928159 14.4812905,9.89576508 15.6939095,9.41455873 C16.3391566,9.15929934 17.0252476,9.02283357 17.7190619,9.01174921 C17.835055,9.00806176 17.9273708,8.91331643 17.9280444,8.79726667 L17.9280444,3.34186032 C17.9272937,2.6010825 17.3269619,2.0007507 16.5861841,2 L1.34186032,2 C0.601082501,2.0007507 0.000750701116,2.6010825 0,3.34186032 L0,14.9332063 C0.000750701116,15.6739842 0.601082501,16.274316 1.34186032,16.2750667 L9.63907302,16.2750667 C9.75744236,16.2743244 9.85342599,16.1789464 9.85491746,16.0605841 L9.85491746,15.0047063 C9.85217619,14.6156206 10.5753302,13.8374667 11.5130016,13.4401222 L11.5129841,13.4401222 Z M6.70104286,9.72802381 L7.38845556,10.4237127 C7.53341895,10.5575401 7.59342623,10.7600227 7.54478799,10.9512255 C7.49614976,11.1424282 7.34668225,11.2916245 7.15539151,11.3399155 C6.96410077,11.3882064 6.76172744,11.3278316 6.62816349,11.1826254 L5.02507937,9.57542063 C4.88416048,9.43670034 4.83128484,9.23154367 4.88759683,9.04199048 C4.89062544,9.03033624 4.89429774,9.01885885 4.89859683,9.00761111 C4.92571461,8.93499309 4.96787766,8.86892813 5.02232063,8.81374921 L6.63778413,7.20242381 C6.84803768,6.99321185 7.18782264,6.99321185 7.39807619,7.20242381 C7.60670732,7.41345432 7.60670732,7.75306473 7.39807619,7.96409524 L6.71064603,8.65150794 L10.2412619,8.65150794 C11.2775299,8.65075545 12.1182555,7.8124962 12.1220524,6.77623492 C12.1220524,6.47896327 12.3630387,6.23797698 12.6603103,6.23797698 C12.957582,6.23797698 13.1985683,6.47896327 13.1985683,6.77623492 C13.1940375,8.40740604 11.872435,9.7283921 10.2412619,9.7321619 L6.70104286,9.72802381 Z" id="形状"></path>
            </g>
        </g>
    </g>
</svg>