<?xml version="1.0" encoding="UTF-8"?>
<svg width="22px" height="22px" viewBox="0 0 22 22" version="1.1" xmlns="http://www.w3.org/2000/svg" xmlns:xlink="http://www.w3.org/1999/xlink">
    <title>44331948-2B6D-476E-B05D-17A1038E5BAC@0.0x</title>
    <g id="页面-1" stroke="none" stroke-width="1" fill="none" fill-rule="evenodd">
        <g id="画板备份" transform="translate(-494.000000, -317.000000)">
            <g id="ic_yw_bjd" transform="translate(494.000000, 317.000000)">
                <rect id="矩形" fill-opacity="0" fill="#D2D2D2" x="0" y="0" width="22" height="22"></rect>
                <path d="M21.1816206,13.6481481 C21.1816206,17.8232784 17.7942508,21.2106481 13.6191206,21.2106481 C9.44399042,21.2106481 6.05662062,17.8232784 6.05662062,13.6481481 C6.05662062,9.47301794 9.44399042,6.08564815 13.6191206,6.08564815 C17.7942508,6.08564815 21.1816206,9.47301794 21.1816206,13.6481481" id="路径" fill-opacity="0.15" fill="#F99057" fill-rule="nonzero"></path>
                <path d="M15.908322,5.80926455 L13.5090292,9.99759015 L15.2884304,9.99759015 C15.4043813,9.99759015 15.498034,10.0903695 15.498034,10.2052392 L15.498034,11.6720368 C15.498034,11.7869065 15.4043813,11.8796858 15.2884304,11.8796858 L12.5145268,11.8796858 L12.5145268,12.9576937 L15.2839707,12.9576937 C15.3999217,12.9576937 15.4935744,13.050473 15.4935744,13.1653427 L15.4935744,14.6321403 C15.4935744,14.74701 15.3999217,14.8397894 15.2839707,14.8397894 L12.5145268,14.8397894 L12.5145268,17.6673509 C12.5145268,17.7822206 12.4208741,17.875 12.3049231,17.875 L10.0037427,17.875 C9.88779171,17.875 9.79413902,17.7822206 9.79413902,17.6673509 L9.79413902,14.8486255 L7.11388812,14.8486255 C6.99793717,14.8486255 6.90428448,14.7558461 6.90428448,14.6409764 L6.90428448,13.1741789 C6.90428448,13.0593092 6.99793717,12.9665298 7.11388812,12.9665298 L9.79413902,12.9665298 L9.79413902,11.888522 L7.11388812,11.888522 C6.99793717,11.888522 6.90428448,11.7957426 6.90428448,11.6808729 L6.90428448,10.2140753 C6.90428448,10.0947876 6.99793717,10.0020082 7.11388812,10.0020082 L8.74166113,10.0020082 L6.33790866,5.80926455 C6.26209458,5.67230453 6.35574727,5.5 6.5207544,5.5 L9.2188439,5.5 L11.1989294,9.27302749 L13.165636,5.5 L15.7254763,5.5 C15.8860237,5.5 15.9885957,5.66788647 15.908322,5.80926455 L15.908322,5.80926455 Z" id="形状" fill="#FE9120" fill-rule="nonzero"></path>
                <path d="M19.39599,0 L2.60401003,0 C1.72180451,0 1,0.733333333 1,1.62962963 L1,20.3703704 C1,21.2666667 1.72180451,22 2.60401003,22 L16.0877193,22 C18.7894737,22 21,19.7541667 21,17.0092593 L21,1.62962963 C21,0.733333333 20.2781955,0 19.39599,0 Z M19,17.0340909 C19,17.8215909 18.6965517,18.5630682 18.1448276,19.128125 C17.5931034,19.6931818 16.8633229,20 16.0909091,20 L3.80250784,20 C3.35862069,20 3,19.634375 3,19.1818182 L3,2.81818182 C3,2.365625 3.35862069,2 3.80250784,2 L18.1974922,2 C18.6413793,2 19,2.365625 19,2.81818182 L19,17.0340909 Z" id="形状" fill="#FE9120" fill-rule="nonzero"></path>
            </g>
        </g>
    </g>
</svg>