<?xml version="1.0" encoding="UTF-8"?>
<svg width="22px" height="22px" viewBox="0 0 22 22" version="1.1" xmlns="http://www.w3.org/2000/svg" xmlns:xlink="http://www.w3.org/1999/xlink">
    <title>追加</title>
    <g id="合同工具" stroke="none" stroke-width="1" fill="none" fill-rule="evenodd">
        <g id="追加设备-详情" transform="translate(-257, -122)" fill="#184FAE" fill-rule="nonzero">
            <g id="编组-19" transform="translate(226, 102)">
                <g id="追加" transform="translate(31, 20)">
                    <rect id="矩形" opacity="0" x="0" y="0" width="22" height="22"></rect>
                    <path d="M18.7916738,10.0833262 L15.5833262,10.0833262 L15.5833262,6.875 C15.5833262,6.6 15.4,6.41667383 15.125,6.41667383 L14.2083262,6.41667383 C13.9333262,6.41667383 13.75,6.6 13.75,6.875 L13.75,10.0833262 L10.5416738,10.0833262 C10.2666738,10.0833262 10.0833262,10.2666738 10.0833262,10.5416738 L10.0833262,11.4583262 C10.0833262,11.7333262 10.2666738,11.9166738 10.5416738,11.9166738 L13.75,11.9166738 L13.75,15.125 C13.75,15.4 13.9333262,15.5833262 14.2083262,15.5833262 L15.125,15.5833262 C15.4,15.5833262 15.5833262,15.4 15.5833262,15.125 L15.5833262,11.9166738 L18.7916738,11.9166738 C19.0666738,11.9166738 19.25,11.7333262 19.25,11.4583262 L19.25,10.5416738 C19.25,10.2666738 19.0666738,10.0833262 18.7916738,10.0833262 L18.7916738,10.0833262 Z" id="路径"></path>
                    <path d="M19.2041672,14.8888802 L19.2041672,18.0854822 C19.2041672,18.696602 18.7041672,19.196602 18.0930474,19.196602 L3.93223664,19.196602 C3.32111684,19.196602 2.82111684,18.696602 2.82111684,18.0854822 L2.82111684,4.00199037 C2.82111684,3.39087058 3.32111684,2.89087058 3.93223664,2.89087058 L18.0930474,2.89087058 C18.7041672,2.89087058 19.2041672,3.39087058 19.2041672,4.00199037 L19.2041672,7.11111979 C19.2041672,7.44445313 19.4263808,7.66666667 19.7597141,7.66666667 L20.4444531,7.66666667 C20.7777865,7.66666667 21,7.44445312 21,7.11111979 L21,3.22221354 C21,2 20,1 18.7777865,1 L3.22221354,1 C2,1 1,2 1,3.22221354 L1,18.7777865 C1,20 2,21 3.22221354,21 L18.7777865,21 C20,21 21,20 21,18.7777865 L21,14.8888802 C21,14.5555469 20.7777865,14.3333333 20.4444531,14.3333333 L19.7597141,14.3333333 C19.4263808,14.3333333 19.2041672,14.5555469 19.2041672,14.8888802 Z" id="路径"></path>
                    <path d="M1.9316206,19.8617958 L11.9003705,20.5724654 C14.2402161,19.2215548 15.6816206,16.7249692 15.6816206,14.0231482 C15.6816206,11.3213272 14.2402161,8.82474164 11.9003705,7.47383113 C9.56052483,6.12292061 6.67771613,6.12292061 4.33787051,7.47383113 C1.99802488,8.82474164 1.9316206,11.3213272 1.9316206,14.0231482 C1.9316206,15.8243622 1.9316206,17.7705781 1.9316206,19.8617958 Z" id="路径" fill-opacity="0.15081563"></path>
                </g>
            </g>
        </g>
    </g>
</svg>