<?xml version="1.0" encoding="UTF-8"?>
<svg width="22px" height="22px" viewBox="0 0 22 22" version="1.1" xmlns="http://www.w3.org/2000/svg" xmlns:xlink="http://www.w3.org/1999/xlink">
    <title>1B64805D-5924-410C-BF08-E81FF550183D@0.0x</title>
    <g id="页面-1" stroke="none" stroke-width="1" fill="none" fill-rule="evenodd">
        <g id="画板备份" transform="translate(-166.000000, -581.000000)">
            <g id="bt_工作台-签字单" transform="translate(166.000000, 581.000000)">
                <rect id="矩形备份-5" fill="#D2D2D2" opacity="0" x="0" y="0" width="22" height="22"></rect>
                <path d="M18,7 C19.6568542,7 21,8.34314575 21,10 L21,18 C21,19.6568542 19.6568542,21 18,21 L4,21 C2.34314575,21 1,19.6568542 1,18 L1,10 C1,8.34314575 2.34314575,7 4,7 Z M14.1062835,9.00999805 C13.8164023,9.05575058 13.5751143,9.25339389 13.4771976,9.52529355 C13.3792808,9.7971932 13.4403762,10.0999172 13.6364853,10.3145552 L14.7864485,11.6714384 L13.8022908,11.6714384 C13.3591978,11.6714384 13,12.0242899 13,12.4595542 C13,12.8948186 13.3591978,13.2476701 13.8022908,13.2476701 L15.6970237,13.2476701 L15.6970237,14.320811 L13.8022908,14.320811 C13.3591978,14.320811 13,14.6736625 13,15.1089269 C13,15.5441913 13.3591978,15.8970428 13.8022908,15.8970428 L15.6970237,15.8970428 L15.6970237,17.2118841 C15.6970237,17.6471485 16.0562215,18 16.4993144,18 C16.9424074,18 17.3016052,17.6471485 17.3016052,17.2118841 L17.3016052,15.8983576 L19.1977092,15.8983576 C19.6408022,15.8983576 20,15.5455061 20,15.1102417 C20,14.6749773 19.6408022,14.3221258 19.1977092,14.3221258 L17.3016052,14.3221258 L17.3016052,13.2476701 L19.1977092,13.2476701 C19.6408022,13.2476701 20,12.8948186 20,12.4595542 C20,12.0242899 19.6408022,11.6714384 19.1977092,11.6714384 L18.2135189,11.6714384 L19.363482,10.3145552 C19.6277173,9.97916455 19.5743899,9.49850579 19.2428108,9.22690347 C18.9112317,8.95530115 18.4203112,8.99015671 18.1319383,9.30577586 L16.5006529,11.2287645 L14.8693022,9.30577586 C14.6883348,9.0776921 14.3961647,8.96424553 14.1062835,9.00999805 Z M8,15 L4,15 C3.44771525,15 3,15.4477153 3,16 C3,16.5522847 3.44771525,17 4,17 L8,17 C8.55228475,17 9,16.5522847 9,16 C9,15.4477153 8.55228475,15 8,15 Z M8,11 L4,11 C3.44771525,11 3,11.4477153 3,12 C3,12.5522847 3.44771525,13 4,13 L8,13 C8.55228475,13 9,12.5522847 9,12 C9,11.4477153 8.55228475,11 8,11 Z M19.5,2 C19.7761424,2 20,2.22385763 20,2.5 L20,3.5 C20,3.77614237 19.7761424,4 19.5,4 L6,4 L6,2 L19.5,2 Z M2.53333333,3.4 L5.2,5.4 C5.4209139,5.56568542 5.73431458,5.5209139 5.9,5.3 C5.96491106,5.21345191 6,5.10818511 6,5 L6,1 C6,0.723857625 5.77614237,0.5 5.5,0.5 C5.39181489,0.5 5.28654809,0.535088936 5.2,0.6 L2.53333333,2.6 C2.31241943,2.76568542 2.26764791,3.0790861 2.43333333,3.3 C2.46176046,3.33790283 2.4954305,3.37157288 2.53333333,3.4 Z" id="形状" fill="#00B42A" fill-rule="nonzero"></path>
            </g>
        </g>
    </g>
</svg>