<?xml version="1.0" encoding="UTF-8"?>
<svg width="22px" height="22px" viewBox="0 0 22 22" version="1.1" xmlns="http://www.w3.org/2000/svg" xmlns:xlink="http://www.w3.org/1999/xlink">
    <title>C7378A43-6C67-4080-A134-48B602AAF410@0.0x</title>
    <g id="页面-1" stroke="none" stroke-width="1" fill="none" fill-rule="evenodd">
        <g id="画板备份" transform="translate(-576.000000, -317.000000)">
            <g id="ic_yw_gzsq" transform="translate(576.000000, 317.000000)">
                <rect id="矩形" fill-opacity="0" fill="#D2D2D2" x="0" y="0" width="22" height="22"></rect>
                <path d="M6.0566206,13.6481482 C6.0566206,16.3499692 7.49802488,18.8465548 9.83787051,20.1974654 C12.1777161,21.5483759 15.0605248,21.5483759 17.4003705,20.1974654 C19.7402161,18.8465548 21.1816204,16.3499692 21.1816204,13.6481482 C21.1816204,10.9463272 19.7402161,8.44974164 17.4003705,7.09883113 C15.0605248,5.74792061 12.1777161,5.74792061 9.83787051,7.09883113 C7.49802488,8.44974164 6.0566206,10.9463272 6.0566206,13.6481482 L6.0566206,13.6481482 Z" id="路径" fill-opacity="0.15081563" fill="#2C5CD7" fill-rule="nonzero"></path>
                <path d="M10.9328488,4.125 C12.4869524,4.125 13.7468023,5.38484989 13.7468023,6.93895349 C13.7468023,8.03219588 13.1233664,8.97982701 12.2126229,9.44571864 L12.2119186,10.5203488 L14.7700581,10.5203488 C16.1828796,10.5203488 17.3281977,11.6656669 17.3281977,13.0784884 C17.3281977,14.0203693 17.3281977,14.4940325 17.3281977,14.4994779 L4.5375,14.4994779 C4.5375,14.4940325 4.5375,14.0203693 4.5375,13.0784884 C4.5375,11.6656669 5.68281808,10.5203488 7.09563953,10.5203488 L9.65377907,10.5203488 L9.65386424,9.44612235 C8.74269155,8.98037461 8.11889535,8.03251175 8.11889535,6.93895349 C8.11889535,5.38484989 9.37874524,4.125 10.9328488,4.125 Z" id="路径" fill="#1850AE" fill-rule="nonzero"></path>
                <path d="M4.5375,15.125 L17.3281977,15.125 L17.3281977,15.325 C17.3281977,16.4295695 16.4327672,17.325 15.3281977,17.325 L6.5375,17.325 C5.4329305,17.325 4.5375,16.4295695 4.5375,15.325 L4.5375,15.125 L4.5375,15.125 Z" id="矩形" fill="#1850AE"></path>
                <path d="M19.39599,0 L2.60401003,0 C1.72180451,0 1,0.733333333 1,1.62962963 L1,20.3703704 C1,21.2666667 1.72180451,22 2.60401003,22 L16.0877193,22 C18.7894737,22 21,19.7541667 21,17.0092593 L21,1.62962963 C21,0.733333333 20.2781955,0 19.39599,0 Z M19,17.0340909 C19,17.8215909 18.6965517,18.5630682 18.1448276,19.128125 C17.5931034,19.6931818 16.8633229,20 16.0909091,20 L3.80250784,20 C3.35862069,20 3,19.634375 3,19.1818182 L3,2.81818182 C3,2.365625 3.35862069,2 3.80250784,2 L18.1974922,2 C18.6413793,2 19,2.365625 19,2.81818182 L19,17.0340909 Z" id="形状" fill="#1850AE" fill-rule="nonzero"></path>
            </g>
        </g>
    </g>
</svg>