<?xml version="1.0" encoding="UTF-8"?>
<svg width="22px" height="22px" viewBox="0 0 22 22" version="1.1" xmlns="http://www.w3.org/2000/svg" xmlns:xlink="http://www.w3.org/1999/xlink">
    <title>3398686F-5F01-4C49-BEB3-B952EAF99717@0.0x</title>
    <g id="页面-1" stroke="none" stroke-width="1" fill="none" fill-rule="evenodd">
        <g id="画板备份" transform="translate(-166.000000, -317.000000)">
            <g id="ic_yw_enterprise" transform="translate(166.000000, 317.000000)">
                <rect id="矩形" fill-opacity="0" fill="#D2D2D2" x="0" y="0" width="22" height="22"></rect>
                <path d="M19.1534596,3.06089861 C19.0773269,3.0554705 18.4358353,3.01469007 17.2288459,2.68037402 C16.0435688,2.35148609 14.0592458,1.66907494 11.3298796,0.271823162 L10.8107294,0 L10.2915792,0.27460681 C7.56221294,1.67171941 5.58317886,2.35413055 4.40332994,2.68301849 C3.20176857,3.01733453 2.56027704,3.05811496 2.48414428,3.06354308 L1.375,3.06354308 L1.375,11.7190161 C1.375,13.4967925 1.883294,15.0137411 2.9299454,16.3539281 C3.80526331,17.4793567 4.94697626,18.3574583 6.38779212,19.3332659 L10.8133738,22 L15.2090314,19.3523338 L15.2416,19.3306214 C16.6824159,18.3546746 17.8213452,17.4739286 18.6994468,16.3512836 C19.7460981,15.0110966 20.2543922,13.4969317 20.2543922,11.7163716 L20.2543922,3.06089861 L19.1534596,3.06089861 Z M15.3450125,14.6738578 L6.2790907,14.6738578 L6.2790907,13.7006946 L7.79047202,13.7006946 L7.79047202,9.6013564 L8.76363513,9.6013564 L8.76363513,13.7034783 L10.5986155,13.7034783 L10.5958318,8.09261954 L11.6750519,8.09261954 L11.6750519,10.3597611 L14.4804117,10.3597611 L14.4804117,11.3329242 L11.6750519,11.3329242 L11.6750519,13.7061228 L15.3448733,13.7061228 L15.3448733,14.6738578 L15.3450125,14.6738578 Z M15.3450125,9.71005782 C13.5100322,8.73689471 12.0012953,7.55161768 10.8133738,6.14893779 C9.62545234,7.44291625 8.11671549,8.63083775 6.28173516,9.71005782 L5.74351695,8.73689471 C7.57571363,7.76915972 9.19593556,6.58123822 10.489914,5.17855832 L11.2456743,5.17855832 C12.6483542,6.68993965 14.1598747,7.87521668 15.8860144,8.63097693 L15.3450125,9.71005782 L15.3450125,9.71005782 Z" id="形状" fill="#1850AE" fill-rule="nonzero"></path>
            </g>
        </g>
    </g>
</svg>