<?xml version="1.0" encoding="UTF-8"?>
<svg width="22px" height="22px" viewBox="0 0 22 22" version="1.1" xmlns="http://www.w3.org/2000/svg" xmlns:xlink="http://www.w3.org/1999/xlink">
    <title>2BEFF9AC-9077-4BE2-ADFB-5DAB1D223F43@0.0x</title>
    <g id="页面-1" stroke="none" stroke-width="1" fill="none" fill-rule="evenodd">
        <g id="画板备份" transform="translate(-248.000000, -141.000000)">
            <g id="ic_zz_zzd" transform="translate(248.000000, 141.000000)">
                <rect id="矩形" fill="#184FAE" fill-rule="nonzero" opacity="0" x="0" y="0" width="22" height="22"></rect>
                <rect id="矩形" fill="#F06317" x="0" y="0" width="22" height="22" rx="2"></rect>
                <path d="M19.3171833,16 L19.3680557,16.0017592 C19.704092,16.0276805 19.9715875,16.3031679 19.9979463,16.650469 L20,16.7058526 L19.9979463,16.7588098 C19.9726939,17.106059 19.706266,17.3823876 19.3704614,17.4096125 L19.3171833,17.4117356 L15.3324722,17.4117356 L15.703248,17.7950228 L15.7431773,17.8398514 C15.9711708,18.1201959 15.953884,18.5342483 15.703373,18.7932408 C15.4528621,19.0522333 15.0523575,19.0701175 14.7811785,18.8344205 L14.7374646,18.7931406 L13.2012003,17.2049116 L13.1653491,17.1650269 C12.8007636,16.7298744 13.075897,16.0430391 13.6313567,16.0021231 L13.6842534,16 L19.3171833,16 Z M10.9983831,2 C13.5660559,1.99973651 16.0116041,3.09603717 17.7196581,5.01304152 C19.4277121,6.93004587 20.2356441,9.48523138 19.9401552,12.0356405 C19.8963684,12.4155044 19.5529069,12.6879515 19.1730126,12.6441681 C18.7931182,12.6003847 18.5206493,12.2569508 18.5644362,11.8770869 C18.9370671,8.66066001 17.2348958,5.56031872 14.3209657,4.14801348 C11.4070356,2.73570825 7.91859054,3.32029443 5.62435934,5.60537224 C3.33012815,7.89045004 2.73183346,11.3762985 4.13282562,14.2955055 C5.53381778,17.2147124 8.62771548,18.9288799 11.8458353,18.5688823 C12.0958775,18.5333339 12.3454411,18.6367444 12.4970454,18.838721 C12.6486497,19.0406976 12.6782405,19.3091939 12.5742594,19.5393338 C12.4702784,19.7694738 12.2492236,19.9247425 11.9974402,19.9444911 C8.68335621,20.3137504 5.43668681,18.8206351 3.56026425,16.0643065 C1.68384169,13.3079779 1.48520554,9.74018928 3.04406506,6.79263247 C4.60292458,3.84507565 7.66378775,2.00084565 10.9983831,2 L10.9983831,2 Z M9.70747543,7.34445924 C9.76118661,7.61789379 9.66746909,7.78885304 9.42547324,7.85702371 C9.21399007,7.95693007 9.0025069,8.00429866 8.79102373,7.99919213 L8.70033532,7.99374098 L8.70033532,9.01921452 L9.58668068,9.01921452 L9.64641313,9.05348782 C10.1042142,9.32689104 10.1175496,9.61050733 9.68593924,9.90361613 L9.62709335,9.94189947 L8.70033532,9.94189947 L8.70033532,10.1471007 L8.78071739,10.2572201 C8.83160392,10.324593 8.88536295,10.390374 8.94188789,10.4544326 C9.26453563,10.8221567 9.57360472,11.1983114 9.86864592,11.5823501 C10.0298534,11.8787171 9.97614217,12.1291879 9.70747543,12.3344204 C9.40441728,12.4842643 9.16024195,12.4328544 8.97583601,12.1791254 L8.94188789,12.1291879 L8.70029838,11.787614 L8.70029838,14.5898795 L8.69257786,14.6383759 C8.64743682,14.8582075 8.46173797,14.9788533 8.1359246,15 C7.78344034,15 7.59604224,14.8899119 7.57409971,14.6697357 L7.57195717,14.6241528 L7.57195717,12.1977345 L7.52382397,12.3107675 C7.38112362,12.6406558 7.24957924,12.8878372 7.12834121,13.0518728 C6.8867517,13.3253074 6.6181219,13.4164418 6.32237793,13.3253074 C6.02707723,13.1660023 5.97332911,12.9381506 6.16120743,12.6417837 C6.70278905,11.7854523 7.13221994,10.9579118 7.44817025,10.1591935 L7.53154449,9.9419308 L6.48354842,9.9419308 L6.42510888,9.94412379 C6.14185072,9.9455649 6,9.79681751 6,9.49753701 C6,9.22122024 6.14055781,9.06373222 6.42126709,9.02541755 L6.48358536,9.01924585 L7.57195717,9.01924585 L7.57195717,8.09652956 L7.38152997,8.12096574 C7.13221994,8.15010118 6.90008715,8.16470023 6.68520547,8.16470023 C6.41653873,8.16470023 6.26866674,8.03929252 6.24199585,7.78885304 C6.24199585,7.49248608 6.3627906,7.32187145 6.60478645,7.27631991 C7.46830407,7.21327452 8.32864011,7.12206214 9.18388374,7.00288536 C9.45255048,6.97992162 9.62665007,7.09405109 9.70747543,7.34449057 L9.70747543,7.34445924 Z M14.4205394,7 C14.8888381,7 15.1229556,7.24543739 15.1229556,7.73631216 L15.1218696,7.80487795 L15.1218696,13.9773386 L15.3307547,13.9773386 L15.3790474,13.9847711 C15.580842,14.0248794 15.6927265,14.1807259 15.7142857,14.4522437 C15.6923432,14.7701305 15.579756,14.9509192 15.3760451,14.9929693 L15.3307228,15 L10.4180896,15 L10.3642075,14.9933711 C10.121147,14.9524593 10,14.7841584 10,14.4888702 C10,14.2161806 10.121147,14.0599323 10.3642075,14.020594 L10.4181216,14.0139651 L10.9057438,14.0139651 L10.9057438,7.8415044 L10.9042426,7.7701933 C10.9031247,7.28206384 11.1142456,7.02611392 11.5375414,7.00311358 L11.6026024,7.00157353 L14.3551271,7.00157353 L14.4205394,7 L14.4205394,7 Z M14,12 L12,12 L12,13 L13.9996616,13 L13.9996616,12.0000495 L14,12 Z M14,10 L12,10 L12,11 L13.9996616,11 L13.9996616,10 L14,10 Z M13.8460909,8 L12.1847642,8 L12.1496503,8.00194493 C12.0610334,8.01325331 12.0118175,8.06982301 12.0019743,8.17168181 L12,8.2120808 L12,9 L14,9 L14,8.212442 L13.9983642,8.17204301 C13.9891697,8.05756995 13.9382897,8.00033342 13.8460627,8.00033342 L13.8460909,8 Z" id="形状" fill="#FFFFFF" fill-rule="nonzero"></path>
            </g>
        </g>
    </g>
</svg>