<?xml version="1.0" encoding="UTF-8"?>
<svg width="22px" height="22px" viewBox="0 0 22 22" version="1.1" xmlns="http://www.w3.org/2000/svg" xmlns:xlink="http://www.w3.org/1999/xlink">
    <title>58FC712A-11AB-46BD-999B-93BF86D4E7F7@0.0x</title>
    <g id="页面-1" stroke="none" stroke-width="1" fill="none" fill-rule="evenodd">
        <g id="画板备份" transform="translate(-330.000000, -141.000000)">
            <g id="ic_zz_tzd" transform="translate(330.000000, 141.000000)">
                <rect id="矩形" fill="#000000" fill-rule="nonzero" opacity="0" x="0" y="0" width="22" height="22"></rect>
                <rect id="矩形" fill="#F06317" x="0" y="0" width="22" height="22" rx="2"></rect>
                <path d="M10.9983831,2 C13.5660559,1.99973651 16.0116041,3.09603717 17.7196581,5.01304152 C19.4277121,6.93004587 20.2356441,9.48523138 19.9401552,12.0356405 C19.8963684,12.4155044 19.5529069,12.6879515 19.1730126,12.6441681 C18.7931182,12.6003847 18.5206493,12.2569508 18.5644362,11.8770869 C18.9370671,8.66066001 17.2348958,5.56031872 14.3209657,4.14801348 C11.4070356,2.73570825 7.91859054,3.32029443 5.62435934,5.60537224 C3.33012815,7.89045004 2.73183346,11.3762985 4.13282562,14.2955055 C5.53381778,17.2147124 8.62771548,18.9288799 11.8458353,18.5688823 C12.0958775,18.5333339 12.3454411,18.6367444 12.4970454,18.838721 C12.6486497,19.0406976 12.6782405,19.3091939 12.5742594,19.5393338 C12.4702784,19.7694738 12.2492236,19.9247425 11.9974402,19.9444911 C8.68335621,20.3137504 5.43668681,18.8206351 3.56026425,16.0643065 C1.68384169,13.3079779 1.48520554,9.74018928 3.04406506,6.79263247 C4.60292458,3.84507565 7.66378775,2.00084565 10.9983831,2 L10.9983831,2 Z M18.2191097,16.1656601 L18.2624444,16.2069383 L19.7987849,17.7951053 L19.8346379,17.8349884 C20.1992415,18.2701238 19.9240651,18.9569323 19.3689592,18.9978769 L19.3160306,19 L13.6828213,19 L13.6315943,18.9982106 C13.2957002,18.972107 13.028403,18.6966943 13.0020538,18.3495564 L13,18.2941447 L13.0017017,18.2411896 C13.0269553,17.893954 13.2933965,17.6176362 13.6292177,17.5904124 L13.6828213,17.5882893 L17.66773,17.5882893 L17.2965837,17.2050171 L17.2570045,17.1601903 C17.0289263,16.8798581 17.0461874,16.4657557 17.2967473,16.2067435 C17.5473072,15.9477313 17.9478963,15.9298878 18.2190804,16.1656601 L18.2191097,16.1656601 Z M10.3800813,6.27140194 L14.5027963,6.27140194 C15.1537527,6.27140194 15.4792309,6.54468557 15.424993,7.09122722 L15.424993,9.82398669 C15.3707551,10.3705283 15.0452769,10.6984585 14.3943206,10.7531049 L12.3329503,10.7531049 C12.5499273,11.1903536 12.8754055,11.5729302 13.2008836,11.9008603 C13.3093848,11.8462138 13.417886,11.7368953 13.634863,11.5729302 L14.0245656,11.3097126 L14.3439673,11.1068358 C14.6264821,10.9323802 14.7957318,10.8405649 14.8282745,10.807777 C15.1537527,10.643812 15.424993,10.643812 15.6419699,10.91707 C15.8589723,11.1903536 15.8589723,11.4636373 15.5334942,11.7368953 L15.2133928,11.9485151 C14.9113202,12.1429211 14.5183074,12.3771569 14.0145791,12.6113926 C14.2315815,12.7206856 14.6112975,12.8300042 15.0452769,13.0486157 L15.0287776,13.0285075 L15.0956072,13.0713618 C15.1125309,13.08142 15.1320575,13.0923534 15.1537527,13.1032878 C15.6419699,13.3218994 15.9132102,13.4858644 15.9674481,13.6498295 C16.0759493,14.1963711 15.9132102,14.4696547 15.4792309,14.5243012 C15.804709,14.5789733 15.9674481,14.7975849 15.9674481,15.125515 C15.9674481,15.5080916 15.804709,15.7267287 15.5334942,15.7813752 L11.8447331,15.7813752 C10.4885825,15.7813752 9.34940889,15.5080916 8.42721226,14.9615499 L7.78027636,15.3987901 L7.26593891,15.7267202 C7.11927314,15.8178119 6.99872755,15.8906852 6.9083226,15.9453402 C6.63708231,16.0546588 6.42010534,16 6.20310294,15.7813752 C5.98612596,15.5080916 5.93188808,15.2348335 6.09462716,15.0708685 C6.20310294,14.9615499 6.42010534,14.7975849 6.85405928,14.5243012 L7.10749998,14.371443 C7.32872819,14.2305396 7.45077774,14.128063 7.45077774,14.0870782 L7.45077774,12.338109 C7.45077774,12.174144 7.39653985,12.0648254 7.23380077,12.0648254 L6.47434322,12.0648254 C6.14886505,12.0101789 6.04036385,11.7915674 6.04036385,11.4089652 C6.09462716,10.9717421 6.25736625,10.7531049 6.52858111,10.7531049 L8.10173409,10.7531049 C8.53571346,10.6984585 8.69845255,11.0263886 8.69845255,11.5729302 L8.69845255,13.3765458 C8.75269043,13.6498295 8.86119163,13.759148 9.02393072,13.868441 C8.9696674,13.595183 9.13240649,13.4312179 9.40364678,13.3218994 L9.40364678,7.09122722 C9.34940889,6.49001347 9.67488706,6.21675546 10.3800813,6.27140194 Z M12.6584285,12.9393228 L12.700951,13.0906043 L12.7126664,13.2125808 C12.7126664,13.4858644 12.3871882,13.7044759 11.681994,13.868441 C11.1937767,14.0324061 10.7055595,14.1417246 10.2173422,14.2510432 C10.6513216,14.4150083 11.0852755,14.4696547 11.5192549,14.4696547 L15.5334942,14.4696547 C14.3400573,14.0324061 13.417886,13.5405109 12.6584285,12.9393228 Z M11.0852755,10.6984585 L10.6513216,10.6984585 L10.6513216,12.8846507 L10.8986801,12.8155759 L11.2501949,12.725507 L11.989455,12.521991 C12.0838687,12.4942674 12.1469664,12.4708475 12.1702112,12.4474276 C11.7904952,12.0101789 11.465017,11.4089652 11.0852755,10.6984585 Z M7.23380077,8.29362909 L8.86119163,9.27741943 C9.0781686,9.49605658 9.0781686,9.76931459 8.91542952,10.0425982 C8.69845255,10.3158819 8.48145014,10.3705283 8.21023529,10.3158819 C7.66775471,10.0425982 7.12529957,9.71466812 6.58284442,9.27741943 C6.36584202,9.05880789 6.36584202,8.78552426 6.52858111,8.51226624 C6.6913202,8.23898261 6.9083226,8.18433613 7.23380077,8.29362909 Z M14.2315815,8.91075422 L10.6513216,8.91075422 L10.6513216,9.76575149 L14.2315815,9.76575149 L14.2315815,8.91075422 Z M7.61351683,6.0527904 L8.10173409,6.43536699 L8.94347662,7.12151043 C8.9549355,7.13170577 8.96364097,7.13980187 8.9696674,7.1458737 C9.1866698,7.36451085 9.13240649,7.63776886 8.91542952,7.9110525 C8.64418923,8.18433613 8.42721226,8.23898261 8.15597197,8.07501755 C7.61351683,7.69244096 7.12529957,7.30983875 6.7998214,6.92726216 C6.58284442,6.70865063 6.58284442,6.49001347 6.7998214,6.27140194 C7.07106168,5.9981183 7.34227654,5.94347182 7.61351683,6.0527904 Z M14.2315815,7.28476037 L10.6513216,7.28476037 L10.6513216,8.24295931 L14.2315815,8.24295931 L14.2315815,7.28476037 Z" id="形状" fill="#FFFFFF" fill-rule="nonzero"></path>
            </g>
        </g>
    </g>
</svg>