<svg height="22" viewBox="0 0 22 22" width="22" xmlns="http://www.w3.org/2000/svg"><g fill="#1850ae"><path d="m0 0h22v22h-22z" opacity="0"/><path d="m14.215459 15.1762715c-.6599785 0-1.21-.5500215-1.21-1.2099785 0-.660086.5500644-1.2099785 1.21-1.2099785.6600644 0 1.21.5499355 1.21 1.2099785 0 .6966308-.5499356 1.2099785-1.21 1.2099785zm0-3.7033692c-1.5766738 0-2.8599356 1.2833692-2.8599356 2.860043 0 .5132832.1466094 1.0266309.4033262 1.4299785l.2566094.5500645.5500644 1.0999785 1.6499356 3.3733047 2.2733691-4.5833262.2199571-.4033476c.1100214-.2199141.219957-.4399786.2933046-.6966524.0733477-.220043.1100215-.4766738.1100215-.7333047-.0366308-1.6133691-1.3199785-2.8967383-2.8966523-2.8967383z"/><path d="m20.4583014 2.04994593-4.0832713-1.03136841c-.1666746-.0448501-.2916989 0-.4583003.0448501l-4.7917666 2.42145882-4.41666939-2.01788673c-.16660136-.0897002-.33330037-.0897002-.49999939 0l-4.79164454 2.01788673c-.24995086.0897002-.41664988.35869571-.41664988.67254133v16.03537553c0 .2242505.12502426.4931934.29162562.6277963.16669902.1345503.4166743.1794004.62504807.0897002l4.4999945-1.9281603 4.45831971 1.9730104c.083374.0448501.1667235.0448501.2499509.0448501.0833495 0 .2083738-.0448501.2917233-.0897002l.9733657-.2606561-1.2234631-2.2639321-4.45827089-1.9282128c-.0833495-.0448501-.16660136-.0448501-.24995086-.0448501-.08334951 0-.16669902 0-.25004853.0448501l-3.20829442 1.659086v-12.46588474l3.41666819-1.70393602 4.45831971 1.97303663c.1667235.0897002.3749752.0897002.5416986 0l4.8750185-2.37658244 2.7143758.8071179v12.51073477l-.6666252-.1794004-1.0019242 2.0364941 2.7874697.8468686c.2083737.044745.4166499 0 .5833733-.1345503.1666013-.1344977.2499508-.3586431.2499508-.5829462l.0416748-16.08022561c0-.31379307-.2083249-.62766495-.5416986-.71736516z"/><path d="m6 7v6c0 .5522847.44771525 1 1 1s1-.4477153 1-1v-6c0-.55228475-.44771525-1-1-1s-1 .44771525-1 1zm8 0v3c0 .5522847.4477153 1 1 1s1-.4477153 1-1v-3c0-.55228475-.4477153-1-1-1s-1 .44771525-1 1zm-4 1v2c0 .5522847.4477153 1 1 1s1-.4477153 1-1v-2c0-.55228475-.4477153-1-1-1s-1 .44771525-1 1z"/></g></svg>