<?xml version="1.0" encoding="UTF-8"?>
<svg width="22px" height="22px" viewBox="0 0 22 22" version="1.1" xmlns="http://www.w3.org/2000/svg" xmlns:xlink="http://www.w3.org/1999/xlink">
    <title>A415C29C-A18E-40F8-BBD9-522844FBD641@0.0x</title>
    <g id="页面-1" stroke="none" stroke-width="1" fill="none" fill-rule="evenodd">
        <g id="画板备份" transform="translate(-166.000000, -141.000000)" fill-rule="nonzero">
            <g id="ic_zz_gys" transform="translate(166.000000, 141.000000)">
                <rect id="矩形" fill="#000000" opacity="0" x="0" y="0" width="22" height="22"></rect>
                <path d="M9.23043945,15.5434727 C9.56520898,13.0565273 11.1913184,11.6217363 11.9086816,11.0478242 L11.9565273,11.0478242 C12.0521758,11 12.1478242,10.9521758 12.2434727,10.8565273 C14.3478242,9.99564844 15.8304395,8.03476953 15.8304395,5.59564844 C15.8782422,2.53476953 13.2956484,0 10.1391211,0 C6.93479102,0 4.4,2.53479102 4.4,5.64347266 C4.4,8.03479102 5.97824219,10.0912969 8.08261523,10.9043516 C7.03043945,11.1912969 6.07391211,11.6217363 5.30870312,12.1 C1.67391211,14.3 0.956527344,17.3608789 0.956527344,21.6173848 C0.956527344,21.9043516 1.33912109,22 1.67391211,22 L12.7695605,22 L11.765209,21.5217578 C10.7608789,21.0434512 8.75217578,18.7 9.23043945,15.5434512 L9.23043945,15.5434727 Z M16.1173848,15.4956484 L16.8826152,15.4956484 L16.8826152,16.6434727 L16.1173633,16.6434727 L16.1173848,15.4956484 Z M15.6391426,11.0956484 C12.6739121,11.0956484 10.234791,13.4869668 10.234791,16.4521758 C10.234791,19.4173848 12.6739121,21.8087031 15.6391211,21.8087031 C18.6043516,21.8087031 21.0434727,19.4173848 21.0434727,16.4521758 C21.0434727,13.4869668 18.7,11.0956484 15.6391211,11.0956484 L15.6391426,11.0956484 Z M14.2043516,19.2739121 L13.2478242,19.2739121 L13.2478242,16.7391211 L12.8173848,17.3130332 C12.8173848,17.1695605 12.7695605,16.9782637 12.7695605,16.7391211 C12.7217363,16.3565273 12.6739121,16.0695605 12.6739121,15.8782422 C13.1043516,15.2565273 13.4391211,14.4434727 13.6782637,13.4869668 L14.6826152,13.7260879 C14.5391211,14.1565273 14.3956484,14.5869668 14.2043516,14.9695605 L14.2043516,19.2739121 L14.2043516,19.2739121 Z M18.6043516,17.5043516 L17.3608789,17.5043516 C17.5521758,17.6956484 17.8391211,17.934791 18.1739121,18.2695605 C18.3173848,18.4608789 18.4608789,18.5565273 18.5565273,18.6521758 L17.7912969,19.3217363 C17.265209,18.8434941 16.8826152,18.4130332 16.5478242,18.0782637 L17.2173848,17.5521758 L15.5434727,17.5521758 L16.3087031,18.0782637 C16.2130332,18.2217363 16.0217363,18.365209 15.8304395,18.6043516 C15.4956484,18.9391211 15.2565273,19.2260879 15.065209,19.4173848 L14.3956484,18.6521758 C14.6347695,18.4608789 14.9695605,18.1260879 15.4478242,17.6 L15.5434727,17.5043516 L14.4434727,17.5043516 L14.4434727,16.5956484 L15.2087031,16.5956484 L15.2087031,15.4478242 L14.5869453,15.4478242 L14.5869453,14.5391211 L15.2087031,14.5391211 L15.2087031,13.4869668 L16.165209,13.4869668 L16.165209,14.5391211 L16.9304395,14.5391211 L16.9304395,13.4869668 L17.8869668,13.4869668 L17.8869668,14.5391211 L18.5087031,14.5391211 L18.5087031,15.4478242 L17.8869453,15.4478242 L17.8869453,16.5956484 L18.6521758,16.5956484 L18.6521758,17.5043516 L18.6043516,17.5043516 Z" id="形状" fill="#184FAE"></path>
            </g>
        </g>
    </g>
</svg>