<?xml version="1.0" encoding="UTF-8"?>
<svg width="22px" height="22px" viewBox="0 0 22 22" version="1.1" xmlns="http://www.w3.org/2000/svg" xmlns:xlink="http://www.w3.org/1999/xlink">
    <title>1ED49D13-81D4-4297-BDCD-1593B13E5050@0.0x</title>
    <g id="页面-1" stroke="none" stroke-width="1" fill="none" fill-rule="evenodd">
        <g id="画板备份" transform="translate(-494.000000, -141.000000)" fill-rule="nonzero">
            <g id="ic_zz_jmbs" transform="translate(494.000000, 141.000000)">
                <rect id="矩形" fill="#000000" opacity="0" x="0" y="0" width="22" height="22"></rect>
                <path d="M4.21276671,1.00045007 C4.50747685,1.00045007 4.78639604,1.21463832 4.84251681,1.52846249 C4.95392617,1.99987383 5.34259038,2.33215067 5.80690093,2.33215067 C6.27121147,2.33215067 6.65987568,1.99766637 6.77126475,1.52846249 C6.84526703,1.21463832 7.10423443,1.00045007 7.40103514,1.00045007 L9.62698972,1.00045007 C9.92129392,1.00045007 10.2006191,1.21463832 10.2567398,1.52846249 C10.3681492,1.99987383 10.7568134,2.33215067 11.2211239,2.33215067 C11.6854345,2.33215067 12.0740987,1.99766637 12.1854878,1.52846249 C12.2615603,1.21463832 12.5205277,1.00045007 12.8173284,1.00045007 L14.8583382,1.00045007 C15.1547127,1.00045007 15.4340581,1.21463832 15.4905848,1.52846249 C15.6015679,1.99987383 15.9902321,2.33215067 16.4549486,2.33215067 C16.9192795,2.33215067 17.3074971,1.99766637 17.4193327,1.52846249 C17.4929088,1.21508839 17.7518762,1 18.0486769,1 L18.8455309,1 C20.0156641,1 20.9800482,2.01828365 20.9800482,3.25167712 L20.9800482,10.8189791 C20.9933426,10.9418898 21,11.0647791 21,11.1920618 L21,18.0552865 C21,19.6748789 19.7454725,21 18.2116199,21 L3.15446911,21 C1.98683242,21 1.02244831,19.9816949 1.02244831,18.7483443 L1.02244831,18.4323127 C1.00665736,18.3103021 1,18.1852054 1,18.0601086 L1,11.1946979 C1,11.0674152 1.00665736,10.9445259 1.02202207,10.8216152 L1.02202207,3.25210575 C1.02202207,2.01873371 1.98683242,1.00045007 3.15444881,1.00045007 Z M10.0019635,5.57107227 C9.68806413,5.27823893 9.18352835,5.27823893 8.86962901,5.57107227 L6.55005685,8.6624043 L4.35799388,5.58735742 C4.04409455,5.29452408 3.53955877,5.29452408 3.22565943,5.58735742 C2.91541421,5.88392621 2.91541421,6.36131207 3.22565943,6.65788086 L4.81783148,9.16357031 L3.84076844,9.16357031 C3.39946639,9.16454851 3.04183378,9.5022654 3.04028516,9.91947656 C3.04130969,10.3370402 3.39909515,10.6753047 3.84076844,10.6762852 L5.74023365,10.6762852 L5.74023365,11.7344766 L3.84076844,11.7344766 C3.39927265,11.7356931 3.04176312,12.0738888 3.04073965,12.4912852 C3.04228707,12.9083375 3.3996577,13.2459892 3.84079116,13.2471914 L5.74025637,13.2471914 L5.74025637,16.3028809 C5.74127857,16.7201018 6.09849855,17.0582253 6.53980793,17.0596895 C6.98131325,17.0587218 7.33903968,16.7207147 7.34031394,16.3033105 L7.34031394,13.2471914 L9.23977915,13.2471914 C9.68109007,13.246225 10.0387365,12.9085047 10.0402852,12.4912852 C10.0384217,12.0737148 9.68145958,11.7362383 9.23977915,11.7349277 L7.33985944,11.7349277 L7.33985944,10.6762852 L9.23932465,10.6762852 C9.68063477,10.6750698 10.0380679,10.337148 10.0393534,9.91992773 C10.0379672,9.50280859 9.68052786,9.16488086 9.23932465,9.164 L8.28462288,9.164 L10.0019635,6.6415957 C10.3122087,6.34502692 10.3122087,5.86764105 10.0019635,5.57107227 Z M18.1950157,15.1978086 L13.1006895,15.1978086 C12.683293,15.1987762 12.3450974,15.5367703 12.3438809,15.954166 C12.3450974,16.3715618 12.683293,16.7095558 13.1006895,16.7105234 L18.1950157,16.7105234 C18.6120764,16.7090723 18.9497411,16.3712061 18.9509434,15.9545957 C18.9500625,15.5370469 18.6121348,15.1991191 18.1950157,15.1978086 Z M15.6531084,5.14779785 C15.2355532,5.14877827 14.8973017,5.48702976 14.8963213,5.90458496 L14.8958809,7.69979785 L13.1006895,7.70023828 C12.6834601,7.70120474 12.3453332,8.0389381 12.3438809,8.45616602 C12.3448613,8.87372122 12.6831128,9.21197271 13.100668,9.21295313 L14.8958809,9.21279785 L14.8963213,11.0094873 C14.8977854,11.4266985 15.2358958,11.7644154 15.6531084,11.7653936 L15.7552496,11.7583012 C16.1241393,11.7076449 16.4078151,11.3918465 16.4090361,11.0094873 L16.4088809,9.21279785 L18.2055703,9.21295313 C18.6227815,9.21148904 18.9604984,8.8733786 18.9614766,8.4565957 C18.9605957,8.03904688 18.6226895,7.70157031 18.2055703,7.70023828 L16.4088809,7.69979785 L16.4090361,5.90460645 C16.4080697,5.48737712 16.0703363,5.14925021 15.6531084,5.14779785 Z" id="形状结合" fill="#21BD7F"></path>
            </g>
        </g>
    </g>
</svg>