<?xml version="1.0" encoding="UTF-8"?>
<svg width="22px" height="22px" viewBox="0 0 22 22" version="1.1" xmlns="http://www.w3.org/2000/svg" xmlns:xlink="http://www.w3.org/1999/xlink">
    <title>保险服务</title>
    <g id="页面-1" stroke="none" stroke-width="1" fill="none" fill-rule="evenodd">
        <g id="画板备份" transform="translate(-285.000000, -760.000000)" fill="#1850AE" fill-rule="nonzero">
            <g id="保险服务" transform="translate(285.000000, 760.000000)">
                <rect id="矩形" opacity="0" x="0" y="0" width="22" height="22"></rect>
                <path d="M7.49800391,5.20800586 C7.09399023,5.16299609 6.8695,5.34299219 6.77950195,5.65700781 C6.51000195,7.09399023 6.15099805,8.261 5.65700781,9.20399219 C5.43249609,9.56349023 5.34299219,9.87750586 5.34299219,10.1019961 C5.478,10.6409961 5.79201562,10.7755098 6.3305,10.5060098 L6.3305,15.220498 C6.37550977,15.6244902 6.55550586,15.8040137 6.95900391,15.8040137 C7.36349023,15.7590039 7.54299219,15.579502 7.58800195,15.1755098 L7.58800195,7.90199609 C7.72249414,7.45299414 7.85698633,6.77950195 8.03650977,5.83700391 C8.03650977,5.47750586 7.85700781,5.25299414 7.49800391,5.20800586 L7.49800391,5.20800586 Z M16.0285039,10.7305 C16.0285039,10.3265078 15.849002,10.1469844 15.4449883,10.1019961 L12.4370254,10.1019961 L12.4370254,9.51848047 L14.3220215,9.51848047 C14.9960293,9.56349023 15.3550117,9.24900195 15.2655293,8.57550977 L15.2655293,6.55550586 C15.3105176,5.88149805 14.9955137,5.52249414 14.2325176,5.56750391 L9.5635332,5.56750391 C8.80002148,5.52249414 8.3960293,5.83648828 8.44101758,6.51000195 L8.44101758,8.57550977 C8.35101953,9.29399023 8.75501172,9.60800586 9.60802734,9.51850195 L11.1345137,9.51850195 L11.1345137,10.1020176 L8.62049805,10.1020176 C8.17149609,10.1470059 7.94700586,10.327002 7.90199609,10.7305 C7.94700586,11.1344922 8.17149609,11.3145098 8.62049805,11.3590039 L10.6854902,11.3590039 C10.011998,12.3470059 9.11450977,13.2450098 8.12648633,14.0529941 C7.76748242,14.3675039 7.72249414,14.6370039 7.9915,14.950998 C8.35149219,15.220498 8.71000195,15.220498 9.0695,14.950998 C9.74299219,14.5470059 10.461,13.8285039 11.1344922,12.8860059 L11.1344922,15.220498 C11.179502,15.6244902 11.4045078,15.8040137 11.8080059,15.8040137 C12.2124922,15.7590039 12.3919941,15.5344922 12.4365098,15.1305 L12.4365098,12.9305 C13.289998,13.8734922 14.0080059,14.5469844 14.5464902,14.9059883 C15.0409961,15.310002 15.489998,15.310002 15.8039922,14.9059883 C15.9840098,14.681498 15.939,14.4124922 15.6690059,14.1429922 C14.4124922,13.2 13.4690059,12.3019961 12.7060098,11.3590039 L15.3099805,11.3590039 C15.8039707,11.3139941 15.9834727,11.1344922 16.0285039,10.7305 L16.0285039,10.7305 Z M10.0570078,8.30598828 C9.83249609,8.35099805 9.69800391,8.261 9.74299219,8.03650977 L9.74299219,7.04900195 C9.69800391,6.86900586 9.83301172,6.77950195 10.0570078,6.77950195 L13.739,6.77950195 C13.918502,6.77950195 14.0079844,6.8695 14.0079844,7.04900195 L14.0079844,8.08149805 C14.0529941,8.26149414 13.9629961,8.35099805 13.739,8.30650391 L10.0570078,8.30650391 L10.0570078,8.30598828 Z" id="形状"></path>
                <path d="M18.9019961,2.69399023 L11.9429922,0.403992187 C11.3271631,0.224356552 10.6728369,0.224356552 10.0570078,0.403992187 L3.09800391,2.69401172 C2.02049805,3.05301563 1.30199609,4.04099609 1.30199609,5.20800586 L1.30199609,10.2370039 C1.30199609,13.5145098 2.87349219,16.611998 5.43249609,18.5429922 C5.47750586,18.588002 5.56750391,18.6330117 5.65750195,18.678 C5.83700391,18.7675039 5.97149609,18.9019961 6.19600781,19.0370039 C6.73449219,19.4409961 7.27349219,19.8 7.81249219,20.1590039 C7.85750195,20.2039922 7.85750195,20.2039922 7.94698437,20.2039922 C10.1919941,21.7755098 10.5059883,21.9549902 11,21.9549902 C11.539,21.9549902 11.8529941,21.7305 14.0529941,20.2040137 C14.1430137,20.2040137 14.1430137,20.2040137 14.188002,20.1590039 C14.7265078,19.8 15.2655078,19.3960078 15.8039922,19.0370039 C15.9840098,18.9019961 16.1634902,18.7670098 16.3429922,18.6775059 C16.4330117,18.5874863 16.5224941,18.542498 16.5224941,18.542498 C19.1265078,16.6124922 20.6979824,13.5145098 20.6979824,10.2370039 L20.6979824,5.16349023 C20.6979824,4.04099609 19.979502,3.0085 18.9019961,2.69349609 L18.9019961,2.69399023 Z M19.0819922,10.2370039 C19.0819922,12.9755098 17.779502,15.579502 15.579502,17.1960078 C15.579502,17.1960078 11.2695,20.2939902 10.9549902,20.2939902 C10.6854902,20.2939902 6.3305,17.1960078 6.3305,17.1960078 C4.22051953,15.579502 2.91850195,12.9755098 2.91850195,10.2370039 L2.91850195,5.47750586 C2.91850195,4.89399023 3.27750586,4.35499023 3.861,4.17550977 L10.461,2.02049805 C10.8230413,1.88579608 11.2214528,1.88579608 11.5834941,2.02049805 L18.1834941,4.17550977 C18.7224941,4.35550586 19.1265078,4.89399023 19.1265078,5.47750586 L19.1265078,10.2370039 L19.081498,10.2370039 L19.0819922,10.2370039 Z" id="形状"></path>
            </g>
        </g>
    </g>
</svg>