<?xml version="1.0" encoding="UTF-8"?>
<svg width="22px" height="22px" viewBox="0 0 22 22" version="1.1" xmlns="http://www.w3.org/2000/svg" xmlns:xlink="http://www.w3.org/1999/xlink">
    <title>B8BE639F-F64A-48B3-B8DF-82B19478847D@0.0x</title>
    <g id="页面-1" stroke="none" stroke-width="1" fill="none" fill-rule="evenodd">
        <g id="画板备份" transform="translate(-166.000000, -53.000000)">
            <g id="ic_zc_sbxq" transform="translate(166.000000, 53.000000)">
                <rect id="矩形" fill-opacity="0" fill="#D8D8D8" x="0" y="0" width="22" height="22"></rect>
                <g id="扳手备份" transform="translate(10.847222, 11.000000) scale(-1, 1) translate(-10.847222, -11.000000) translate(0.687500, 0.000000)" fill="#1850AE" fill-rule="nonzero">
                    <path d="M18.6898148,0 C19.5861111,0 20.3194444,0.733333333 20.3194444,1.62962963 L20.3194444,17.0092593 C20.3194444,19.7541667 18.0736111,22 15.3287037,22 L12.375,22 L12.375,19.962 L15.3287037,19.962963 C16.0416667,19.962963 16.7188552,19.7104377 17.2569636,19.2417355 L17.4141204,19.0946759 C17.9743056,18.5319444 18.2824074,17.7935185 18.2824074,17.0092593 L18.2824074,2.85185185 C18.2824074,2.40115741 17.918287,2.03703704 17.4675926,2.03703704 L2.85185185,2.03703704 C2.40115741,2.03703704 2.03703704,2.40115741 2.03703704,2.85185185 L2.037,8.937 L0,8.937 L0,1.62962963 C0,0.780506823 0.658171745,0.0776444034 1.48954658,0.00601102633 L1.62962963,0 Z" id="形状"></path>
                </g>
                <path d="M15.9943056,18.1296296 C16.7396343,18.1296296 17.3438426,18.7338379 17.3438426,19.4791667 C17.3438426,20.2244954 16.7396343,20.8287037 15.9943056,20.8287037 C15.2746244,20.8287037 14.6865186,20.2653629 14.646896,19.5555892 L9.04197357,19.5555562 C9.04260045,19.5724538 9.04291667,19.5894307 9.04291667,19.6064815 C9.04291667,20.3518102 8.43870835,20.9560185 7.69337963,20.9560185 C6.9480509,20.9560185 6.34384259,20.3518102 6.34384259,19.6064815 C6.34384259,18.8611528 6.9480509,18.2569444 7.69337963,18.2569444 C8.24873803,18.2569444 8.7257461,18.5924021 8.93282838,19.0717418 L14.7073505,19.0717677 C14.8800988,18.5255571 15.3909652,18.1296296 15.9943056,18.1296296 Z M7.69337963,19.1226852 C7.42618631,19.1226852 7.20958333,19.3392882 7.20958333,19.6064815 C7.20958333,19.8736748 7.42618631,20.0902778 7.69337963,20.0902778 C7.96057295,20.0902778 8.17717593,19.8736748 8.17717593,19.6064815 C8.17717593,19.3392882 7.96057295,19.1226852 7.69337963,19.1226852 Z M15.9943056,18.9953704 C15.7271122,18.9953704 15.5105093,19.2119734 15.5105093,19.4791667 C15.5105093,19.74636 15.7271122,19.962963 15.9943056,19.962963 C16.2614989,19.962963 16.4781019,19.74636 16.4781019,19.4791667 C16.4781019,19.2119734 16.2614989,18.9953704 15.9943056,18.9953704 Z M18.7810049,13.087963 L20.7558796,16.9838073 L20.7558796,19.25 C20.7558796,19.3906281 20.6418781,19.5046516 20.50125,19.5046516 L17.5982739,19.5046516 C17.5984059,19.4961725 17.5984722,19.4876773 17.5984722,19.4791667 C17.5984722,18.5932099 16.8802623,17.875 15.9943056,17.875 C15.6645181,17.875 15.3579739,17.9745164 15.1030648,18.1451574 L15.1030648,13.3425926 C15.1030648,13.2019645 15.2171034,13.087963 15.3577315,13.087963 L18.7810049,13.087963 Z M14.7975463,16.3981481 L14.5429167,18.9953704 L9.17703578,18.9953704 C8.93670836,18.4125369 8.36295025,18.0023148 7.69337963,18.0023148 C7.02380901,18.0023148 6.4500509,18.4125369 6.20972348,18.9953704 L5.37625,18.9953704 L5.37625,16.3981481 L14.7975463,16.3981481 Z M15.3813973,8.65147892 L15.3813973,8.74052291 L6.32801289,12.4400289 L6.32801289,12.7629812 L15.3813973,9.17280763 L15.3813973,10.1790449 L8.35920362,13.2857984 L11.1060263,15.4559974 L11.6401389,15.4560185 C12.1182743,15.4560185 12.5058796,15.8436239 12.5058796,16.3217593 L7.87162037,16.3217593 C7.87162037,15.8436239 8.2592257,15.4560185 8.73736111,15.4560185 L9.12309804,15.4559974 L6.13843137,12.7910048 L6.13843137,12.3522045 L15.3813973,8.65147892 Z M17.618416,14.3652857 L16.5799537,14.3652857 C16.5237025,14.3652857 16.4781019,14.4108863 16.4781019,14.4671375 L16.4781019,16.3472222 C16.4781019,16.4034734 16.5237025,16.4490741 16.5799537,16.4490741 L18.4836409,16.4490741 C18.5000326,16.4490741 18.5161822,16.4451178 18.5307179,16.4375414 C18.5805998,16.4115415 18.59996,16.3500272 18.5739601,16.3001452 L17.7087352,14.4200605 C17.6911889,14.3863974 17.6563775,14.3652857 17.618416,14.3652857 Z M21.2396759,4.72801562 C21.3521784,4.72801562 21.4433796,4.81921687 21.4433796,4.93171932 L21.4433796,9.97338599 C21.4433796,10.0858884 21.3521784,10.1770897 21.2396759,10.1770897 L15.3831944,10.1770897 L15.3831944,4.93171932 C15.3831944,4.81921687 15.4743957,4.72801562 15.5868981,4.72801562 L21.2396759,4.72801562 Z M20.0462587,6.24280237 L19.0837587,6.24280237 L19.0837587,9.04808012 L20.0462587,9.04808012 L20.0462587,6.24280237 Z M17.7775087,6.24280237 L16.8150087,6.24280237 L16.8150087,9.04808012 L17.7775087,9.04808012 L17.7775087,6.24280237 Z" id="形状" fill="#1850AE" transform="translate(13.409815, 12.842017) scale(-1, 1) translate(-13.409815, -12.842017) "></path>
            </g>
        </g>
    </g>
</svg>