<?xml version="1.0" encoding="UTF-8"?>
<svg width="22px" height="22px" viewBox="0 0 22 22" version="1.1" xmlns="http://www.w3.org/2000/svg" xmlns:xlink="http://www.w3.org/1999/xlink">
    <title>FCB315A6-E03F-4975-BD90-39A6E0FC13A9@0.0x</title>
    <g id="页面-1" stroke="none" stroke-width="1" fill="none" fill-rule="evenodd">
        <g id="画板备份" transform="translate(-248.000000, -53.000000)">
            <g id="ic_zc_dbd" transform="translate(248.000000, 53.000000)">
                <rect id="矩形" fill-opacity="0" fill="#D8D8D8" x="0" y="0" width="22" height="22"></rect>
                <path d="M19.5010648,0 L2.44087963,0 C1.54458333,0 0.81125,0.733333333 0.81125,1.62962963 L0.81125,20.3703704 C0.81125,21.2666667 1.54458333,22 2.44087963,22 L16.1399537,22 C18.8848611,22 21.1306944,19.7541667 21.1306944,17.0092593 L21.1306944,1.62962963 C21.1306944,0.733333333 20.3973611,0 19.5010648,0 Z M19.0936574,17.0092593 C19.0936574,17.7935185 18.7855556,18.5319444 18.2253704,19.0946759 C17.6651852,19.6574074 16.924213,19.962963 16.1399537,19.962963 L3.66310185,19.962963 C3.21240741,19.962963 2.84828704,19.5988426 2.84828704,19.1481481 L2.84828704,2.85185185 C2.84828704,2.40115741 3.21240741,2.03703704 3.66310185,2.03703704 L18.2788426,2.03703704 C18.729537,2.03703704 19.0936574,2.40115741 19.0936574,2.85185185 L19.0936574,17.0092593 Z" id="形状" fill="#1850AE" fill-rule="nonzero"></path>
                <path d="M8.9375,3.9875 C9.54501322,3.9875 10.0375,4.36495535 10.0375,5.0542891 L10.0375,16.669162 C10.0375,17.3584957 9.54501322,17.7375 8.9375,17.7375 C8.32998678,17.7375 7.8375,17.3584957 7.8375,16.669162 L7.8375,5.0542891 C7.8375,4.36495535 8.32998678,3.9875 8.9375,3.9875 Z" id="矩形" fill="#1850AE" fill-rule="nonzero"></path>
                <path d="M6.78429368,3.09340593 C7.39180691,3.09340593 7.88429368,3.50809514 7.88429368,4.2654278 L7.88429368,10.1696823 C7.88429368,10.927015 7.39180691,11.3434059 6.78429368,11.3434059 C6.17678046,11.3434059 5.68429368,10.927015 5.68429368,10.1696823 L5.68429368,4.2654278 C5.68429368,3.50809514 6.17678046,3.09340593 6.78429368,3.09340593 Z" id="矩形" fill="#1850AE" fill-rule="nonzero" transform="translate(6.784294, 7.218406) rotate(45.000000) translate(-6.784294, -7.218406) "></path>
                <path d="M15.2219262,10.3462549 C15.8294394,10.3462549 16.3219262,10.7620715 16.3219262,11.521463 L16.3219262,17.4417687 C16.3219262,18.2011603 15.8294394,18.6186832 15.2219262,18.6186832 C14.6144129,18.6186832 14.1219262,18.2011603 14.1219262,17.4417687 L14.1219262,11.521463 C14.1219262,10.7620715 14.6144129,10.3462549 15.2219262,10.3462549 Z" id="矩形" fill="#1850AE" fill-rule="nonzero" transform="translate(15.221926, 14.482469) scale(-1, -1) rotate(45.000000) translate(-15.221926, -14.482469) "></path>
                <path d="M13.0625,3.9875 C12.4549868,3.9875 11.9625,4.36231131 11.9625,5.05266725 L11.9625,16.6300262 C11.9625,17.3203821 12.4549868,17.7375 13.0625,17.7375 C13.6700132,17.7375 14.1625,17.3203821 14.1625,16.6300262 L14.1625,5.05266725 C14.1625,4.36231131 13.6700132,3.9875 13.0625,3.9875 Z" id="矩形" fill="#1850AE" fill-rule="nonzero"></path>
            </g>
        </g>
    </g>
</svg>