<?xml version="1.0" encoding="UTF-8"?>
<svg width="22px" height="22px" viewBox="0 0 22 22" version="1.1" xmlns="http://www.w3.org/2000/svg" xmlns:xlink="http://www.w3.org/1999/xlink">
    <title>ic_进场</title>
    <g id="高车进场" stroke="none" stroke-width="1" fill="none" fill-rule="evenodd">
        <g id="高车进场-门店接收任务" transform="translate(-258.000000, -122.000000)">
            <g id="编组-19备份" transform="translate(226.000000, 102.000000)">
                <g id="ic_进场" transform="translate(32.000000, 20.000000)">
                    <rect id="矩形" fill-opacity="0" fill="#D8D8D8" x="0" y="0" width="22" height="22"></rect>
                    <path d="M1.9316206,20.8617958 L11.9003705,21.5724654 C14.2402161,20.2215548 15.6816206,17.7249692 15.6816206,15.0231482 C15.6816206,12.3213272 14.2402161,9.82474164 11.9003705,8.47383113 C9.56052483,7.12292061 6.67771613,7.12292061 4.33787051,8.47383113 C1.99802488,9.82474164 1.9316206,12.3213272 1.9316206,15.0231482 C1.9316206,16.8243622 1.9316206,18.7705781 1.9316206,20.8617958 Z" id="路径" fill-opacity="0.15081563" fill="#2C5CD7" fill-rule="nonzero"></path>
                    <path d="M19.5010648,0 L2.44087963,0 C1.54458333,0 0.81125,0.733333333 0.81125,1.62962963 L0.81125,20.3703704 C0.81125,21.2666667 1.54458333,22 2.44087963,22 L16.1399537,22 C18.8848611,22 21.1306944,19.7541667 21.1306944,17.0092593 L21.1306944,1.62962963 C21.1306944,0.733333333 20.3973611,0 19.5010648,0 Z M19.0936574,17.0092593 C19.0936574,17.7935185 18.7855556,18.5319444 18.2253704,19.0946759 C17.6651852,19.6574074 16.924213,19.962963 16.1399537,19.962963 L3.66310185,19.962963 C3.21240741,19.962963 2.84828704,19.5988426 2.84828704,19.1481481 L2.84828704,2.85185185 C2.84828704,2.40115741 3.21240741,2.03703704 3.66310185,2.03703704 L18.2788426,2.03703704 C18.729537,2.03703704 19.0936574,2.40115741 19.0936574,2.85185185 L19.0936574,17.0092593 Z" id="形状" fill="#1850AE" fill-rule="nonzero"></path>
                    <path d="M8.43583718,14.3803918 C8.31247397,14.3803918 8.18911076,14.3382878 8.09315373,14.2400371 L4.26891784,10.3103583 C4.07702739,10.1138689 4.07702739,9.80511023 4.26891784,9.60862085 L8.09315373,5.69297266 C8.2850678,5.49649536 8.58660657,5.49649536 8.77850883,5.69297266 C8.97041109,5.88944995 8.97039929,6.1982207 8.77850883,6.39471008 L5.31064768,9.95949561 L8.79221192,13.5242811 C8.98411418,13.7207584 8.98411418,14.0295171 8.79221192,14.2260065 C8.69625489,14.3242572 8.55920039,14.3803918 8.43583718,14.3803918 Z M11.7529053,14.2961838 C11.5747298,14.4786305 11.3005854,14.4786305 11.122398,14.2961838 L7.20220509,10.2822849 C7.02401772,10.0998383 7.02401772,9.81914087 7.20220509,9.6367063 L11.122398,5.63682593 C11.3005854,5.45439136 11.5747298,5.45439136 11.7529053,5.63682593 M11.7391905,11.9383717 C11.7391905,11.9383717 17.153445,11.503301 16.2076604,17.875 C16.2076604,17.875 18.7571549,14.8575665 17.5509408,11.6436316 C16.9478396,10.4787622 16.2213635,8.07885815 11.7391905,8.05078479 L11.7391905,11.9383838 L11.7391905,11.9383717 Z" id="形状" fill="#1850AE" fill-rule="nonzero" transform="translate(11.000000, 11.687500) scale(-1, 1) translate(-11.000000, -11.687500) "></path>
                </g>
            </g>
        </g>
    </g>
</svg>