<?xml version="1.0" standalone="no"?><!DOCTYPE svg PUBLIC "-//W3C//DTD SVG 1.1//EN" "http://www.w3.org/Graphics/SVG/1.1/DTD/svg11.dtd"><svg t="1677561224871" class="icon" viewBox="0 0 1102 1024" version="1.1" xmlns="http://www.w3.org/2000/svg" p-id="3545" xmlns:xlink="http://www.w3.org/1999/xlink" width="215.234375" height="200"><path d="M476.977568 0a78.70917 78.70917 0 0 0-58.402204 27.154664c-15.584416 17.316017-24.242424 40.928768-24.242424 65.564738V314.836678H164.187328L0 550.964187v224.950807c0 51.16096 36.99331 92.640693 82.644628 92.640693h19.677293a157.418339 157.418339 0 0 0 314.443132 8.972845l0.393546-9.051554h299.094845l0.393545 9.051554a157.418339 157.418339 0 0 0 314.049587 0l0.314837-9.917355c40.141677-6.296734 70.916962-45.021645 70.916962-91.696183v-683.195592C1101.928375 41.401023 1064.935065 0 1019.283747 0H476.977568zM259.74026 787.091696a78.70917 78.70917 0 1 1 0 157.418339 78.70917 78.70917 0 0 1 0-157.418339z m613.931523 0a78.70917 78.70917 0 1 1 0 157.418339 78.70917 78.70917 0 0 1 0-157.418339zM498.54388 78.70917h498.465172c13.380559 0 24.478552 12.27863 25.974026 28.571428L1023.219205 110.979929v643.683589c0 12.593467-5.903188 23.927588-15.033451 29.201102a157.260921 157.260921 0 0 0-264.856356-6.375443l-5.903188 9.366392-17.473436 0.157418H498.465171c-13.380559 0-24.478552-12.35734-25.974026-28.571429L472.255018 754.742227V110.979929c0-8.579299 2.754821-16.765053 7.713498-22.825659A24.006297 24.006297 0 0 1 498.54388 78.70917z m-295.159386 314.836678H393.545848v389.374262l-7.319953-10.861865-4.329004-5.588351-7.083825-8.028336-5.824479-5.981896-9.996064-8.815427-8.185754-6.296734-10.861865-7.083825-9.445101-5.116096-10.704447-4.879969-11.33412-4.171586-12.121212-3.463203-4.329005-0.94451-11.648957-1.96773-8.421881-0.8658A159.543487 159.543487 0 0 0 259.74026 708.382527l-14.639906 0.708382-10.153483 1.259347-11.648957 2.282566-13.065722 3.699331-12.987013 4.958677-5.66706 2.597403-6.926407 3.541913-10.074774 5.981897-11.963794 8.50059-3.77804 3.069657-8.736718 7.870917-8.50059 8.894137-5.66706 6.847697-8.421881 11.727667-4.092877 6.768988H110.192837c-15.977961 0-29.437229-13.144431-31.326249-30.539158L78.70917 752.459662V570.64148L203.384494 393.545848z" p-id="3546"></path><path d="M633.608815 236.127509a39.354585 39.354585 0 0 0 0 78.709169h236.127509a39.354585 39.354585 0 0 0 0-78.709169h-236.127509z" p-id="3547"></path></svg>