<?xml version="1.0" standalone="no"?><!DOCTYPE svg PUBLIC "-//W3C//DTD SVG 1.1//EN" "http://www.w3.org/Graphics/SVG/1.1/DTD/svg11.dtd"><svg t="1684477843065" class="icon" viewBox="0 0 1024 1024" version="1.1" xmlns="http://www.w3.org/2000/svg" p-id="13308" xmlns:xlink="http://www.w3.org/1999/xlink" width="200" height="200"><path d="M468.224 810.24l-93.632 30.976v-175.36l92.032-30.464c8.32-27.008 20.8-52.416 36.352-75.2l-158.4 52.416-172.8-57.216 172.8-57.216 164.032 54.208a284.864 284.864 0 0 1 298.624-108.992l0.192-0.192 1.152-1.216c0.192-0.384 0.64-0.64 0.832-0.96 0.384-0.448 0.64-0.832 0.768-1.28 0.192-0.32 0.64-0.768 0.832-1.152l0.64-1.216c0.128-0.384 0.576-0.96 0.768-1.344 0.192-0.448 0.384-0.832 0.64-1.024a6.016 6.016 0 0 1 0.768-1.6c0.192-0.384 0.192-0.832 0.384-1.216l0.64-1.6c0.128-0.384 0.128-0.768 0.384-1.408 0.192-0.384 0.192-0.96 0.384-1.408 0.192-0.576 0.192-1.152 0.192-1.792l0.192-1.152c0-0.832 0-1.408 0.192-2.24V183.424c0-1.024 0-1.856-0.192-2.816 0-0.384 0-0.64-0.192-1.024 0-0.64-0.192-1.152-0.192-1.792 0-0.384-0.192-0.768-0.192-0.96-0.192-0.64-0.192-1.024-0.448-1.664 0-0.384-0.192-0.576-0.192-0.96-0.192-0.832-0.64-1.6-0.768-2.432-0.192-0.192-0.192-0.576-0.384-0.768a6.016 6.016 0 0 0-0.832-1.6l-0.64-1.024c-0.128-0.384-0.576-0.96-0.768-1.408-0.192-0.192-0.384-0.576-0.64-0.768a8.704 8.704 0 0 0-1.152-1.408c-0.192-0.192-0.384-0.384-0.384-0.64-0.64-0.576-1.216-1.344-1.792-1.92l-0.192-0.256-1.6-1.6-0.64-0.64a6.08 6.08 0 0 0-1.408-0.96c-0.192-0.192-0.64-0.384-0.768-0.64-0.448-0.32-1.024-0.576-1.408-0.768l-0.832-0.576c-0.576-0.192-1.152-0.64-1.792-0.832l-1.408-0.576c-0.384-0.192-0.96-0.384-1.344-0.64l-0.448-0.128h-0.192L526.784 66.56a30.208 30.208 0 0 0-18.752 0L240.192 154.88H240l-0.384 0.256c-0.448 0.192-1.024 0.384-1.408 0.64a9.728 9.728 0 0 0-1.408 0.576c-0.64 0.192-1.216 0.64-1.6 0.768a2.752 2.752 0 0 0-0.768 0.64l-1.408 0.768c-0.192 0.192-0.64 0.384-0.832 0.64a6.08 6.08 0 0 1-1.408 0.96l-0.64 0.64a6.08 6.08 0 0 0-1.536 1.6l-0.192 0.192a18.048 18.048 0 0 0-1.792 1.92c-0.192 0.256-0.448 0.448-0.448 0.64a6.08 6.08 0 0 0-0.96 1.408c-0.192 0.192-0.384 0.64-0.64 0.832l-0.768 1.408-0.64 0.96c-0.192 0.64-0.576 1.024-0.768 1.6-0.192 0.192-0.192 0.64-0.384 0.832-0.384 0.768-0.64 1.6-0.832 2.368-0.192 0.384-0.192 0.64-0.192 1.024l-0.384 1.6c0 0.384-0.192 0.768-0.192 0.96-0.192 0.64-0.192 1.28-0.192 1.856 0 0.384 0 0.576-0.192 0.96 0 1.024-0.256 1.792-0.256 2.816v239.36c0 0.832 0 1.408 0.192 2.048 0 0.384 0.256 0.768 0.256 1.152 0 0.64 0.192 1.28 0.192 1.664 0 0.384 0.192 0.96 0.384 1.344 0.192 0.448 0.192 0.832 0.384 1.408l0.64 1.6c0.192 0.384 0.192 0.832 0.384 1.024 0.192 0.64 0.384 0.96 0.768 1.6a4.352 4.352 0 0 0 0.64 1.024c0.192 0.384 0.64 0.96 0.768 1.344a4.352 4.352 0 0 0 0.64 1.024l0.768 1.216c0.192 0.384 0.64 0.768 0.832 1.216 0.192 0.384 0.576 0.576 0.768 0.96l1.216 1.216 0.768 0.768 1.28 1.28c0.32 0.128 0.512 0.32 0.96 0.768 0.384 0.384 0.768 0.576 1.408 0.96a4.16 4.16 0 0 1 1.152 0.832c0.448 0.192 0.832 0.64 1.28 0.768 0.576 0.192 0.96 0.64 1.536 0.832 0.384 0.192 0.64 0.384 1.024 0.384 0.64 0.192 1.408 0.64 1.984 0.768 0.192 0 0.384 0.256 0.64 0.256l0.384 0.192h0.192l28.16 9.408-201.984 66.56H67.2l-0.384 0.192c-0.384 0.256-1.024 0.448-1.408 0.64-0.64 0.192-1.024 0.384-1.408 0.64-0.64 0.128-1.216 0.512-1.6 0.768a2.752 2.752 0 0 0-0.768 0.576c-0.448 0.192-1.024 0.64-1.408 0.768-0.192 0.256-0.64 0.448-0.832 0.64a6.08 6.08 0 0 1-1.408 0.96l-0.64 0.64a6.08 6.08 0 0 0-1.536 1.6l-0.192 0.192c-0.64 0.64-1.216 1.216-1.792 1.984-0.192 0.192-0.448 0.384-0.448 0.64a6.08 6.08 0 0 0-0.96 1.344c-0.192 0.256-0.384 0.64-0.64 0.832l-0.768 1.408-0.64 1.024c-0.192 0.576-0.576 0.96-0.768 1.6-0.192 0.192-0.192 0.576-0.384 0.768-0.448 0.768-0.64 1.6-0.832 2.368-0.192 0.448-0.192 0.64-0.192 1.024l-0.384 1.6c0 0.384-0.192 0.832-0.192 1.024-0.192 0.64-0.192 1.216-0.192 1.792 0 0.384 0 0.64-0.192 0.96 0 1.024-0.256 1.856-0.256 2.816v239.232c0 0.768 0 1.408 0.256 2.176 0 0.384 0 0.832 0.192 1.216 0 0.64 0.192 1.216 0.192 1.792 0 0.384 0.192 1.024 0.384 1.408 0.192 0.384 0.192 0.768 0.384 1.408l0.64 1.6 0.384 1.152c0.192 0.64 0.384 1.024 0.768 1.664a4.352 4.352 0 0 0 0.64 0.96c0.192 0.384 0.64 1.024 0.768 1.408l0.64 1.216 0.768 1.152c0.192 0.448 0.64 0.832 0.832 1.28 0.192 0.32 0.576 0.576 0.768 0.96l1.216 1.216 0.768 0.768 1.28 1.216c0.128 0.192 0.512 0.384 0.96 0.768 0.384 0.448 0.768 0.64 1.408 1.024a4.16 4.16 0 0 1 1.152 0.768c0.448 0.256 0.832 0.64 1.28 0.832 0.576 0.192 0.96 0.64 1.536 0.832l1.024 0.576c0.64 0.192 1.408 0.64 1.984 0.768 0.192 0 0.384 0.256 0.64 0.256l0.384 0.192h0.192l267.776 88.576h0.192c0.384 0.192 0.832 0.192 1.216 0.384s1.024 0.192 1.408 0.384c0.384 0 0.768 0.256 1.216 0.256 0.576 0.192 1.152 0.192 1.6 0.192 0.384 0 0.576 0 0.96 0.192 1.024 0 1.792 0.192 2.816 0.192 1.024 0 1.792 0 2.816-0.192 0.384 0 0.64 0 0.96-0.192 0.64 0 1.28-0.192 1.6-0.192 0.448 0 0.832-0.256 1.28-0.256 0.32-0.192 0.96-0.192 1.344-0.384 0.384-0.192 0.768-0.192 1.216-0.384h0.192l139.008-46.016a265.344 265.344 0 0 1-25.792-55.808z m287.552-409.6L547.392 469.568V294.208l208.384-68.992v175.36zM517.376 126.528l172.8 57.216-172.8 57.216-172.8-57.216 172.8-57.216zM279.04 225.152l208.448 69.056v175.36L278.976 400.64V225.28z m35.84 616.064l-208.384-68.992V596.8l208.384 68.992v175.36z m404.416-29.248a29.824 29.824 0 0 1-21.248-8.768l-59.584-59.584a29.824 29.824 0 0 1 0-42.432 29.824 29.824 0 0 1 42.368 0l40.256 40.192 93.952-79.36a30.08 30.08 0 0 1 42.24 3.584 30.08 30.08 0 0 1-3.584 42.24l-115.008 97.152a30.848 30.848 0 0 1-19.392 7.04z m19.968 147.008a238.592 238.592 0 0 1-238.4-238.4 238.784 238.784 0 0 1 238.4-238.592 238.592 238.592 0 0 1 238.4 238.4 238.912 238.912 0 0 1-238.4 238.592z m0-416.96a178.56 178.56 0 0 0-178.432 178.368 178.56 178.56 0 0 0 178.432 178.432 178.56 178.56 0 0 0 178.368-178.432A178.56 178.56 0 0 0 739.2 542.08z" p-id="13309"></path></svg>