<?xml version="1.0" standalone="no"?><!DOCTYPE svg PUBLIC "-//W3C//DTD SVG 1.1//EN" "http://www.w3.org/Graphics/SVG/1.1/DTD/svg11.dtd"><svg t="1677561038234" class="icon" viewBox="0 0 1024 1024" version="1.1" xmlns="http://www.w3.org/2000/svg" p-id="3008" xmlns:xlink="http://www.w3.org/1999/xlink" width="200" height="200"><path d="M512 0a512 512 0 1 0 0 1024A512 512 0 0 0 512 0z m0 950.857143A438.857143 438.857143 0 1 1 512 73.142857a438.857143 438.857143 0 0 1 0 877.714286z m226.742857-625.371429C669.696 277.942857 591.433143 253.952 512 256c-79.579429-0.950857-157.988571 24.356571-226.742857 73.142857-58.002286 34.816-96.841143 104.228571-102.4 182.857143 4.534857 80.018286 43.52 151.04 102.4 186.514286 69.12 47.542857 147.382857 71.533714 226.742857 69.485714 79.36 2.048 157.622857-21.942857 226.742857-69.485714 58.88-35.474286 97.865143-106.496 102.4-186.514286-4.534857-80.018286-43.52-151.04-102.4-186.514286z m-40.155428 310.125715c-57.051429 40.594286-121.417143 61.001143-186.587429 59.245714-65.170286 1.755429-129.536-18.651429-186.587429-59.245714-38.4-22.674286-64.731429-69.632-69.412571-123.611429 4.681143-53.979429 31.012571-100.937143 69.412571-123.611429 57.051429-40.594286 121.417143-61.001143 186.587429-59.245714 65.170286-1.755429 129.536 18.651429 186.587429 59.245714 38.4 22.674286 64.731429 69.632 69.412571 123.611429-4.681143 53.979429-31.012571 100.937143-69.412571 123.611429zM512 389.851429a122.148571 122.148571 0 1 0 0 244.297142 122.148571 122.148571 0 0 0 0-244.297142z m0 170.422857A48.274286 48.274286 0 1 1 561.005714 512a49.005714 49.005714 0 0 1-49.005714 48.274286z" p-id="3009"></path></svg>