<?xml version="1.0" standalone="no"?><!DOCTYPE svg PUBLIC "-//W3C//DTD SVG 1.1//EN" "http://www.w3.org/Graphics/SVG/1.1/DTD/svg11.dtd"><svg t="1684477839627" class="icon" viewBox="0 0 1024 1024" version="1.1" xmlns="http://www.w3.org/2000/svg" p-id="13174" xmlns:xlink="http://www.w3.org/1999/xlink" width="200" height="200"><path d="M192 384c70.4 0 128-57.6 128-128s-57.6-128-128-128-128 57.6-128 128 57.6 128 128 128z m0-192c35.2 0 64 28.8 64 64s-28.8 64-64 64-64-28.8-64-64 28.8-64 64-64z m0 448c-70.4 0-128 57.6-128 128s57.6 128 128 128 128-57.6 128-128-57.6-128-128-128z m0 192c-35.2 0-64-28.8-64-64s28.8-64 64-64 64 28.8 64 64-28.8 64-64 64z m93.376-422.912l-113.28 113.28-52.672-52.736a32 32 0 0 0-45.312 45.248l75.136 75.072a32 32 0 0 0 45.248 0l135.872-135.872a31.808 31.808 0 1 0-44.992-44.992zM874.688 256a32 32 0 0 0-32-32H437.312a32 32 0 0 0 0 64h405.376a32 32 0 0 0 32-32zM405.312 512a32 32 0 0 0 32 32H928a32 32 0 1 0 0-64H437.312a32 32 0 0 0-32 32z m0 256a32 32 0 0 0 32 32h320a32 32 0 1 0 0-64h-320a32 32 0 0 0-32 32z" p-id="13175"></path></svg>