<?xml version="1.0" standalone="no"?><!DOCTYPE svg PUBLIC "-//W3C//DTD SVG 1.1//EN" "http://www.w3.org/Graphics/SVG/1.1/DTD/svg11.dtd"><svg t="1677561034668" class="icon" viewBox="0 0 1194 1024" version="1.1" xmlns="http://www.w3.org/2000/svg" p-id="2874" xmlns:xlink="http://www.w3.org/1999/xlink" width="233.203125" height="200"><path d="M393.797581 0.040958c64.765409-0.682639 127.141581 7.167713 187.384505 23.721718 64.850739 17.748623 111.782195 44.542218 177.059584 94.630882l54.01384 41.299681c47.272776 34.814607 82.940682 54.013839 127.65356 65.789368l21.58847 5.205125 21.50314 4.181167c57.341706 9.727611 115.963361 8.532992 172.793088-3.498527l-154.447155 576.74493-4.863806 3.157207c-43.518259 26.366945-108.027679 30.036132-193.698918 10.239591-70.823834-16.554005-118.096609-43.944909-184.653948-98.812048l-42.23831-34.729277c-50.259323-40.105062-86.524539-60.669573-135.930563-72.957082A678.714185 678.714185 0 0 0 229.537485 598.203699l-9.044971 0.597309-108.795649 397.040118-2.047918 5.631775a37.118515 37.118515 0 0 1-69.458555-25.257656l100.433316-367.515966L286.111222 65.233017l2.730558-8.191672c11.09289-29.438822 37.289175-50.600643 68.434596-55.293788l8.618322-0.853299 27.902883-0.8533z m0.68264 74.237031L369.478554 75.045958l-9.300961 0.42665L240.203725 523.113369l17.236644-0.51198 26.196286-0.341319c60.840233 0 118.949909 6.911724 174.243696 20.73517 61.096223 15.103396 107.771689 40.787702 171.51314 92.668293l42.66496 35.241257c58.365665 46.931456 93.777582 65.704039 147.620762 78.247537 46.504806 10.75157 83.793982 13.482127 110.843566 8.532992l9.983601-9.386291L1056.384411 315.761663l-15.956695-0.59731-23.892377-1.450608a552.084583 552.084583 0 0 1-95.569511-16.468675c-54.611149-14.420757-99.836007-38.142474-158.372332-81.916723l-55.805768-42.83562c-58.621655-44.200899-94.716211-63.400131-145.231524-77.223578a609.1703 609.1703 0 0 0-191.99232-20.223191l24.916337-0.853299z" p-id="2875"></path></svg>