<?xml version="1.0" standalone="no"?><!DOCTYPE svg PUBLIC "-//W3C//DTD SVG 1.1//EN" "http://www.w3.org/Graphics/SVG/1.1/DTD/svg11.dtd"><svg t="1684477855428" class="icon" viewBox="0 0 1024 1024" version="1.1" xmlns="http://www.w3.org/2000/svg" p-id="13716" xmlns:xlink="http://www.w3.org/1999/xlink" width="200" height="200"><path d="M454.592 377.472l4.416 4.48L512 448l46.464-63.616a32.32 32.32 0 0 1 40.192-10.048l5.568 3.392a31.936 31.936 0 0 1 9.024 39.872l-3.776 5.76-47.232 57.344h119.168a32.768 32.768 0 0 1 0 65.536H543.488v61.696L640 608a32 32 0 0 1 0 64H543.424l0.064 105.344a31.488 31.488 0 1 1-62.912 0V672L384 672a32 32 0 0 1 0-64h96.512l0.064-61.76H342.656a32.768 32.768 0 1 1 0-65.536h120.256l-50.688-59.2a30.912 30.912 0 0 1 3.328-43.584 30.4 30.4 0 0 1 39.04-0.448zM981.76 224H702.08l75.328-83.008a31.36 31.36 0 0 0-3.328-45.44 33.792 33.792 0 0 0-47.04 4.16L620.032 224a42.688 42.688 0 0 0 0 60.352l106.88 124.288a33.792 33.792 0 0 0 47.104 3.968 30.976 30.976 0 0 0 2.816-45.12L701.952 288h279.808a32 32 0 0 0 0-64z" p-id="13717"></path><path d="M512 32l5.76 0.512A32 32 0 0 1 512 96a416 416 0 1 0 171.328 795.2 160 160 0 0 1 207.744-207.936 412.16 412.16 0 0 0 36.928-166.976V512a32 32 0 0 1 26.24-31.488L960 480a32 32 0 0 1 32 32 478.08 478.08 0 0 1-46.784 207.04 160 160 0 0 1-226.304 226.176A480 480 0 1 1 512 32z m320 704a96 96 0 0 0-84.992 140.608l4.032 7.04 2.816 4.16 4.928 6.336 3.84 4.224 6.528 6.208 2.88 2.368a96 96 0 0 0 133.12-137.152l-4.224-4.544-2.56-2.56-6.592-5.76-4.032-3.072-6.4-4.224a95.36 95.36 0 0 0-14.016-6.912l-8.32-2.88A96 96 0 0 0 832 736z" p-id="13718"></path></svg>