<?xml version="1.0" standalone="no"?><!DOCTYPE svg PUBLIC "-//W3C//DTD SVG 1.1//EN" "http://www.w3.org/Graphics/SVG/1.1/DTD/svg11.dtd"><svg t="1684477850502" class="icon" viewBox="0 0 1024 1024" version="1.1" xmlns="http://www.w3.org/2000/svg" p-id="13579" xmlns:xlink="http://www.w3.org/1999/xlink" width="200" height="200"><path d="M512 32a480 480 0 0 1 480 480l-64 0.128A416 416 0 1 0 512 928v64A480 480 0 0 1 512 32z" p-id="13580"></path><path d="M960 512m-64 0a64 64 0 1 0 128 0 64 64 0 1 0-128 0Z" p-id="13581"></path><path d="M512 960m-64 0a64 64 0 1 0 128 0 64 64 0 1 0-128 0Z" p-id="13582"></path><path d="M926.976 853.76h2.432c16.256 1.28 29.12 14.08 30.4 30.336l0.128 2.56-0.128 2.496a32.96 32.96 0 0 1-30.272 30.336l-2.56 0.128h-192.32l17.92 17.92 1.92 2.048a32.96 32.96 0 0 1-46.464 46.464l-2.112-1.92-74.176-74.176-1.728-1.856a32.96 32.96 0 0 1 22.528-54.272l2.56-0.128h271.872z m-50.944-188.16l74.176 74.176 1.728 1.92a32.96 32.96 0 0 1-22.464 54.208l-2.56 0.128h-271.872l-2.496-0.064a32.96 32.96 0 0 1-30.4-30.336l-0.064-2.56 0.064-2.496a32.96 32.96 0 0 1 30.272-30.336l2.56-0.128h192.384l-17.92-17.92-1.92-2.048a32.96 32.96 0 0 1 46.464-46.464l2.048 1.92zM416.64 305.664c2.048 12.352-1.536 20.096-10.816 23.168a46.72 46.72 0 0 1-24.32 6.4l-3.456-0.192v46.336h33.92l2.368 1.536c17.536 12.352 18.048 25.152 1.472 38.4l-2.24 1.728h-35.52v9.28l3.072 4.992c1.92 3.072 4.032 6.016 6.208 8.96 12.352 16.64 24.192 33.6 35.52 50.944 6.144 13.44 4.096 24.704-6.208 33.984-11.584 6.784-20.992 4.48-28.032-7.04l-1.28-2.24-9.28-15.424v126.72l-0.32 2.112c-1.728 9.984-8.832 15.36-21.312 16.384-13.504 0-20.672-4.992-21.568-14.912V525.056l-1.92 5.12a188.8 188.8 0 0 1-15.168 33.472c-9.216 12.352-19.52 16.448-30.848 12.352-11.328-7.168-13.44-17.472-6.208-30.912 20.736-38.72 37.248-76.096 49.28-112.192l3.2-9.856h-40.128l-2.24 0.128c-10.88 0.064-16.256-6.656-16.256-20.16 0-12.544 5.376-19.648 16.128-21.376l2.368-0.256h41.728v-41.728l-7.296 1.088c-9.6 1.344-18.432 1.984-26.688 1.984-10.304 0-16-5.632-17.024-16.96 0-13.44 4.672-21.12 13.952-23.168a1294.72 1294.72 0 0 0 98.88-12.352c10.24-1.024 16.96 4.096 20.032 15.424z m169.728-4.672c20.8 0 31.168 10.368 31.168 31.104v264h9.216l2.112 0.32c8.96 1.664 13.952 8.32 14.912 19.776-1.024 13.44-6.016 21.12-15.04 22.848l-1.984 0.32H408.896l-2.432-0.32c-10.752-1.728-16.128-8.832-16.128-21.312 0-11.52 5.376-18.176 16.128-19.84l2.432-0.256h21.568V333.568c-0.064-20.672 9.28-31.488 28.032-32.448l2.88-0.064h122.048l2.88-0.064z m-12.16 237.952H473.728v57.152h100.48V538.88z m0-97.28H473.728v52.48h100.48V441.6z m-7.68-95.808H483.008l-1.728 0.064c-4.48 0.64-6.912 3.456-7.424 8.64l-0.128 2.112V396.8h100.48v-40.128L574.08 354.56c-0.448-5.824-3.008-8.768-7.68-8.768z" p-id="13583"></path></svg>