<?xml version="1.0" standalone="no"?><!DOCTYPE svg PUBLIC "-//W3C//DTD SVG 1.1//EN" "http://www.w3.org/Graphics/SVG/1.1/DTD/svg11.dtd"><svg t="1677561050718" class="icon" viewBox="0 0 1024 1024" version="1.1" xmlns="http://www.w3.org/2000/svg" p-id="3411" xmlns:xlink="http://www.w3.org/1999/xlink" width="200" height="200"><path d="M564.073995 0c53.171059 0 95.956575 40.591386 95.956574 89.959289v70.943504c37.37333 13.823013 71.309192 32.399971 102.026998 55.511463l65.82387-35.398614c21.795015-12.433398 47.612599-15.432041 72.333119-9.28848 25.305621 6.143561 45.564745 21.063638 58.656382 42.127277l52.073995 84.839654c12.725948 20.478537 16.455967 44.613956 9.361617 67.725448a90.983215 90.983215 0 0 1-44.467681 55.072638l-65.82387 35.398615a314.418684 314.418684 0 0 1 0 110.072137l65.82387 35.398615c21.94129 12.287122 37.812156 31.302907 44.613956 54.9995 7.09435 23.111492 3.218056 47.246911-9.361617 67.798585l-52.073995 84.839655a94.786372 94.786372 0 0 1-58.729519 42.054139 98.370116 98.370116 0 0 1-72.406257-9.142204l-65.677594-35.398615c-30.717806 23.111492-64.799943 41.688451-102.026998 55.584601v70.943504c0 49.294765-42.785515 89.886151-96.029713 89.886151H459.926005c-53.171059 0-95.956575-40.591386-95.956574-89.959288v-70.943504a398.746375 398.746375 0 0 1-102.026998-55.511464l-65.82387 35.398615a98.370116 98.370116 0 0 1-72.333119 9.142204 94.054996 94.054996 0 0 1-58.656382-42.127277L13.055067 725.159631a81.914149 81.914149 0 0 1-9.361617-67.798585c6.655525-23.696593 22.453253-42.712378 44.467681-54.9995l65.604457-35.398615a314.418684 314.418684 0 0 1 0-110.072137l-65.82387-35.398615c-21.94129-12.433398-37.812156-31.449182-44.394543-55.072638a82.49925 82.49925 0 0 1 9.361617-67.798585l52.073995-84.766517c13.164774-21.063638 33.497036-35.983715 58.729519-42.127277a98.735805 98.735805 0 0 1 72.333119 9.28848l65.82387 35.398614c30.717806-23.111492 64.726805-41.688451 101.95386-55.584601v-70.943504C363.823155 40.664524 406.681808 0 459.852868 0z m1.243339 77.160203H458.902078c-7.825727 0-14.042426 6.362974-14.042425 13.018499V219.412899a303.521177 303.521177 0 0 0-83.962003 27.49975c-8.410828 3.656882-16.821656 8.264553-24.647382 13.457325a312.955932 312.955932 0 0 0-68.383687 53.390472l-73.357046-39.348047-47.027498-24.939933a12.213985 12.213985 0 0 0-6.655525-2.047853c-1.682166 0-2.77923 0.438826-3.949432 0.438825a15.432041 15.432041 0 0 0-8.410828 6.216699l-53.097921 85.571031c-2.925505 3.656882-1.755303 7.825727-1.755303 9.87358l2.120991 3.510607a13.89615 13.89615 0 0 0 4.607671 4.241982l46.734947 24.939933 73.357046 39.421184a281.141061 281.141061 0 0 0-15.651453 81.402186c-0.511963 4.168845-0.511963 8.922791-0.511964 13.018499 0 4.168845 0 8.922791 0.511964 13.018498 1.023927 28.523677 6.728662 56.023427 15.651453 81.475324l-73.357046 39.348046-47.027498 24.939933c-4.388258 2.559817-5.485322 6.216699-6.655524 7.825727 0 2.047854-1.097064 6.143561 1.682165 9.800442l53.17106 85.571031a15.432041 15.432041 0 0 0 8.410827 6.216699c2.194129 0.511963 6.143561 1.023927 10.604957-1.53589l46.954361-24.939933 73.357045-39.421184c20.259124 20.69795 43.151203 38.909221 68.383687 53.390472 7.898864 5.192772 16.236555 9.87358 24.647383 13.530462 25.744447 12.872223 54.341261 22.23384 84.03514 27.938576v128.649096c0 6.8018 6.143561 12.945361 14.042426 12.945361h106.415256c7.825727 0 14.042426-6.289836 14.042425-12.945361v-128.722234a321.36676 321.36676 0 0 0 83.962003-27.865438c8.410828-3.656882 16.821656-8.33769 24.647382-13.530462 25.232483-14.481251 48.1977-32.546247 68.383687-53.390472l73.503321 39.421184 46.954361 24.866795a13.89615 13.89615 0 0 0 10.678094 1.609028 15.432041 15.432041 0 0 0 8.410828-6.216699l53.097921-85.571031c2.77923-3.656882 1.755303-7.752589 1.828441-9.800442-1.023927-1.609028-2.194129-5.26591-6.655524-7.825727l-47.027498-24.866795-73.357046-39.494322c8.922791-25.378759 14.481251-52.805371 15.651453-81.402186 0.511963-4.095707 0.511963-8.849654 0.511964-13.018498 0-4.095707 0-8.849654-0.511964-13.018499a276.825941 276.825941 0 0 0-15.651453-81.402186l73.357046-39.421184 47.027498-24.866795c4.388258-2.632955 5.485322-6.216699 6.655524-7.825727 0-2.047854 1.097064-6.216699-1.682165-9.87358l-53.17106-85.571031a15.432041 15.432041 0 0 0-8.410827-6.216699c-1.170202 0-2.194129-0.438826-3.876295-0.438825a12.213985 12.213985 0 0 0-6.728662 2.047853l-46.954361 24.866795-73.357045 39.494322a316.685951 316.685951 0 0 0-68.383687-53.390472 161.195343 161.195343 0 0 0-24.647383-13.530462A303.521177 303.521177 0 0 0 579.286622 219.412899V90.178702c0-6.8018-6.143561-13.018499-14.042425-13.018499zM512 332.410542c100.783658 0 182.844083 81.987287 182.844083 182.844083 0 100.783658-82.060424 182.844083-182.844083 182.844082a183.063495 183.063495 0 0 1-182.844083-182.844082c0-100.856796 82.060424-182.844083 182.844083-182.844083z m0 78.403543c-57.48618 0-104.367402 46.808085-104.367402 104.367402S454.440683 619.548889 512 619.548889c57.48618 0 104.367402-46.808085 104.367402-104.367402 0-57.48618-46.808085-104.367402-104.367402-104.367402z" p-id="3412"></path></svg>