<?xml version="1.0" standalone="no"?><!DOCTYPE svg PUBLIC "-//W3C//DTD SVG 1.1//EN" "http://www.w3.org/Graphics/SVG/1.1/DTD/svg11.dtd"><svg t="1677561234782" class="icon" viewBox="0 0 1024 1024" version="1.1" xmlns="http://www.w3.org/2000/svg" p-id="3680" xmlns:xlink="http://www.w3.org/1999/xlink" width="200" height="200"><path d="M804.571429 0a146.285714 146.285714 0 0 1 146.285714 146.285714v383.049143l-5.485714-8.411428L940.032 512c-24.722286-43.154286-44.617143-69.046857-62.317714-84.041143V146.285714a73.142857 73.142857 0 0 0-73.142857-73.142857H146.285714a73.142857 73.142857 0 0 0-73.142857 73.142857v658.285715a73.142857 73.142857 0 0 0 73.142857 73.142857l236.836572 0.073143-7.314286 37.376c-2.340571 12.214857-4.388571 24.137143-5.412571 35.766857L146.285714 950.857143a146.285714 146.285714 0 0 1-146.285714-146.285714V146.285714a146.285714 146.285714 0 0 1 146.285714-146.285714h658.285715zM497.005714 585.142857H182.857143a36.571429 36.571429 0 0 1 0-73.142857h339.090286c-8.996571 21.065143-16.457143 45.494857-24.941715 73.142857zM694.857143 219.428571a36.571429 36.571429 0 0 1 0 73.142858h-512a36.571429 36.571429 0 0 1 0-73.142858h512z" p-id="3681"></path><path d="M731.428571 438.857143a146.285714 146.285714 0 1 1 0 292.571428 146.285714 146.285714 0 0 1 0-292.571428z m0.731429 73.142857a73.142857 73.142857 0 1 0 0 146.285714 73.142857 73.142857 0 0 0 0-146.285714zM465.042286 1024h532.772571c15.213714 0 27.282286-14.336 26.112-31.085714C1013.979429 846.409143 924.745143 731.428571 814.518857 731.428571H648.338286C538.038857 731.428571 448.877714 846.409143 438.857143 992.914286c-1.170286 16.822857 10.898286 31.085714 26.112 31.085714z m343.625143-219.428571c65.828571 0 130.633143 113.078857 130.633142 146.285714H524.068571c0-36.571429 64.585143-146.285714 130.486858-146.285714h154.112z" p-id="3682"></path></svg>