<svg viewBox="0 0 79 20" fill="none" xmlns="http://www.w3.org/2000/svg"><g clip-path="url(#combine-dark_svg__clip0_69_3)" fill-rule="evenodd" clip-rule="evenodd"><path d="M10.646 6.454c-1.751 2.367-3.678 7.766.298 13.2a9.614 9.614 0 01-8.768-3.446c.377-1.406 2.464-6.785 8.47-9.754zm-.938 3.63c.09 3.547 3.294 6.858 7.36 6.171a9.62 9.62 0 01-4.993 3.184c-.998-1.036-3.441-4.751-2.367-9.354zM9.634.477c2.066 0 3.98.65 5.55 1.758-.676-.116-4.846-1.066-8.932 1.918 6.65-2.73 10.37-.89 11.208.294 1.353 1.91.312 3.746-.31 4.122.033-.376.475-3.552-4.14-3.213-6.37.469-10.678 7.373-11.557 9.845A9.596 9.596 0 010 10.11C0 4.788 4.313.475 9.634.475zm9.564 8.475c.046.38.069.766.069 1.158a9.585 9.585 0 01-1.233 4.72c-3.795 1.258-6.53-1.312-7.017-2.497 3.097 1.747 7.19-.18 8.18-3.381z" fill="#0084FF"></path><path d="M38.385 2.779v1.946h-5.874a.51.51 0 00-.51.51v2.422c0 .14.113.256.254.256l6.826.006v1.946h-6.142c-.1 0-.162.108-.11.193l-1.302 2.495-.767-1.088c-.06-.088-.118 0-.118 0-1.544 2.225-2.28 3.326-3.39 4.843-1.096 1.498-1.74 1.53-2.45 1.53h-.61c-.648 0-1.495-.002-1.87 0v-1.965s1.204.008 1.704 0c1.082.004 4.01-4.812 4.547-5.824a.126.126 0 00-.114-.184H22.32V7.919l6.838-.006a.255.255 0 00.255-.256V5.234a.51.51 0 00-.51-.51l-5.873.001V2.78h15.354zm17.995-.227c1.006 0 1.646.671 1.646 1.396l.003 5.535a.51.51 0 01-.509.51l-7.018.013c-.14 0-.17.112-.171.252v5.534c0 .285.152.553.437.553h1.668v1.49H49.17a1.29 1.29 0 01-1.289-1.29L47.9 3.892c0-.747.608-1.342 1.354-1.34h7.126zm22.137 13.794v1.488H60.522v-1.488h17.996zm-20.942-5.302v1.47h-.338a402.9 402.9 0 00-3.073.002.126.126 0 00-.108.191c.98 1.6 1.361 2.146 2.094 3.242.323.484.88.384 1.535.397.218.004.351 0 .351 0v1.488h-1.91c-1.19 0-1.245-.36-2.37-2.065-.87-1.32-1.77-2.74-2.49-4-.184-.322.104-.72.474-.718 1.784.005 5.835-.007 5.835-.007zm-24.746-.986l.761 1.262c1.096 1.78 2.98 4.551 3.8 4.549.5.007 1.705 0 1.705 0v1.965c-.329-.002-1.018-.002-1.62-.001h-.953c-.675-.005-1.31-.096-2.357-1.529a178.347 178.347 0 01-2.638-3.751l1.302-2.495zm13.327-7.28a.9.9 0 01.9.9l-.01 13.917h-4.463a1.248 1.248 0 01-1.27-1.245L41.31 3.679a.9.9 0 01.9-.9h3.946zm-1.134 10.327h-1.656a.255.255 0 00-.255.256l-.001 1.883c0 .478.422.866.943.866h1.205l.02-2.748a.256.256 0 00-.256-.257zM70.91 2.552v.72c0 .14.114.255.255.255h7.36v1.538h-4.503c-.126 0-.177.164-.07.234.65.42 1.92 1.128 2.49 1.441.187.104.398.158.613.158h1.47v1.875h-1.401l.004 5.209c.003.792-.631 1.373-1.414 1.373H63.362c-.794 0-1.436-.589-1.439-1.391l-.006-5.19h-1.395V6.897h1.472c.216 0 .429-.055.619-.16.499-.28 1.682-.877 2.494-1.442.103-.07.051-.231-.073-.231H60.52V3.527h7.365a.255.255 0 00.256-.254v-.721h2.769zm3.948 9.843H64.147v.79c0 .479.41.647 1.035.647h8.746c.523 0 .931-.17.931-.649v-.788zM45.023 8.627h-1.657a.255.255 0 00-.255.255v2.302c0 .141.114.255.255.255h1.657a.254.254 0 00.255-.255V8.882a.254.254 0 00-.255-.255zm29.574.753H64.394a.248.248 0 00-.247.256v1.33h10.712V9.634a.262.262 0 00-.262-.254zM50.331 6.902v1.634h5.603v-1.63l-5.603-.004zM68.145 5.81c0-.1-.113-.16-.198-.107-1.493.913-2.6 1.55-3.59 2.232h10.299c-1.689-1.02-2.065-1.398-3.55-2.232-.085-.048-.193.012-.193.109v1.753h-2.77l.002-1.755zM45.023 4.293h-1.657a.255.255 0 00-.255.255v2.306c0 .14.114.255.255.255h1.657a.255.255 0 00.255-.255V4.548a.255.255 0 00-.255-.255zm9.967-.345h-4.404a.25.25 0 00-.255.25v1.299h5.603v-.684c0-.478-.423-.865-.944-.865z" fill="#54565B"></path></g><defs><clipPath id="combine-dark_svg__clip0_69_3"><path fill="#fff" d="M0 0h79v20H0z"></path></clipPath></defs></svg>