<?xml version="1.0" encoding="UTF-8"?>
<svg width="22px" height="22px" viewBox="0 0 22 22" version="1.1" xmlns="http://www.w3.org/2000/svg" xmlns:xlink="http://www.w3.org/1999/xlink">
    <title>调拨单</title>
    <g id="调拨" stroke="none" stroke-width="1" fill="none" fill-rule="evenodd">
        <g id="调拨单-详情（未提交）" transform="translate(-258.000000, -122.000000)" fill-rule="nonzero">
            <g id="编组-19" transform="translate(223.000000, 101.000000)">
                <g id="调拨单" transform="translate(35.000000, 21.000000)">
                    <rect id="矩形" fill="#000000" opacity="0" x="0" y="0" width="22" height="22"></rect>
                    <path d="M19.7777539,7.33332617 C20.3300387,7.33332617 20.7777539,7.78104142 20.7777539,8.33332617 L20.7777539,19.8931079 C20.7777539,20.3816963 20.3816748,20.7777754 19.8930864,20.7777754 C19.4044981,20.7777754 19.0084189,20.3816963 19.0084189,19.8931079 L19.0084189,9.41604395 C19.0084189,9.19513005 18.8293328,9.01604395 18.6084189,9.01604395 L3.39779103,9.01604395 C3.17687713,9.01604395 2.99779103,9.19513005 2.99779103,9.41604395 L2.99779103,19.8899922 C2.99779103,20.3803013 2.60031695,20.7777754 2.11000782,20.7777754 C1.61969869,20.7777754 1.22222461,20.3803013 1.22222461,19.8899922 L1.22222461,8.33332617 C1.22222461,7.78104142 1.66993986,7.33332617 2.22222461,7.33332617 L19.7777539,7.33332617 Z M8.90533073,11 C9.40238701,11 9.80533073,11.4029437 9.80533073,11.9 L9.80533073,19.8532578 C9.80533073,20.350314 9.40238701,20.7532578 8.90533073,20.7532578 C8.40827446,20.7532578 8.00533073,20.350314 8.00533073,19.8532578 L8.00522461,14.0742461 L6.57139103,15.50847 C6.21991916,15.8599419 5.65007068,15.8599419 5.29859882,15.50847 C4.94712696,15.1569982 4.94712696,14.5871497 5.29859882,14.2356778 L8.2684473,11.2658293 C8.43362484,11.0999219 8.65780878,11 8.90533073,11 Z M13.6997134,20.5261183 C13.5407611,20.6674236 13.3313981,20.7532578 13.1019876,20.7532578 C12.984161,20.7532578 12.8716229,20.7306155 12.7684868,20.6894447 C12.7566013,20.6843569 12.7448122,20.6793962 12.7331117,20.6741732 C12.7096,20.6638531 12.6867185,20.652344 12.6644203,20.6399143 C12.652619,20.6333621 12.6408326,20.62648 12.6291743,20.6193076 C12.6098678,20.6072524 12.5912564,20.5947445 12.5731547,20.5815782 C12.5559287,20.5693999 12.5387658,20.5560166 12.5219959,20.541925 C12.5118968,20.5329496 12.502279,20.5244721 12.492847,20.5157958 C12.4831044,20.5074286 12.4733923,20.4981372 12.4638414,20.4885864 L12.442298,20.4654805 C12.4311738,20.4534994 12.4203721,20.4412148 12.4099066,20.4286405 L12.4638414,20.4885864 C12.4281084,20.4528534 12.3960083,20.4148633 12.3675411,20.3750749 C12.362375,20.3663133 12.3564767,20.3577213 12.3507254,20.3490236 C12.2470068,20.1945578 12.1971888,20.0149074 12.2003818,19.8360275 L12.2019876,11.9 C12.2019876,11.4029437 12.6049313,11 13.1019876,11 C13.5990438,11 14.0019876,11.4029437 14.0019876,11.9 L14.0012246,17.6772461 L15.4336899,16.2459457 C15.7851618,15.8944738 16.3550102,15.8944738 16.7064821,16.2459457 C17.057954,16.5974176 17.057954,17.167266 16.7064821,17.5187379 Z M15.8888984,1.22224609 C18.5889289,1.22224609 20.7777539,3.41107107 20.7777539,6.11110156 L1.22224609,6.11110156 C1.22224609,3.41107107 3.41107107,1.22224609 6.11110156,1.22224609 L15.8888984,1.22224609 Z" id="形状" fill="#FF9800"></path>
                </g>
            </g>
        </g>
    </g>
</svg>