<?xml version="1.0" standalone="no"?><!DOCTYPE svg PUBLIC "-//W3C//DTD SVG 1.1//EN" "http://www.w3.org/Graphics/SVG/1.1/DTD/svg11.dtd"><svg t="1701332165087" class="icon" viewBox="0 0 1024 1024" version="1.1" xmlns="http://www.w3.org/2000/svg" p-id="4332" xmlns:xlink="http://www.w3.org/1999/xlink" width="200" height="200"><path d="M512 32a480 480 0 0 1 480 480l-64 0.128A416 416 0 1 0 512 928v64A480 480 0 0 1 512 32z" p-id="4333"></path><path d="M960 512m-64 0a64 64 0 1 0 128 0 64 64 0 1 0-128 0Z" p-id="4334"></path><path d="M512 960m-64 0a64 64 0 1 0 128 0 64 64 0 1 0-128 0Z" p-id="4335"></path><path d="M926.976 853.76h2.432c16.256 1.28 29.12 14.08 30.4 30.336l0.128 2.56-0.128 2.496a32.96 32.96 0 0 1-30.272 30.336l-2.56 0.128h-192.32l17.92 17.92 1.92 2.048a32.96 32.96 0 0 1-46.464 46.464l-2.112-1.92-74.176-74.176-1.728-1.856a32.96 32.96 0 0 1 22.528-54.272l2.56-0.128h271.872z m-50.944-188.16l74.176 74.176 1.728 1.92a32.96 32.96 0 0 1-22.464 54.208l-2.56 0.128h-271.872l-2.496-0.064a32.96 32.96 0 0 1-30.4-30.336l-0.064-2.56 0.064-2.496a32.96 32.96 0 0 1 30.272-30.336l2.56-0.128h192.384l-17.92-17.92-1.92-2.048a32.96 32.96 0 0 1 46.464-46.464l2.048 1.92z" p-id="4336"></path><path d="M674.304 269.568l36.416 27.328c13.952 10.432 23.552 25.728 26.752 42.88a55.808 55.808 0 0 1-9.28 41.152L496.64 710.272c0 1.6-2.496 1.6-4.096 1.6l-119.232 54.144a20.608 20.608 0 0 1-22.016-2.688 23.232 23.232 0 0 1-8.448-20.544l13.632-133.568a10.24 10.24 0 0 0 1.6-2.56l231.808-329.28a51.264 51.264 0 0 1 35.392-20.608c17.408-2.56 35.072 2.048 49.024 12.8z m-276.48 372.544l-6.784 67.712 61.76-27.968-54.976-39.68zM572.8 384.384L418.432 604.224l63.168 46.336 152.96-218.816-61.76-47.36z m75.328-80.256a15.872 15.872 0 0 0-20.544 1.664l-27.584 38.912 61.696 47.36 28.672-38.912a12.352 12.352 0 0 0 1.792-10.112 26.304 26.304 0 0 0-6.784-11.776l-37.248-27.136z" p-id="4337"></path></svg>